G04 #@! TF.GenerationSoftware,KiCad,Pcbnew,6.0.0-rc1-unknown-r14633-2e907bfa*
G04 #@! TF.CreationDate,2018-12-23T16:51:31-08:00
G04 #@! TF.ProjectId,td-rgb,74642d72-6762-42e6-9b69-6361645f7063,rev?*
G04 #@! TF.SameCoordinates,Original*
G04 #@! TF.FileFunction,Soldermask,Bot*
G04 #@! TF.FilePolarity,Negative*
%FSLAX46Y46*%
G04 Gerber Fmt 4.6, Leading zero omitted, Abs format (unit mm)*
G04 Created by KiCad (PCBNEW 6.0.0-rc1-unknown-r14633-2e907bfa) date Sun 23 Dec 2018 04:51:31 PM PST*
%MOMM*%
%LPD*%
G04 APERTURE LIST*
%ADD10C,0.100000*%
G04 APERTURE END LIST*
D10*
G36*
X165488566Y-109919389D02*
G01*
X165679835Y-109998615D01*
X165851977Y-110113637D01*
X165998364Y-110260024D01*
X166113386Y-110432166D01*
X166192612Y-110623435D01*
X166233001Y-110826484D01*
X166233001Y-111033516D01*
X166192612Y-111236565D01*
X166113386Y-111427834D01*
X165998364Y-111599976D01*
X165851977Y-111746363D01*
X165679835Y-111861385D01*
X165488566Y-111940611D01*
X165285517Y-111981000D01*
X165078485Y-111981000D01*
X164875436Y-111940611D01*
X164684167Y-111861385D01*
X164512025Y-111746363D01*
X164365638Y-111599976D01*
X164250616Y-111427834D01*
X164171390Y-111236565D01*
X164131001Y-111033516D01*
X164131001Y-110826484D01*
X164171390Y-110623435D01*
X164250616Y-110432166D01*
X164365638Y-110260024D01*
X164512025Y-110113637D01*
X164684167Y-109998615D01*
X164875436Y-109919389D01*
X165078485Y-109879000D01*
X165285517Y-109879000D01*
X165488566Y-109919389D01*
X165488566Y-109919389D01*
G37*
G36*
X153488566Y-109919389D02*
G01*
X153679835Y-109998615D01*
X153851977Y-110113637D01*
X153998364Y-110260024D01*
X154113386Y-110432166D01*
X154192612Y-110623435D01*
X154233001Y-110826484D01*
X154233001Y-111033516D01*
X154192612Y-111236565D01*
X154113386Y-111427834D01*
X153998364Y-111599976D01*
X153851977Y-111746363D01*
X153679835Y-111861385D01*
X153488566Y-111940611D01*
X153285517Y-111981000D01*
X153078485Y-111981000D01*
X152875436Y-111940611D01*
X152684167Y-111861385D01*
X152512025Y-111746363D01*
X152365638Y-111599976D01*
X152250616Y-111427834D01*
X152171390Y-111236565D01*
X152131001Y-111033516D01*
X152131001Y-110826484D01*
X152171390Y-110623435D01*
X152250616Y-110432166D01*
X152365638Y-110260024D01*
X152512025Y-110113637D01*
X152684167Y-109998615D01*
X152875436Y-109919389D01*
X153078485Y-109879000D01*
X153285517Y-109879000D01*
X153488566Y-109919389D01*
X153488566Y-109919389D01*
G37*
G36*
X171634239Y-104811467D02*
G01*
X171948282Y-104873934D01*
X172539926Y-105119001D01*
X173002126Y-105427834D01*
X173072395Y-105474786D01*
X173525214Y-105927605D01*
X173525216Y-105927608D01*
X173880999Y-106460074D01*
X174126066Y-107051718D01*
X174126066Y-107051719D01*
X174251000Y-107679803D01*
X174251000Y-108320197D01*
X174188533Y-108634239D01*
X174126066Y-108948282D01*
X173880999Y-109539926D01*
X173627449Y-109919390D01*
X173525214Y-110072395D01*
X173072395Y-110525214D01*
X173072392Y-110525216D01*
X172539926Y-110880999D01*
X171948282Y-111126066D01*
X171634239Y-111188533D01*
X171320197Y-111251000D01*
X170679803Y-111251000D01*
X170365761Y-111188533D01*
X170051718Y-111126066D01*
X169460074Y-110880999D01*
X168927608Y-110525216D01*
X168927605Y-110525214D01*
X168474786Y-110072395D01*
X168372551Y-109919390D01*
X168119001Y-109539926D01*
X167873934Y-108948282D01*
X167811467Y-108634239D01*
X167749000Y-108320197D01*
X167749000Y-107679803D01*
X167873934Y-107051719D01*
X167873934Y-107051718D01*
X168119001Y-106460074D01*
X168474784Y-105927608D01*
X168474786Y-105927605D01*
X168927605Y-105474786D01*
X168997874Y-105427834D01*
X169460074Y-105119001D01*
X170051718Y-104873934D01*
X170365761Y-104811467D01*
X170679803Y-104749000D01*
X171320197Y-104749000D01*
X171634239Y-104811467D01*
X171634239Y-104811467D01*
G37*
G36*
X114634239Y-104811467D02*
G01*
X114948282Y-104873934D01*
X115539926Y-105119001D01*
X116002126Y-105427834D01*
X116072395Y-105474786D01*
X116525214Y-105927605D01*
X116525216Y-105927608D01*
X116880999Y-106460074D01*
X117126066Y-107051718D01*
X117126066Y-107051719D01*
X117251000Y-107679803D01*
X117251000Y-108320197D01*
X117188533Y-108634239D01*
X117126066Y-108948282D01*
X116880999Y-109539926D01*
X116627449Y-109919390D01*
X116525214Y-110072395D01*
X116072395Y-110525214D01*
X116072392Y-110525216D01*
X115539926Y-110880999D01*
X114948282Y-111126066D01*
X114634239Y-111188533D01*
X114320197Y-111251000D01*
X113679803Y-111251000D01*
X113365761Y-111188533D01*
X113051718Y-111126066D01*
X112460074Y-110880999D01*
X111927608Y-110525216D01*
X111927605Y-110525214D01*
X111474786Y-110072395D01*
X111372551Y-109919390D01*
X111119001Y-109539926D01*
X110873934Y-108948282D01*
X110811467Y-108634239D01*
X110749000Y-108320197D01*
X110749000Y-107679803D01*
X110873934Y-107051719D01*
X110873934Y-107051718D01*
X111119001Y-106460074D01*
X111474784Y-105927608D01*
X111474786Y-105927605D01*
X111927605Y-105474786D01*
X111997874Y-105427834D01*
X112460074Y-105119001D01*
X113051718Y-104873934D01*
X113365761Y-104811467D01*
X113679803Y-104749000D01*
X114320197Y-104749000D01*
X114634239Y-104811467D01*
X114634239Y-104811467D01*
G37*
G36*
X155444813Y-108313624D02*
G01*
X155608785Y-108381544D01*
X155756355Y-108480147D01*
X155881854Y-108605646D01*
X155980457Y-108753216D01*
X156048377Y-108917188D01*
X156083001Y-109091259D01*
X156083001Y-109268741D01*
X156048377Y-109442812D01*
X155980457Y-109606784D01*
X155881854Y-109754354D01*
X155756355Y-109879853D01*
X155608785Y-109978456D01*
X155444813Y-110046376D01*
X155270742Y-110081000D01*
X155093260Y-110081000D01*
X154919189Y-110046376D01*
X154755217Y-109978456D01*
X154607647Y-109879853D01*
X154482148Y-109754354D01*
X154383545Y-109606784D01*
X154315625Y-109442812D01*
X154281001Y-109268741D01*
X154281001Y-109091259D01*
X154315625Y-108917188D01*
X154383545Y-108753216D01*
X154482148Y-108605646D01*
X154607647Y-108480147D01*
X154755217Y-108381544D01*
X154919189Y-108313624D01*
X155093260Y-108279000D01*
X155270742Y-108279000D01*
X155444813Y-108313624D01*
X155444813Y-108313624D01*
G37*
G36*
X163444813Y-108313624D02*
G01*
X163608785Y-108381544D01*
X163756355Y-108480147D01*
X163881854Y-108605646D01*
X163980457Y-108753216D01*
X164048377Y-108917188D01*
X164083001Y-109091259D01*
X164083001Y-109268741D01*
X164048377Y-109442812D01*
X163980457Y-109606784D01*
X163881854Y-109754354D01*
X163756355Y-109879853D01*
X163608785Y-109978456D01*
X163444813Y-110046376D01*
X163270742Y-110081000D01*
X163093260Y-110081000D01*
X162919189Y-110046376D01*
X162755217Y-109978456D01*
X162607647Y-109879853D01*
X162482148Y-109754354D01*
X162383545Y-109606784D01*
X162315625Y-109442812D01*
X162281001Y-109268741D01*
X162281001Y-109091259D01*
X162315625Y-108917188D01*
X162383545Y-108753216D01*
X162482148Y-108605646D01*
X162607647Y-108480147D01*
X162755217Y-108381544D01*
X162919189Y-108313624D01*
X163093260Y-108279000D01*
X163270742Y-108279000D01*
X163444813Y-108313624D01*
X163444813Y-108313624D01*
G37*
G36*
X159444813Y-108313624D02*
G01*
X159608785Y-108381544D01*
X159756355Y-108480147D01*
X159881854Y-108605646D01*
X159980457Y-108753216D01*
X160048377Y-108917188D01*
X160083001Y-109091259D01*
X160083001Y-109268741D01*
X160048377Y-109442812D01*
X159980457Y-109606784D01*
X159881854Y-109754354D01*
X159756355Y-109879853D01*
X159608785Y-109978456D01*
X159444813Y-110046376D01*
X159270742Y-110081000D01*
X159093260Y-110081000D01*
X158919189Y-110046376D01*
X158755217Y-109978456D01*
X158607647Y-109879853D01*
X158482148Y-109754354D01*
X158383545Y-109606784D01*
X158315625Y-109442812D01*
X158281001Y-109268741D01*
X158281001Y-109091259D01*
X158315625Y-108917188D01*
X158383545Y-108753216D01*
X158482148Y-108605646D01*
X158607647Y-108480147D01*
X158755217Y-108381544D01*
X158919189Y-108313624D01*
X159093260Y-108279000D01*
X159270742Y-108279000D01*
X159444813Y-108313624D01*
X159444813Y-108313624D01*
G37*
G36*
X163444813Y-105813624D02*
G01*
X163608785Y-105881544D01*
X163756355Y-105980147D01*
X163881854Y-106105646D01*
X163980457Y-106253216D01*
X164048377Y-106417188D01*
X164083001Y-106591259D01*
X164083001Y-106768741D01*
X164048377Y-106942812D01*
X163980457Y-107106784D01*
X163881854Y-107254354D01*
X163756355Y-107379853D01*
X163608785Y-107478456D01*
X163444813Y-107546376D01*
X163270742Y-107581000D01*
X163093260Y-107581000D01*
X162919189Y-107546376D01*
X162755217Y-107478456D01*
X162607647Y-107379853D01*
X162482148Y-107254354D01*
X162383545Y-107106784D01*
X162315625Y-106942812D01*
X162281001Y-106768741D01*
X162281001Y-106591259D01*
X162315625Y-106417188D01*
X162383545Y-106253216D01*
X162482148Y-106105646D01*
X162607647Y-105980147D01*
X162755217Y-105881544D01*
X162919189Y-105813624D01*
X163093260Y-105779000D01*
X163270742Y-105779000D01*
X163444813Y-105813624D01*
X163444813Y-105813624D01*
G37*
G36*
X155444813Y-105813624D02*
G01*
X155608785Y-105881544D01*
X155756355Y-105980147D01*
X155881854Y-106105646D01*
X155980457Y-106253216D01*
X156048377Y-106417188D01*
X156083001Y-106591259D01*
X156083001Y-106768741D01*
X156048377Y-106942812D01*
X155980457Y-107106784D01*
X155881854Y-107254354D01*
X155756355Y-107379853D01*
X155608785Y-107478456D01*
X155444813Y-107546376D01*
X155270742Y-107581000D01*
X155093260Y-107581000D01*
X154919189Y-107546376D01*
X154755217Y-107478456D01*
X154607647Y-107379853D01*
X154482148Y-107254354D01*
X154383545Y-107106784D01*
X154315625Y-106942812D01*
X154281001Y-106768741D01*
X154281001Y-106591259D01*
X154315625Y-106417188D01*
X154383545Y-106253216D01*
X154482148Y-106105646D01*
X154607647Y-105980147D01*
X154755217Y-105881544D01*
X154919189Y-105813624D01*
X155093260Y-105779000D01*
X155270742Y-105779000D01*
X155444813Y-105813624D01*
X155444813Y-105813624D01*
G37*
G36*
X159444813Y-105813624D02*
G01*
X159608785Y-105881544D01*
X159756355Y-105980147D01*
X159881854Y-106105646D01*
X159980457Y-106253216D01*
X160048377Y-106417188D01*
X160083001Y-106591259D01*
X160083001Y-106768741D01*
X160048377Y-106942812D01*
X159980457Y-107106784D01*
X159881854Y-107254354D01*
X159756355Y-107379853D01*
X159608785Y-107478456D01*
X159444813Y-107546376D01*
X159270742Y-107581000D01*
X159093260Y-107581000D01*
X158919189Y-107546376D01*
X158755217Y-107478456D01*
X158607647Y-107379853D01*
X158482148Y-107254354D01*
X158383545Y-107106784D01*
X158315625Y-106942812D01*
X158281001Y-106768741D01*
X158281001Y-106591259D01*
X158315625Y-106417188D01*
X158383545Y-106253216D01*
X158482148Y-106105646D01*
X158607647Y-105980147D01*
X158755217Y-105881544D01*
X158919189Y-105813624D01*
X159093260Y-105779000D01*
X159270742Y-105779000D01*
X159444813Y-105813624D01*
X159444813Y-105813624D01*
G37*
G36*
X153488566Y-103919389D02*
G01*
X153679835Y-103998615D01*
X153851977Y-104113637D01*
X153998364Y-104260024D01*
X154113386Y-104432166D01*
X154192612Y-104623435D01*
X154233001Y-104826484D01*
X154233001Y-105033516D01*
X154192612Y-105236565D01*
X154113386Y-105427834D01*
X153998364Y-105599976D01*
X153851977Y-105746363D01*
X153679835Y-105861385D01*
X153488566Y-105940611D01*
X153285517Y-105981000D01*
X153078485Y-105981000D01*
X152875436Y-105940611D01*
X152684167Y-105861385D01*
X152512025Y-105746363D01*
X152365638Y-105599976D01*
X152250616Y-105427834D01*
X152171390Y-105236565D01*
X152131001Y-105033516D01*
X152131001Y-104826484D01*
X152171390Y-104623435D01*
X152250616Y-104432166D01*
X152365638Y-104260024D01*
X152512025Y-104113637D01*
X152684167Y-103998615D01*
X152875436Y-103919389D01*
X153078485Y-103879000D01*
X153285517Y-103879000D01*
X153488566Y-103919389D01*
X153488566Y-103919389D01*
G37*
G36*
X165488566Y-103919389D02*
G01*
X165679835Y-103998615D01*
X165851977Y-104113637D01*
X165998364Y-104260024D01*
X166113386Y-104432166D01*
X166192612Y-104623435D01*
X166233001Y-104826484D01*
X166233001Y-105033516D01*
X166192612Y-105236565D01*
X166113386Y-105427834D01*
X165998364Y-105599976D01*
X165851977Y-105746363D01*
X165679835Y-105861385D01*
X165488566Y-105940611D01*
X165285517Y-105981000D01*
X165078485Y-105981000D01*
X164875436Y-105940611D01*
X164684167Y-105861385D01*
X164512025Y-105746363D01*
X164365638Y-105599976D01*
X164250616Y-105427834D01*
X164171390Y-105236565D01*
X164131001Y-105033516D01*
X164131001Y-104826484D01*
X164171390Y-104623435D01*
X164250616Y-104432166D01*
X164365638Y-104260024D01*
X164512025Y-104113637D01*
X164684167Y-103998615D01*
X164875436Y-103919389D01*
X165078485Y-103879000D01*
X165285517Y-103879000D01*
X165488566Y-103919389D01*
X165488566Y-103919389D01*
G37*
G36*
X139395229Y-102510042D02*
G01*
X139550101Y-102574192D01*
X139689482Y-102667324D01*
X139808016Y-102785858D01*
X139901148Y-102925239D01*
X139965298Y-103080111D01*
X139998001Y-103244523D01*
X139998001Y-103412155D01*
X139965298Y-103576567D01*
X139901148Y-103731439D01*
X139808016Y-103870820D01*
X139689482Y-103989354D01*
X139550101Y-104082486D01*
X139395229Y-104146636D01*
X139230817Y-104179339D01*
X139063185Y-104179339D01*
X138898773Y-104146636D01*
X138743901Y-104082486D01*
X138604520Y-103989354D01*
X138485986Y-103870820D01*
X138392854Y-103731439D01*
X138328704Y-103576567D01*
X138296001Y-103412155D01*
X138296001Y-103244523D01*
X138328704Y-103080111D01*
X138392854Y-102925239D01*
X138485986Y-102785858D01*
X138604520Y-102667324D01*
X138743901Y-102574192D01*
X138898773Y-102510042D01*
X139063185Y-102477339D01*
X139230817Y-102477339D01*
X139395229Y-102510042D01*
X139395229Y-102510042D01*
G37*
G36*
X130235229Y-102510042D02*
G01*
X130390101Y-102574192D01*
X130529482Y-102667324D01*
X130648016Y-102785858D01*
X130741148Y-102925239D01*
X130805298Y-103080111D01*
X130838001Y-103244523D01*
X130838001Y-103412155D01*
X130805298Y-103576567D01*
X130741148Y-103731439D01*
X130648016Y-103870820D01*
X130529482Y-103989354D01*
X130390101Y-104082486D01*
X130235229Y-104146636D01*
X130070817Y-104179339D01*
X129903185Y-104179339D01*
X129738773Y-104146636D01*
X129583901Y-104082486D01*
X129444520Y-103989354D01*
X129325986Y-103870820D01*
X129232854Y-103731439D01*
X129168704Y-103576567D01*
X129136001Y-103412155D01*
X129136001Y-103244523D01*
X129168704Y-103080111D01*
X129232854Y-102925239D01*
X129325986Y-102785858D01*
X129444520Y-102667324D01*
X129583901Y-102574192D01*
X129738773Y-102510042D01*
X129903185Y-102477339D01*
X130070817Y-102477339D01*
X130235229Y-102510042D01*
X130235229Y-102510042D01*
G37*
G36*
X132525229Y-102510042D02*
G01*
X132680101Y-102574192D01*
X132819482Y-102667324D01*
X132938016Y-102785858D01*
X133031148Y-102925239D01*
X133095298Y-103080111D01*
X133128001Y-103244523D01*
X133128001Y-103412155D01*
X133095298Y-103576567D01*
X133031148Y-103731439D01*
X132938016Y-103870820D01*
X132819482Y-103989354D01*
X132680101Y-104082486D01*
X132525229Y-104146636D01*
X132360817Y-104179339D01*
X132193185Y-104179339D01*
X132028773Y-104146636D01*
X131873901Y-104082486D01*
X131734520Y-103989354D01*
X131615986Y-103870820D01*
X131522854Y-103731439D01*
X131458704Y-103576567D01*
X131426001Y-103412155D01*
X131426001Y-103244523D01*
X131458704Y-103080111D01*
X131522854Y-102925239D01*
X131615986Y-102785858D01*
X131734520Y-102667324D01*
X131873901Y-102574192D01*
X132028773Y-102510042D01*
X132193185Y-102477339D01*
X132360817Y-102477339D01*
X132525229Y-102510042D01*
X132525229Y-102510042D01*
G37*
G36*
X134815229Y-102510042D02*
G01*
X134970101Y-102574192D01*
X135109482Y-102667324D01*
X135228016Y-102785858D01*
X135321148Y-102925239D01*
X135385298Y-103080111D01*
X135418001Y-103244523D01*
X135418001Y-103412155D01*
X135385298Y-103576567D01*
X135321148Y-103731439D01*
X135228016Y-103870820D01*
X135109482Y-103989354D01*
X134970101Y-104082486D01*
X134815229Y-104146636D01*
X134650817Y-104179339D01*
X134483185Y-104179339D01*
X134318773Y-104146636D01*
X134163901Y-104082486D01*
X134024520Y-103989354D01*
X133905986Y-103870820D01*
X133812854Y-103731439D01*
X133748704Y-103576567D01*
X133716001Y-103412155D01*
X133716001Y-103244523D01*
X133748704Y-103080111D01*
X133812854Y-102925239D01*
X133905986Y-102785858D01*
X134024520Y-102667324D01*
X134163901Y-102574192D01*
X134318773Y-102510042D01*
X134483185Y-102477339D01*
X134650817Y-102477339D01*
X134815229Y-102510042D01*
X134815229Y-102510042D01*
G37*
G36*
X137105229Y-102510042D02*
G01*
X137260101Y-102574192D01*
X137399482Y-102667324D01*
X137518016Y-102785858D01*
X137611148Y-102925239D01*
X137675298Y-103080111D01*
X137708001Y-103244523D01*
X137708001Y-103412155D01*
X137675298Y-103576567D01*
X137611148Y-103731439D01*
X137518016Y-103870820D01*
X137399482Y-103989354D01*
X137260101Y-104082486D01*
X137105229Y-104146636D01*
X136940817Y-104179339D01*
X136773185Y-104179339D01*
X136608773Y-104146636D01*
X136453901Y-104082486D01*
X136314520Y-103989354D01*
X136195986Y-103870820D01*
X136102854Y-103731439D01*
X136038704Y-103576567D01*
X136006001Y-103412155D01*
X136006001Y-103244523D01*
X136038704Y-103080111D01*
X136102854Y-102925239D01*
X136195986Y-102785858D01*
X136314520Y-102667324D01*
X136453901Y-102574192D01*
X136608773Y-102510042D01*
X136773185Y-102477339D01*
X136940817Y-102477339D01*
X137105229Y-102510042D01*
X137105229Y-102510042D01*
G37*
G36*
X147930253Y-98816157D02*
G01*
X147930255Y-98816158D01*
X147930256Y-98816158D01*
X148303514Y-98970766D01*
X148303515Y-98970767D01*
X148639440Y-99195225D01*
X148925115Y-99480900D01*
X148925117Y-99480903D01*
X149149574Y-99816826D01*
X149276182Y-100122486D01*
X149304183Y-100190087D01*
X149383001Y-100586332D01*
X149383001Y-100990346D01*
X149328464Y-101264523D01*
X149304182Y-101386594D01*
X149149574Y-101759852D01*
X149149573Y-101759853D01*
X148925115Y-102095778D01*
X148639440Y-102381453D01*
X148639437Y-102381455D01*
X148303514Y-102605912D01*
X147930256Y-102760520D01*
X147930255Y-102760520D01*
X147930253Y-102760521D01*
X147534008Y-102839339D01*
X147129994Y-102839339D01*
X146733749Y-102760521D01*
X146733747Y-102760520D01*
X146733746Y-102760520D01*
X146360488Y-102605912D01*
X146024565Y-102381455D01*
X146024562Y-102381453D01*
X145738887Y-102095778D01*
X145514429Y-101759853D01*
X145514428Y-101759852D01*
X145359820Y-101386594D01*
X145335539Y-101264523D01*
X145281001Y-100990346D01*
X145281001Y-100586332D01*
X145359819Y-100190087D01*
X145387820Y-100122486D01*
X145514428Y-99816826D01*
X145738885Y-99480903D01*
X145738887Y-99480900D01*
X146024562Y-99195225D01*
X146360487Y-98970767D01*
X146360488Y-98970766D01*
X146733746Y-98816158D01*
X146733747Y-98816158D01*
X146733749Y-98816157D01*
X147129994Y-98737339D01*
X147534008Y-98737339D01*
X147930253Y-98816157D01*
X147930253Y-98816157D01*
G37*
G36*
X122930253Y-98816157D02*
G01*
X122930255Y-98816158D01*
X122930256Y-98816158D01*
X123303514Y-98970766D01*
X123303515Y-98970767D01*
X123639440Y-99195225D01*
X123925115Y-99480900D01*
X123925117Y-99480903D01*
X124149574Y-99816826D01*
X124276182Y-100122486D01*
X124304183Y-100190087D01*
X124383001Y-100586332D01*
X124383001Y-100990346D01*
X124328464Y-101264523D01*
X124304182Y-101386594D01*
X124149574Y-101759852D01*
X124149573Y-101759853D01*
X123925115Y-102095778D01*
X123639440Y-102381453D01*
X123639437Y-102381455D01*
X123303514Y-102605912D01*
X122930256Y-102760520D01*
X122930255Y-102760520D01*
X122930253Y-102760521D01*
X122534008Y-102839339D01*
X122129994Y-102839339D01*
X121733749Y-102760521D01*
X121733747Y-102760520D01*
X121733746Y-102760520D01*
X121360488Y-102605912D01*
X121024565Y-102381455D01*
X121024562Y-102381453D01*
X120738887Y-102095778D01*
X120514429Y-101759853D01*
X120514428Y-101759852D01*
X120359820Y-101386594D01*
X120335539Y-101264523D01*
X120281001Y-100990346D01*
X120281001Y-100586332D01*
X120359819Y-100190087D01*
X120387820Y-100122486D01*
X120514428Y-99816826D01*
X120738885Y-99480903D01*
X120738887Y-99480900D01*
X121024562Y-99195225D01*
X121360487Y-98970767D01*
X121360488Y-98970766D01*
X121733746Y-98816158D01*
X121733747Y-98816158D01*
X121733749Y-98816157D01*
X122129994Y-98737339D01*
X122534008Y-98737339D01*
X122930253Y-98816157D01*
X122930253Y-98816157D01*
G37*
G36*
X138250229Y-100530042D02*
G01*
X138405101Y-100594192D01*
X138544482Y-100687324D01*
X138663016Y-100805858D01*
X138756148Y-100945239D01*
X138820298Y-101100111D01*
X138853001Y-101264523D01*
X138853001Y-101432155D01*
X138820298Y-101596567D01*
X138756148Y-101751439D01*
X138663016Y-101890820D01*
X138544482Y-102009354D01*
X138405101Y-102102486D01*
X138250229Y-102166636D01*
X138085817Y-102199339D01*
X137918185Y-102199339D01*
X137753773Y-102166636D01*
X137598901Y-102102486D01*
X137459520Y-102009354D01*
X137340986Y-101890820D01*
X137247854Y-101751439D01*
X137183704Y-101596567D01*
X137151001Y-101432155D01*
X137151001Y-101264523D01*
X137183704Y-101100111D01*
X137247854Y-100945239D01*
X137340986Y-100805858D01*
X137459520Y-100687324D01*
X137598901Y-100594192D01*
X137753773Y-100530042D01*
X137918185Y-100497339D01*
X138085817Y-100497339D01*
X138250229Y-100530042D01*
X138250229Y-100530042D01*
G37*
G36*
X135960229Y-100530042D02*
G01*
X136115101Y-100594192D01*
X136254482Y-100687324D01*
X136373016Y-100805858D01*
X136466148Y-100945239D01*
X136530298Y-101100111D01*
X136563001Y-101264523D01*
X136563001Y-101432155D01*
X136530298Y-101596567D01*
X136466148Y-101751439D01*
X136373016Y-101890820D01*
X136254482Y-102009354D01*
X136115101Y-102102486D01*
X135960229Y-102166636D01*
X135795817Y-102199339D01*
X135628185Y-102199339D01*
X135463773Y-102166636D01*
X135308901Y-102102486D01*
X135169520Y-102009354D01*
X135050986Y-101890820D01*
X134957854Y-101751439D01*
X134893704Y-101596567D01*
X134861001Y-101432155D01*
X134861001Y-101264523D01*
X134893704Y-101100111D01*
X134957854Y-100945239D01*
X135050986Y-100805858D01*
X135169520Y-100687324D01*
X135308901Y-100594192D01*
X135463773Y-100530042D01*
X135628185Y-100497339D01*
X135795817Y-100497339D01*
X135960229Y-100530042D01*
X135960229Y-100530042D01*
G37*
G36*
X133670229Y-100530042D02*
G01*
X133825101Y-100594192D01*
X133964482Y-100687324D01*
X134083016Y-100805858D01*
X134176148Y-100945239D01*
X134240298Y-101100111D01*
X134273001Y-101264523D01*
X134273001Y-101432155D01*
X134240298Y-101596567D01*
X134176148Y-101751439D01*
X134083016Y-101890820D01*
X133964482Y-102009354D01*
X133825101Y-102102486D01*
X133670229Y-102166636D01*
X133505817Y-102199339D01*
X133338185Y-102199339D01*
X133173773Y-102166636D01*
X133018901Y-102102486D01*
X132879520Y-102009354D01*
X132760986Y-101890820D01*
X132667854Y-101751439D01*
X132603704Y-101596567D01*
X132571001Y-101432155D01*
X132571001Y-101264523D01*
X132603704Y-101100111D01*
X132667854Y-100945239D01*
X132760986Y-100805858D01*
X132879520Y-100687324D01*
X133018901Y-100594192D01*
X133173773Y-100530042D01*
X133338185Y-100497339D01*
X133505817Y-100497339D01*
X133670229Y-100530042D01*
X133670229Y-100530042D01*
G37*
G36*
X140540229Y-100530042D02*
G01*
X140695101Y-100594192D01*
X140834482Y-100687324D01*
X140953016Y-100805858D01*
X141046148Y-100945239D01*
X141110298Y-101100111D01*
X141143001Y-101264523D01*
X141143001Y-101432155D01*
X141110298Y-101596567D01*
X141046148Y-101751439D01*
X140953016Y-101890820D01*
X140834482Y-102009354D01*
X140695101Y-102102486D01*
X140540229Y-102166636D01*
X140375817Y-102199339D01*
X140208185Y-102199339D01*
X140043773Y-102166636D01*
X139888901Y-102102486D01*
X139749520Y-102009354D01*
X139630986Y-101890820D01*
X139537854Y-101751439D01*
X139473704Y-101596567D01*
X139441001Y-101432155D01*
X139441001Y-101264523D01*
X139473704Y-101100111D01*
X139537854Y-100945239D01*
X139630986Y-100805858D01*
X139749520Y-100687324D01*
X139888901Y-100594192D01*
X140043773Y-100530042D01*
X140208185Y-100497339D01*
X140375817Y-100497339D01*
X140540229Y-100530042D01*
X140540229Y-100530042D01*
G37*
G36*
X131380229Y-100530042D02*
G01*
X131535101Y-100594192D01*
X131674482Y-100687324D01*
X131793016Y-100805858D01*
X131886148Y-100945239D01*
X131950298Y-101100111D01*
X131983001Y-101264523D01*
X131983001Y-101432155D01*
X131950298Y-101596567D01*
X131886148Y-101751439D01*
X131793016Y-101890820D01*
X131674482Y-102009354D01*
X131535101Y-102102486D01*
X131380229Y-102166636D01*
X131215817Y-102199339D01*
X131048185Y-102199339D01*
X130883773Y-102166636D01*
X130728901Y-102102486D01*
X130589520Y-102009354D01*
X130470986Y-101890820D01*
X130377854Y-101751439D01*
X130313704Y-101596567D01*
X130281001Y-101432155D01*
X130281001Y-101264523D01*
X130313704Y-101100111D01*
X130377854Y-100945239D01*
X130470986Y-100805858D01*
X130589520Y-100687324D01*
X130728901Y-100594192D01*
X130883773Y-100530042D01*
X131048185Y-100497339D01*
X131215817Y-100497339D01*
X131380229Y-100530042D01*
X131380229Y-100530042D01*
G37*
G36*
X139998001Y-100219339D02*
G01*
X138296001Y-100219339D01*
X138296001Y-98517339D01*
X139998001Y-98517339D01*
X139998001Y-100219339D01*
X139998001Y-100219339D01*
G37*
G36*
X130235229Y-98550042D02*
G01*
X130390101Y-98614192D01*
X130529482Y-98707324D01*
X130648016Y-98825858D01*
X130741148Y-98965239D01*
X130805298Y-99120111D01*
X130838001Y-99284523D01*
X130838001Y-99452155D01*
X130805298Y-99616567D01*
X130741148Y-99771439D01*
X130648016Y-99910820D01*
X130529482Y-100029354D01*
X130390101Y-100122486D01*
X130235229Y-100186636D01*
X130070817Y-100219339D01*
X129903185Y-100219339D01*
X129738773Y-100186636D01*
X129583901Y-100122486D01*
X129444520Y-100029354D01*
X129325986Y-99910820D01*
X129232854Y-99771439D01*
X129168704Y-99616567D01*
X129136001Y-99452155D01*
X129136001Y-99284523D01*
X129168704Y-99120111D01*
X129232854Y-98965239D01*
X129325986Y-98825858D01*
X129444520Y-98707324D01*
X129583901Y-98614192D01*
X129738773Y-98550042D01*
X129903185Y-98517339D01*
X130070817Y-98517339D01*
X130235229Y-98550042D01*
X130235229Y-98550042D01*
G37*
G36*
X132525229Y-98550042D02*
G01*
X132680101Y-98614192D01*
X132819482Y-98707324D01*
X132938016Y-98825858D01*
X133031148Y-98965239D01*
X133095298Y-99120111D01*
X133128001Y-99284523D01*
X133128001Y-99452155D01*
X133095298Y-99616567D01*
X133031148Y-99771439D01*
X132938016Y-99910820D01*
X132819482Y-100029354D01*
X132680101Y-100122486D01*
X132525229Y-100186636D01*
X132360817Y-100219339D01*
X132193185Y-100219339D01*
X132028773Y-100186636D01*
X131873901Y-100122486D01*
X131734520Y-100029354D01*
X131615986Y-99910820D01*
X131522854Y-99771439D01*
X131458704Y-99616567D01*
X131426001Y-99452155D01*
X131426001Y-99284523D01*
X131458704Y-99120111D01*
X131522854Y-98965239D01*
X131615986Y-98825858D01*
X131734520Y-98707324D01*
X131873901Y-98614192D01*
X132028773Y-98550042D01*
X132193185Y-98517339D01*
X132360817Y-98517339D01*
X132525229Y-98550042D01*
X132525229Y-98550042D01*
G37*
G36*
X137105229Y-98550042D02*
G01*
X137260101Y-98614192D01*
X137399482Y-98707324D01*
X137518016Y-98825858D01*
X137611148Y-98965239D01*
X137675298Y-99120111D01*
X137708001Y-99284523D01*
X137708001Y-99452155D01*
X137675298Y-99616567D01*
X137611148Y-99771439D01*
X137518016Y-99910820D01*
X137399482Y-100029354D01*
X137260101Y-100122486D01*
X137105229Y-100186636D01*
X136940817Y-100219339D01*
X136773185Y-100219339D01*
X136608773Y-100186636D01*
X136453901Y-100122486D01*
X136314520Y-100029354D01*
X136195986Y-99910820D01*
X136102854Y-99771439D01*
X136038704Y-99616567D01*
X136006001Y-99452155D01*
X136006001Y-99284523D01*
X136038704Y-99120111D01*
X136102854Y-98965239D01*
X136195986Y-98825858D01*
X136314520Y-98707324D01*
X136453901Y-98614192D01*
X136608773Y-98550042D01*
X136773185Y-98517339D01*
X136940817Y-98517339D01*
X137105229Y-98550042D01*
X137105229Y-98550042D01*
G37*
G36*
X134815229Y-98550042D02*
G01*
X134970101Y-98614192D01*
X135109482Y-98707324D01*
X135228016Y-98825858D01*
X135321148Y-98965239D01*
X135385298Y-99120111D01*
X135418001Y-99284523D01*
X135418001Y-99452155D01*
X135385298Y-99616567D01*
X135321148Y-99771439D01*
X135228016Y-99910820D01*
X135109482Y-100029354D01*
X134970101Y-100122486D01*
X134815229Y-100186636D01*
X134650817Y-100219339D01*
X134483185Y-100219339D01*
X134318773Y-100186636D01*
X134163901Y-100122486D01*
X134024520Y-100029354D01*
X133905986Y-99910820D01*
X133812854Y-99771439D01*
X133748704Y-99616567D01*
X133716001Y-99452155D01*
X133716001Y-99284523D01*
X133748704Y-99120111D01*
X133812854Y-98965239D01*
X133905986Y-98825858D01*
X134024520Y-98707324D01*
X134163901Y-98614192D01*
X134318773Y-98550042D01*
X134483185Y-98517339D01*
X134650817Y-98517339D01*
X134815229Y-98550042D01*
X134815229Y-98550042D01*
G37*
G36*
X171634239Y-83811467D02*
G01*
X171948282Y-83873934D01*
X172539926Y-84119001D01*
X173068802Y-84472385D01*
X173072395Y-84474786D01*
X173525214Y-84927605D01*
X173525216Y-84927608D01*
X173880999Y-85460074D01*
X174126066Y-86051718D01*
X174251000Y-86679804D01*
X174251000Y-87320196D01*
X174126066Y-87948282D01*
X173880999Y-88539926D01*
X173527615Y-89068802D01*
X173525214Y-89072395D01*
X173072395Y-89525214D01*
X173072392Y-89525216D01*
X172539926Y-89880999D01*
X171948282Y-90126066D01*
X171634239Y-90188533D01*
X171320197Y-90251000D01*
X170679803Y-90251000D01*
X170365761Y-90188533D01*
X170051718Y-90126066D01*
X169460074Y-89880999D01*
X168927608Y-89525216D01*
X168927605Y-89525214D01*
X168474786Y-89072395D01*
X168472385Y-89068802D01*
X168119001Y-88539926D01*
X167873934Y-87948282D01*
X167749000Y-87320196D01*
X167749000Y-86679804D01*
X167873934Y-86051718D01*
X168119001Y-85460074D01*
X168474784Y-84927608D01*
X168474786Y-84927605D01*
X168927605Y-84474786D01*
X168931198Y-84472385D01*
X169460074Y-84119001D01*
X170051718Y-83873934D01*
X170365761Y-83811467D01*
X170679803Y-83749000D01*
X171320197Y-83749000D01*
X171634239Y-83811467D01*
X171634239Y-83811467D01*
G37*
G36*
X114634239Y-83811467D02*
G01*
X114948282Y-83873934D01*
X115539926Y-84119001D01*
X116068802Y-84472385D01*
X116072395Y-84474786D01*
X116525214Y-84927605D01*
X116525216Y-84927608D01*
X116880999Y-85460074D01*
X117126066Y-86051718D01*
X117251000Y-86679804D01*
X117251000Y-87320196D01*
X117126066Y-87948282D01*
X116880999Y-88539926D01*
X116527615Y-89068802D01*
X116525214Y-89072395D01*
X116072395Y-89525214D01*
X116072392Y-89525216D01*
X115539926Y-89880999D01*
X114948282Y-90126066D01*
X114634239Y-90188533D01*
X114320197Y-90251000D01*
X113679803Y-90251000D01*
X113365761Y-90188533D01*
X113051718Y-90126066D01*
X112460074Y-89880999D01*
X111927608Y-89525216D01*
X111927605Y-89525214D01*
X111474786Y-89072395D01*
X111472385Y-89068802D01*
X111119001Y-88539926D01*
X110873934Y-87948282D01*
X110749000Y-87320196D01*
X110749000Y-86679804D01*
X110873934Y-86051718D01*
X111119001Y-85460074D01*
X111474784Y-84927608D01*
X111474786Y-84927605D01*
X111927605Y-84474786D01*
X111931198Y-84472385D01*
X112460074Y-84119001D01*
X113051718Y-83873934D01*
X113365761Y-83811467D01*
X113679803Y-83749000D01*
X114320197Y-83749000D01*
X114634239Y-83811467D01*
X114634239Y-83811467D01*
G37*
G36*
X148700442Y-85465518D02*
G01*
X148766627Y-85472037D01*
X148879853Y-85506384D01*
X148936467Y-85523557D01*
X149075087Y-85597652D01*
X149092991Y-85607222D01*
X149128729Y-85636552D01*
X149230186Y-85719814D01*
X149313448Y-85821271D01*
X149342778Y-85857009D01*
X149342779Y-85857011D01*
X149426443Y-86013533D01*
X149426443Y-86013534D01*
X149477963Y-86183373D01*
X149495359Y-86360000D01*
X149477963Y-86536627D01*
X149443616Y-86649853D01*
X149426443Y-86706467D01*
X149352348Y-86845087D01*
X149342778Y-86862991D01*
X149313448Y-86898729D01*
X149230186Y-87000186D01*
X149128729Y-87083448D01*
X149092991Y-87112778D01*
X149092989Y-87112779D01*
X148936467Y-87196443D01*
X148879853Y-87213616D01*
X148766627Y-87247963D01*
X148700442Y-87254482D01*
X148634260Y-87261000D01*
X148545740Y-87261000D01*
X148479558Y-87254482D01*
X148413373Y-87247963D01*
X148300147Y-87213616D01*
X148243533Y-87196443D01*
X148087011Y-87112779D01*
X148087009Y-87112778D01*
X148051271Y-87083448D01*
X147949814Y-87000186D01*
X147866552Y-86898729D01*
X147837222Y-86862991D01*
X147827652Y-86845087D01*
X147753557Y-86706467D01*
X147736384Y-86649853D01*
X147702037Y-86536627D01*
X147684641Y-86360000D01*
X147702037Y-86183373D01*
X147753557Y-86013534D01*
X147753557Y-86013533D01*
X147837221Y-85857011D01*
X147837222Y-85857009D01*
X147866552Y-85821271D01*
X147949814Y-85719814D01*
X148051271Y-85636552D01*
X148087009Y-85607222D01*
X148104913Y-85597652D01*
X148243533Y-85523557D01*
X148300147Y-85506384D01*
X148413373Y-85472037D01*
X148479558Y-85465518D01*
X148545740Y-85459000D01*
X148634260Y-85459000D01*
X148700442Y-85465518D01*
X148700442Y-85465518D01*
G37*
G36*
X159651000Y-87261000D02*
G01*
X157849000Y-87261000D01*
X157849000Y-85459000D01*
X159651000Y-85459000D01*
X159651000Y-87261000D01*
X159651000Y-87261000D01*
G37*
G36*
X161400442Y-85465518D02*
G01*
X161466627Y-85472037D01*
X161579853Y-85506384D01*
X161636467Y-85523557D01*
X161775087Y-85597652D01*
X161792991Y-85607222D01*
X161828729Y-85636552D01*
X161930186Y-85719814D01*
X162013448Y-85821271D01*
X162042778Y-85857009D01*
X162042779Y-85857011D01*
X162126443Y-86013533D01*
X162126443Y-86013534D01*
X162177963Y-86183373D01*
X162195359Y-86360000D01*
X162177963Y-86536627D01*
X162143616Y-86649853D01*
X162126443Y-86706467D01*
X162052348Y-86845087D01*
X162042778Y-86862991D01*
X162013448Y-86898729D01*
X161930186Y-87000186D01*
X161828729Y-87083448D01*
X161792991Y-87112778D01*
X161792989Y-87112779D01*
X161636467Y-87196443D01*
X161579853Y-87213616D01*
X161466627Y-87247963D01*
X161400442Y-87254482D01*
X161334260Y-87261000D01*
X161245740Y-87261000D01*
X161179558Y-87254482D01*
X161113373Y-87247963D01*
X161000147Y-87213616D01*
X160943533Y-87196443D01*
X160787011Y-87112779D01*
X160787009Y-87112778D01*
X160751271Y-87083448D01*
X160649814Y-87000186D01*
X160566552Y-86898729D01*
X160537222Y-86862991D01*
X160527652Y-86845087D01*
X160453557Y-86706467D01*
X160436384Y-86649853D01*
X160402037Y-86536627D01*
X160384641Y-86360000D01*
X160402037Y-86183373D01*
X160453557Y-86013534D01*
X160453557Y-86013533D01*
X160537221Y-85857011D01*
X160537222Y-85857009D01*
X160566552Y-85821271D01*
X160649814Y-85719814D01*
X160751271Y-85636552D01*
X160787009Y-85607222D01*
X160804913Y-85597652D01*
X160943533Y-85523557D01*
X161000147Y-85506384D01*
X161113373Y-85472037D01*
X161179558Y-85465518D01*
X161245740Y-85459000D01*
X161334260Y-85459000D01*
X161400442Y-85465518D01*
X161400442Y-85465518D01*
G37*
G36*
X121950442Y-85465518D02*
G01*
X122016627Y-85472037D01*
X122129853Y-85506384D01*
X122186467Y-85523557D01*
X122325087Y-85597652D01*
X122342991Y-85607222D01*
X122378729Y-85636552D01*
X122480186Y-85719814D01*
X122563448Y-85821271D01*
X122592778Y-85857009D01*
X122592779Y-85857011D01*
X122676443Y-86013533D01*
X122676443Y-86013534D01*
X122727963Y-86183373D01*
X122745359Y-86360000D01*
X122727963Y-86536627D01*
X122693616Y-86649853D01*
X122676443Y-86706467D01*
X122602348Y-86845087D01*
X122592778Y-86862991D01*
X122563448Y-86898729D01*
X122480186Y-87000186D01*
X122378729Y-87083448D01*
X122342991Y-87112778D01*
X122342989Y-87112779D01*
X122186467Y-87196443D01*
X122129853Y-87213616D01*
X122016627Y-87247963D01*
X121950442Y-87254482D01*
X121884260Y-87261000D01*
X121795740Y-87261000D01*
X121729558Y-87254482D01*
X121663373Y-87247963D01*
X121550147Y-87213616D01*
X121493533Y-87196443D01*
X121337011Y-87112779D01*
X121337009Y-87112778D01*
X121301271Y-87083448D01*
X121199814Y-87000186D01*
X121116552Y-86898729D01*
X121087222Y-86862991D01*
X121077652Y-86845087D01*
X121003557Y-86706467D01*
X120986384Y-86649853D01*
X120952037Y-86536627D01*
X120934641Y-86360000D01*
X120952037Y-86183373D01*
X121003557Y-86013534D01*
X121003557Y-86013533D01*
X121087221Y-85857011D01*
X121087222Y-85857009D01*
X121116552Y-85821271D01*
X121199814Y-85719814D01*
X121301271Y-85636552D01*
X121337009Y-85607222D01*
X121354913Y-85597652D01*
X121493533Y-85523557D01*
X121550147Y-85506384D01*
X121663373Y-85472037D01*
X121729558Y-85465518D01*
X121795740Y-85459000D01*
X121884260Y-85459000D01*
X121950442Y-85465518D01*
X121950442Y-85465518D01*
G37*
G36*
X124490442Y-85465518D02*
G01*
X124556627Y-85472037D01*
X124669853Y-85506384D01*
X124726467Y-85523557D01*
X124865087Y-85597652D01*
X124882991Y-85607222D01*
X124918729Y-85636552D01*
X125020186Y-85719814D01*
X125103448Y-85821271D01*
X125132778Y-85857009D01*
X125132779Y-85857011D01*
X125216443Y-86013533D01*
X125216443Y-86013534D01*
X125267963Y-86183373D01*
X125285359Y-86360000D01*
X125267963Y-86536627D01*
X125233616Y-86649853D01*
X125216443Y-86706467D01*
X125142348Y-86845087D01*
X125132778Y-86862991D01*
X125103448Y-86898729D01*
X125020186Y-87000186D01*
X124918729Y-87083448D01*
X124882991Y-87112778D01*
X124882989Y-87112779D01*
X124726467Y-87196443D01*
X124669853Y-87213616D01*
X124556627Y-87247963D01*
X124490442Y-87254482D01*
X124424260Y-87261000D01*
X124335740Y-87261000D01*
X124269558Y-87254482D01*
X124203373Y-87247963D01*
X124090147Y-87213616D01*
X124033533Y-87196443D01*
X123877011Y-87112779D01*
X123877009Y-87112778D01*
X123841271Y-87083448D01*
X123739814Y-87000186D01*
X123656552Y-86898729D01*
X123627222Y-86862991D01*
X123617652Y-86845087D01*
X123543557Y-86706467D01*
X123526384Y-86649853D01*
X123492037Y-86536627D01*
X123474641Y-86360000D01*
X123492037Y-86183373D01*
X123543557Y-86013534D01*
X123543557Y-86013533D01*
X123627221Y-85857011D01*
X123627222Y-85857009D01*
X123656552Y-85821271D01*
X123739814Y-85719814D01*
X123841271Y-85636552D01*
X123877009Y-85607222D01*
X123894913Y-85597652D01*
X124033533Y-85523557D01*
X124090147Y-85506384D01*
X124203373Y-85472037D01*
X124269558Y-85465518D01*
X124335740Y-85459000D01*
X124424260Y-85459000D01*
X124490442Y-85465518D01*
X124490442Y-85465518D01*
G37*
G36*
X129570442Y-85465518D02*
G01*
X129636627Y-85472037D01*
X129749853Y-85506384D01*
X129806467Y-85523557D01*
X129945087Y-85597652D01*
X129962991Y-85607222D01*
X129998729Y-85636552D01*
X130100186Y-85719814D01*
X130183448Y-85821271D01*
X130212778Y-85857009D01*
X130212779Y-85857011D01*
X130296443Y-86013533D01*
X130296443Y-86013534D01*
X130347963Y-86183373D01*
X130365359Y-86360000D01*
X130347963Y-86536627D01*
X130313616Y-86649853D01*
X130296443Y-86706467D01*
X130222348Y-86845087D01*
X130212778Y-86862991D01*
X130183448Y-86898729D01*
X130100186Y-87000186D01*
X129998729Y-87083448D01*
X129962991Y-87112778D01*
X129962989Y-87112779D01*
X129806467Y-87196443D01*
X129749853Y-87213616D01*
X129636627Y-87247963D01*
X129570442Y-87254482D01*
X129504260Y-87261000D01*
X129415740Y-87261000D01*
X129349558Y-87254482D01*
X129283373Y-87247963D01*
X129170147Y-87213616D01*
X129113533Y-87196443D01*
X128957011Y-87112779D01*
X128957009Y-87112778D01*
X128921271Y-87083448D01*
X128819814Y-87000186D01*
X128736552Y-86898729D01*
X128707222Y-86862991D01*
X128697652Y-86845087D01*
X128623557Y-86706467D01*
X128606384Y-86649853D01*
X128572037Y-86536627D01*
X128554641Y-86360000D01*
X128572037Y-86183373D01*
X128623557Y-86013534D01*
X128623557Y-86013533D01*
X128707221Y-85857011D01*
X128707222Y-85857009D01*
X128736552Y-85821271D01*
X128819814Y-85719814D01*
X128921271Y-85636552D01*
X128957009Y-85607222D01*
X128974913Y-85597652D01*
X129113533Y-85523557D01*
X129170147Y-85506384D01*
X129283373Y-85472037D01*
X129349558Y-85465518D01*
X129415740Y-85459000D01*
X129504260Y-85459000D01*
X129570442Y-85465518D01*
X129570442Y-85465518D01*
G37*
G36*
X132901000Y-87261000D02*
G01*
X131099000Y-87261000D01*
X131099000Y-85459000D01*
X132901000Y-85459000D01*
X132901000Y-87261000D01*
X132901000Y-87261000D01*
G37*
G36*
X146160442Y-85465518D02*
G01*
X146226627Y-85472037D01*
X146339853Y-85506384D01*
X146396467Y-85523557D01*
X146535087Y-85597652D01*
X146552991Y-85607222D01*
X146588729Y-85636552D01*
X146690186Y-85719814D01*
X146773448Y-85821271D01*
X146802778Y-85857009D01*
X146802779Y-85857011D01*
X146886443Y-86013533D01*
X146886443Y-86013534D01*
X146937963Y-86183373D01*
X146955359Y-86360000D01*
X146937963Y-86536627D01*
X146903616Y-86649853D01*
X146886443Y-86706467D01*
X146812348Y-86845087D01*
X146802778Y-86862991D01*
X146773448Y-86898729D01*
X146690186Y-87000186D01*
X146588729Y-87083448D01*
X146552991Y-87112778D01*
X146552989Y-87112779D01*
X146396467Y-87196443D01*
X146339853Y-87213616D01*
X146226627Y-87247963D01*
X146160442Y-87254482D01*
X146094260Y-87261000D01*
X146005740Y-87261000D01*
X145939558Y-87254482D01*
X145873373Y-87247963D01*
X145760147Y-87213616D01*
X145703533Y-87196443D01*
X145547011Y-87112779D01*
X145547009Y-87112778D01*
X145511271Y-87083448D01*
X145409814Y-87000186D01*
X145326552Y-86898729D01*
X145297222Y-86862991D01*
X145287652Y-86845087D01*
X145213557Y-86706467D01*
X145196384Y-86649853D01*
X145162037Y-86536627D01*
X145144641Y-86360000D01*
X145162037Y-86183373D01*
X145213557Y-86013534D01*
X145213557Y-86013533D01*
X145297221Y-85857011D01*
X145297222Y-85857009D01*
X145326552Y-85821271D01*
X145409814Y-85719814D01*
X145511271Y-85636552D01*
X145547009Y-85607222D01*
X145564913Y-85597652D01*
X145703533Y-85523557D01*
X145760147Y-85506384D01*
X145873373Y-85472037D01*
X145939558Y-85465518D01*
X146005740Y-85459000D01*
X146094260Y-85459000D01*
X146160442Y-85465518D01*
X146160442Y-85465518D01*
G37*
G36*
X151240442Y-85465518D02*
G01*
X151306627Y-85472037D01*
X151419853Y-85506384D01*
X151476467Y-85523557D01*
X151615087Y-85597652D01*
X151632991Y-85607222D01*
X151668729Y-85636552D01*
X151770186Y-85719814D01*
X151853448Y-85821271D01*
X151882778Y-85857009D01*
X151882779Y-85857011D01*
X151966443Y-86013533D01*
X151966443Y-86013534D01*
X152017963Y-86183373D01*
X152035359Y-86360000D01*
X152017963Y-86536627D01*
X151983616Y-86649853D01*
X151966443Y-86706467D01*
X151892348Y-86845087D01*
X151882778Y-86862991D01*
X151853448Y-86898729D01*
X151770186Y-87000186D01*
X151668729Y-87083448D01*
X151632991Y-87112778D01*
X151632989Y-87112779D01*
X151476467Y-87196443D01*
X151419853Y-87213616D01*
X151306627Y-87247963D01*
X151240442Y-87254482D01*
X151174260Y-87261000D01*
X151085740Y-87261000D01*
X151019558Y-87254482D01*
X150953373Y-87247963D01*
X150840147Y-87213616D01*
X150783533Y-87196443D01*
X150627011Y-87112779D01*
X150627009Y-87112778D01*
X150591271Y-87083448D01*
X150489814Y-87000186D01*
X150406552Y-86898729D01*
X150377222Y-86862991D01*
X150367652Y-86845087D01*
X150293557Y-86706467D01*
X150276384Y-86649853D01*
X150242037Y-86536627D01*
X150224641Y-86360000D01*
X150242037Y-86183373D01*
X150293557Y-86013534D01*
X150293557Y-86013533D01*
X150377221Y-85857011D01*
X150377222Y-85857009D01*
X150406552Y-85821271D01*
X150489814Y-85719814D01*
X150591271Y-85636552D01*
X150627009Y-85607222D01*
X150644913Y-85597652D01*
X150783533Y-85523557D01*
X150840147Y-85506384D01*
X150953373Y-85472037D01*
X151019558Y-85465518D01*
X151085740Y-85459000D01*
X151174260Y-85459000D01*
X151240442Y-85465518D01*
X151240442Y-85465518D01*
G37*
G36*
X143620442Y-85465518D02*
G01*
X143686627Y-85472037D01*
X143799853Y-85506384D01*
X143856467Y-85523557D01*
X143995087Y-85597652D01*
X144012991Y-85607222D01*
X144048729Y-85636552D01*
X144150186Y-85719814D01*
X144233448Y-85821271D01*
X144262778Y-85857009D01*
X144262779Y-85857011D01*
X144346443Y-86013533D01*
X144346443Y-86013534D01*
X144397963Y-86183373D01*
X144415359Y-86360000D01*
X144397963Y-86536627D01*
X144363616Y-86649853D01*
X144346443Y-86706467D01*
X144272348Y-86845087D01*
X144262778Y-86862991D01*
X144233448Y-86898729D01*
X144150186Y-87000186D01*
X144048729Y-87083448D01*
X144012991Y-87112778D01*
X144012989Y-87112779D01*
X143856467Y-87196443D01*
X143799853Y-87213616D01*
X143686627Y-87247963D01*
X143620442Y-87254482D01*
X143554260Y-87261000D01*
X143465740Y-87261000D01*
X143399558Y-87254482D01*
X143333373Y-87247963D01*
X143220147Y-87213616D01*
X143163533Y-87196443D01*
X143007011Y-87112779D01*
X143007009Y-87112778D01*
X142971271Y-87083448D01*
X142869814Y-87000186D01*
X142786552Y-86898729D01*
X142757222Y-86862991D01*
X142747652Y-86845087D01*
X142673557Y-86706467D01*
X142656384Y-86649853D01*
X142622037Y-86536627D01*
X142604641Y-86360000D01*
X142622037Y-86183373D01*
X142673557Y-86013534D01*
X142673557Y-86013533D01*
X142757221Y-85857011D01*
X142757222Y-85857009D01*
X142786552Y-85821271D01*
X142869814Y-85719814D01*
X142971271Y-85636552D01*
X143007009Y-85607222D01*
X143024913Y-85597652D01*
X143163533Y-85523557D01*
X143220147Y-85506384D01*
X143333373Y-85472037D01*
X143399558Y-85465518D01*
X143465740Y-85459000D01*
X143554260Y-85459000D01*
X143620442Y-85465518D01*
X143620442Y-85465518D01*
G37*
G36*
X141871000Y-87261000D02*
G01*
X140069000Y-87261000D01*
X140069000Y-85459000D01*
X141871000Y-85459000D01*
X141871000Y-87261000D01*
X141871000Y-87261000D01*
G37*
G36*
X127030442Y-85465518D02*
G01*
X127096627Y-85472037D01*
X127209853Y-85506384D01*
X127266467Y-85523557D01*
X127405087Y-85597652D01*
X127422991Y-85607222D01*
X127458729Y-85636552D01*
X127560186Y-85719814D01*
X127643448Y-85821271D01*
X127672778Y-85857009D01*
X127672779Y-85857011D01*
X127756443Y-86013533D01*
X127756443Y-86013534D01*
X127807963Y-86183373D01*
X127825359Y-86360000D01*
X127807963Y-86536627D01*
X127773616Y-86649853D01*
X127756443Y-86706467D01*
X127682348Y-86845087D01*
X127672778Y-86862991D01*
X127643448Y-86898729D01*
X127560186Y-87000186D01*
X127458729Y-87083448D01*
X127422991Y-87112778D01*
X127422989Y-87112779D01*
X127266467Y-87196443D01*
X127209853Y-87213616D01*
X127096627Y-87247963D01*
X127030442Y-87254482D01*
X126964260Y-87261000D01*
X126875740Y-87261000D01*
X126809558Y-87254482D01*
X126743373Y-87247963D01*
X126630147Y-87213616D01*
X126573533Y-87196443D01*
X126417011Y-87112779D01*
X126417009Y-87112778D01*
X126381271Y-87083448D01*
X126279814Y-87000186D01*
X126196552Y-86898729D01*
X126167222Y-86862991D01*
X126157652Y-86845087D01*
X126083557Y-86706467D01*
X126066384Y-86649853D01*
X126032037Y-86536627D01*
X126014641Y-86360000D01*
X126032037Y-86183373D01*
X126083557Y-86013534D01*
X126083557Y-86013533D01*
X126167221Y-85857011D01*
X126167222Y-85857009D01*
X126196552Y-85821271D01*
X126279814Y-85719814D01*
X126381271Y-85636552D01*
X126417009Y-85607222D01*
X126434913Y-85597652D01*
X126573533Y-85523557D01*
X126630147Y-85506384D01*
X126743373Y-85472037D01*
X126809558Y-85465518D01*
X126875740Y-85459000D01*
X126964260Y-85459000D01*
X127030442Y-85465518D01*
X127030442Y-85465518D01*
G37*
M02*
