M48
; DRILL file {KiCad 6.0.0-rc1-unknown-r14633-2e907bfa} date Sun 23 Dec 2018 04:51:28 PM PST
; FORMAT={-:-/ absolute / inch / decimal}
; #@! TF.CreationDate,2018-12-23T16:51:28-08:00
; #@! TF.GenerationSoftware,Kicad,Pcbnew,6.0.0-rc1-unknown-r14633-2e907bfa
; #@! TF.FileFunction,Plated,1,2,PTH
FMAT,2
INCH
T1C0.0157
T2C0.0354
T3C0.0394
T4C0.0472
T5C0.1260
%
G90
G05
T1
X5.1969Y-3.6614
X5.3543Y-3.622
X5.3543Y-3.7205
X5.3599Y-3.5292
X5.8071Y-3.5236
X5.9154Y-3.5609
X5.9168Y-3.6002
X5.9252Y-3.7008
X5.9352Y-3.635
X6.063Y-4.0354
X6.2205Y-3.6417
X6.4173Y-3.6024
T2
X6.1095Y-4.2
X6.1095Y-4.2984
X6.267Y-4.2
X6.267Y-4.2984
X6.4245Y-4.2
X6.4245Y-4.2984
T3
X6.25Y-3.4
X6.35Y-3.4
X5.1176Y-3.9121
X5.1176Y-4.068
X5.1627Y-3.9901
X5.2078Y-3.9121
X5.2078Y-4.068
X5.2528Y-3.9901
X5.2979Y-3.9121
X5.2979Y-4.068
X5.343Y-3.9901
X5.3881Y-3.9121
X5.3881Y-4.068
X5.4331Y-3.9901
X5.4782Y-3.9121
X5.4782Y-4.068
X5.5233Y-3.9901
X4.7969Y-3.4
X4.8969Y-3.4
X4.9969Y-3.4
X5.0969Y-3.4
X5.1969Y-3.4
X5.55Y-3.4
X5.65Y-3.4
X5.75Y-3.4
X5.85Y-3.4
X5.95Y-3.4
T4
X6.0308Y-4.1311
X6.0308Y-4.3673
X6.5032Y-4.1311
X6.5032Y-4.3673
T5
X6.7323Y-3.4252
X4.4882Y-3.4252
X4.8162Y-3.968
X5.8005Y-3.968
X6.7323Y-4.252
X4.4882Y-4.252
T0
M30
