G04 #@! TF.GenerationSoftware,KiCad,Pcbnew,6.0.0-rc1-unknown-r14633-2e907bfa*
G04 #@! TF.CreationDate,2018-12-23T16:51:31-08:00
G04 #@! TF.ProjectId,td-rgb,74642d72-6762-42e6-9b69-6361645f7063,rev?*
G04 #@! TF.SameCoordinates,Original*
G04 #@! TF.FileFunction,Copper,L1,Top*
G04 #@! TF.FilePolarity,Positive*
%FSLAX46Y46*%
G04 Gerber Fmt 4.6, Leading zero omitted, Abs format (unit mm)*
G04 Created by KiCad (PCBNEW 6.0.0-rc1-unknown-r14633-2e907bfa) date Sun 23 Dec 2018 04:51:31 PM PST*
%MOMM*%
%LPD*%
G04 APERTURE LIST*
%ADD10C,6.400000*%
%ADD11R,1.960000X0.410000*%
%ADD12O,1.700000X1.700000*%
%ADD13R,1.700000X1.700000*%
%ADD14R,1.060000X0.650000*%
%ADD15C,0.100000*%
%ADD16C,1.150000*%
%ADD17C,1.700000*%
%ADD18C,2.000000*%
%ADD19C,4.000000*%
%ADD20C,1.600000*%
%ADD21R,1.600000X1.600000*%
%ADD22C,0.800000*%
%ADD23C,0.250000*%
%ADD24C,0.254000*%
G04 APERTURE END LIST*
D10*
X171000000Y-87000000D03*
X114000000Y-87000000D03*
X171000000Y-108000000D03*
D11*
X152335000Y-94932500D03*
X152335000Y-94297500D03*
X152335000Y-93662500D03*
X152335000Y-93027500D03*
X152335000Y-92392500D03*
X152335000Y-91757500D03*
X152335000Y-91122500D03*
X152335000Y-90487500D03*
X147385000Y-90487500D03*
X147385000Y-91122500D03*
X147385000Y-91757500D03*
X147385000Y-92392500D03*
X147385000Y-93027500D03*
X147385000Y-93662500D03*
X147385000Y-94297500D03*
X147385000Y-94932500D03*
D12*
X161290000Y-86360000D03*
D13*
X158750000Y-86360000D03*
D14*
X159380000Y-94554999D03*
X159380000Y-95504999D03*
X159380000Y-96454999D03*
X161580000Y-96454999D03*
X161580000Y-94554999D03*
X161580000Y-95504999D03*
D15*
G36*
X161899505Y-98301204D02*
G01*
X161923773Y-98304804D01*
X161947572Y-98310765D01*
X161970671Y-98319030D01*
X161992850Y-98329520D01*
X162013893Y-98342132D01*
X162033599Y-98356747D01*
X162051777Y-98373223D01*
X162068253Y-98391401D01*
X162082868Y-98411107D01*
X162095480Y-98432150D01*
X162105970Y-98454329D01*
X162114235Y-98477428D01*
X162120196Y-98501227D01*
X162123796Y-98525495D01*
X162125000Y-98549999D01*
X162125000Y-99450001D01*
X162123796Y-99474505D01*
X162120196Y-99498773D01*
X162114235Y-99522572D01*
X162105970Y-99545671D01*
X162095480Y-99567850D01*
X162082868Y-99588893D01*
X162068253Y-99608599D01*
X162051777Y-99626777D01*
X162033599Y-99643253D01*
X162013893Y-99657868D01*
X161992850Y-99670480D01*
X161970671Y-99680970D01*
X161947572Y-99689235D01*
X161923773Y-99695196D01*
X161899505Y-99698796D01*
X161875001Y-99700000D01*
X161224999Y-99700000D01*
X161200495Y-99698796D01*
X161176227Y-99695196D01*
X161152428Y-99689235D01*
X161129329Y-99680970D01*
X161107150Y-99670480D01*
X161086107Y-99657868D01*
X161066401Y-99643253D01*
X161048223Y-99626777D01*
X161031747Y-99608599D01*
X161017132Y-99588893D01*
X161004520Y-99567850D01*
X160994030Y-99545671D01*
X160985765Y-99522572D01*
X160979804Y-99498773D01*
X160976204Y-99474505D01*
X160975000Y-99450001D01*
X160975000Y-98549999D01*
X160976204Y-98525495D01*
X160979804Y-98501227D01*
X160985765Y-98477428D01*
X160994030Y-98454329D01*
X161004520Y-98432150D01*
X161017132Y-98411107D01*
X161031747Y-98391401D01*
X161048223Y-98373223D01*
X161066401Y-98356747D01*
X161086107Y-98342132D01*
X161107150Y-98329520D01*
X161129329Y-98319030D01*
X161152428Y-98310765D01*
X161176227Y-98304804D01*
X161200495Y-98301204D01*
X161224999Y-98300000D01*
X161875001Y-98300000D01*
X161899505Y-98301204D01*
X161899505Y-98301204D01*
G37*
D16*
X161550000Y-99000000D03*
D15*
G36*
X159849505Y-98301204D02*
G01*
X159873773Y-98304804D01*
X159897572Y-98310765D01*
X159920671Y-98319030D01*
X159942850Y-98329520D01*
X159963893Y-98342132D01*
X159983599Y-98356747D01*
X160001777Y-98373223D01*
X160018253Y-98391401D01*
X160032868Y-98411107D01*
X160045480Y-98432150D01*
X160055970Y-98454329D01*
X160064235Y-98477428D01*
X160070196Y-98501227D01*
X160073796Y-98525495D01*
X160075000Y-98549999D01*
X160075000Y-99450001D01*
X160073796Y-99474505D01*
X160070196Y-99498773D01*
X160064235Y-99522572D01*
X160055970Y-99545671D01*
X160045480Y-99567850D01*
X160032868Y-99588893D01*
X160018253Y-99608599D01*
X160001777Y-99626777D01*
X159983599Y-99643253D01*
X159963893Y-99657868D01*
X159942850Y-99670480D01*
X159920671Y-99680970D01*
X159897572Y-99689235D01*
X159873773Y-99695196D01*
X159849505Y-99698796D01*
X159825001Y-99700000D01*
X159174999Y-99700000D01*
X159150495Y-99698796D01*
X159126227Y-99695196D01*
X159102428Y-99689235D01*
X159079329Y-99680970D01*
X159057150Y-99670480D01*
X159036107Y-99657868D01*
X159016401Y-99643253D01*
X158998223Y-99626777D01*
X158981747Y-99608599D01*
X158967132Y-99588893D01*
X158954520Y-99567850D01*
X158944030Y-99545671D01*
X158935765Y-99522572D01*
X158929804Y-99498773D01*
X158926204Y-99474505D01*
X158925000Y-99450001D01*
X158925000Y-98549999D01*
X158926204Y-98525495D01*
X158929804Y-98501227D01*
X158935765Y-98477428D01*
X158944030Y-98454329D01*
X158954520Y-98432150D01*
X158967132Y-98411107D01*
X158981747Y-98391401D01*
X158998223Y-98373223D01*
X159016401Y-98356747D01*
X159036107Y-98342132D01*
X159057150Y-98329520D01*
X159079329Y-98319030D01*
X159102428Y-98310765D01*
X159126227Y-98304804D01*
X159150495Y-98301204D01*
X159174999Y-98300000D01*
X159825001Y-98300000D01*
X159849505Y-98301204D01*
X159849505Y-98301204D01*
G37*
D16*
X159500000Y-99000000D03*
D15*
G36*
X159804505Y-90701204D02*
G01*
X159828773Y-90704804D01*
X159852572Y-90710765D01*
X159875671Y-90719030D01*
X159897850Y-90729520D01*
X159918893Y-90742132D01*
X159938599Y-90756747D01*
X159956777Y-90773223D01*
X159973253Y-90791401D01*
X159987868Y-90811107D01*
X160000480Y-90832150D01*
X160010970Y-90854329D01*
X160019235Y-90877428D01*
X160025196Y-90901227D01*
X160028796Y-90925495D01*
X160030000Y-90949999D01*
X160030000Y-91850001D01*
X160028796Y-91874505D01*
X160025196Y-91898773D01*
X160019235Y-91922572D01*
X160010970Y-91945671D01*
X160000480Y-91967850D01*
X159987868Y-91988893D01*
X159973253Y-92008599D01*
X159956777Y-92026777D01*
X159938599Y-92043253D01*
X159918893Y-92057868D01*
X159897850Y-92070480D01*
X159875671Y-92080970D01*
X159852572Y-92089235D01*
X159828773Y-92095196D01*
X159804505Y-92098796D01*
X159780001Y-92100000D01*
X159129999Y-92100000D01*
X159105495Y-92098796D01*
X159081227Y-92095196D01*
X159057428Y-92089235D01*
X159034329Y-92080970D01*
X159012150Y-92070480D01*
X158991107Y-92057868D01*
X158971401Y-92043253D01*
X158953223Y-92026777D01*
X158936747Y-92008599D01*
X158922132Y-91988893D01*
X158909520Y-91967850D01*
X158899030Y-91945671D01*
X158890765Y-91922572D01*
X158884804Y-91898773D01*
X158881204Y-91874505D01*
X158880000Y-91850001D01*
X158880000Y-90949999D01*
X158881204Y-90925495D01*
X158884804Y-90901227D01*
X158890765Y-90877428D01*
X158899030Y-90854329D01*
X158909520Y-90832150D01*
X158922132Y-90811107D01*
X158936747Y-90791401D01*
X158953223Y-90773223D01*
X158971401Y-90756747D01*
X158991107Y-90742132D01*
X159012150Y-90729520D01*
X159034329Y-90719030D01*
X159057428Y-90710765D01*
X159081227Y-90704804D01*
X159105495Y-90701204D01*
X159129999Y-90700000D01*
X159780001Y-90700000D01*
X159804505Y-90701204D01*
X159804505Y-90701204D01*
G37*
D16*
X159455000Y-91400000D03*
D15*
G36*
X161854505Y-90701204D02*
G01*
X161878773Y-90704804D01*
X161902572Y-90710765D01*
X161925671Y-90719030D01*
X161947850Y-90729520D01*
X161968893Y-90742132D01*
X161988599Y-90756747D01*
X162006777Y-90773223D01*
X162023253Y-90791401D01*
X162037868Y-90811107D01*
X162050480Y-90832150D01*
X162060970Y-90854329D01*
X162069235Y-90877428D01*
X162075196Y-90901227D01*
X162078796Y-90925495D01*
X162080000Y-90949999D01*
X162080000Y-91850001D01*
X162078796Y-91874505D01*
X162075196Y-91898773D01*
X162069235Y-91922572D01*
X162060970Y-91945671D01*
X162050480Y-91967850D01*
X162037868Y-91988893D01*
X162023253Y-92008599D01*
X162006777Y-92026777D01*
X161988599Y-92043253D01*
X161968893Y-92057868D01*
X161947850Y-92070480D01*
X161925671Y-92080970D01*
X161902572Y-92089235D01*
X161878773Y-92095196D01*
X161854505Y-92098796D01*
X161830001Y-92100000D01*
X161179999Y-92100000D01*
X161155495Y-92098796D01*
X161131227Y-92095196D01*
X161107428Y-92089235D01*
X161084329Y-92080970D01*
X161062150Y-92070480D01*
X161041107Y-92057868D01*
X161021401Y-92043253D01*
X161003223Y-92026777D01*
X160986747Y-92008599D01*
X160972132Y-91988893D01*
X160959520Y-91967850D01*
X160949030Y-91945671D01*
X160940765Y-91922572D01*
X160934804Y-91898773D01*
X160931204Y-91874505D01*
X160930000Y-91850001D01*
X160930000Y-90949999D01*
X160931204Y-90925495D01*
X160934804Y-90901227D01*
X160940765Y-90877428D01*
X160949030Y-90854329D01*
X160959520Y-90832150D01*
X160972132Y-90811107D01*
X160986747Y-90791401D01*
X161003223Y-90773223D01*
X161021401Y-90756747D01*
X161041107Y-90742132D01*
X161062150Y-90729520D01*
X161084329Y-90719030D01*
X161107428Y-90710765D01*
X161131227Y-90704804D01*
X161155495Y-90701204D01*
X161179999Y-90700000D01*
X161830001Y-90700000D01*
X161854505Y-90701204D01*
X161854505Y-90701204D01*
G37*
D16*
X161505000Y-91400000D03*
D15*
G36*
X164404504Y-95926204D02*
G01*
X164428772Y-95929804D01*
X164452571Y-95935765D01*
X164475670Y-95944030D01*
X164497849Y-95954520D01*
X164518892Y-95967132D01*
X164538598Y-95981747D01*
X164556776Y-95998223D01*
X164573252Y-96016401D01*
X164587867Y-96036107D01*
X164600479Y-96057150D01*
X164610969Y-96079329D01*
X164619234Y-96102428D01*
X164625195Y-96126227D01*
X164628795Y-96150495D01*
X164629999Y-96174999D01*
X164629999Y-96825001D01*
X164628795Y-96849505D01*
X164625195Y-96873773D01*
X164619234Y-96897572D01*
X164610969Y-96920671D01*
X164600479Y-96942850D01*
X164587867Y-96963893D01*
X164573252Y-96983599D01*
X164556776Y-97001777D01*
X164538598Y-97018253D01*
X164518892Y-97032868D01*
X164497849Y-97045480D01*
X164475670Y-97055970D01*
X164452571Y-97064235D01*
X164428772Y-97070196D01*
X164404504Y-97073796D01*
X164380000Y-97075000D01*
X163479998Y-97075000D01*
X163455494Y-97073796D01*
X163431226Y-97070196D01*
X163407427Y-97064235D01*
X163384328Y-97055970D01*
X163362149Y-97045480D01*
X163341106Y-97032868D01*
X163321400Y-97018253D01*
X163303222Y-97001777D01*
X163286746Y-96983599D01*
X163272131Y-96963893D01*
X163259519Y-96942850D01*
X163249029Y-96920671D01*
X163240764Y-96897572D01*
X163234803Y-96873773D01*
X163231203Y-96849505D01*
X163229999Y-96825001D01*
X163229999Y-96174999D01*
X163231203Y-96150495D01*
X163234803Y-96126227D01*
X163240764Y-96102428D01*
X163249029Y-96079329D01*
X163259519Y-96057150D01*
X163272131Y-96036107D01*
X163286746Y-96016401D01*
X163303222Y-95998223D01*
X163321400Y-95981747D01*
X163341106Y-95967132D01*
X163362149Y-95954520D01*
X163384328Y-95944030D01*
X163407427Y-95935765D01*
X163431226Y-95929804D01*
X163455494Y-95926204D01*
X163479998Y-95925000D01*
X164380000Y-95925000D01*
X164404504Y-95926204D01*
X164404504Y-95926204D01*
G37*
D16*
X163929999Y-96500000D03*
D15*
G36*
X164404504Y-93876204D02*
G01*
X164428772Y-93879804D01*
X164452571Y-93885765D01*
X164475670Y-93894030D01*
X164497849Y-93904520D01*
X164518892Y-93917132D01*
X164538598Y-93931747D01*
X164556776Y-93948223D01*
X164573252Y-93966401D01*
X164587867Y-93986107D01*
X164600479Y-94007150D01*
X164610969Y-94029329D01*
X164619234Y-94052428D01*
X164625195Y-94076227D01*
X164628795Y-94100495D01*
X164629999Y-94124999D01*
X164629999Y-94775001D01*
X164628795Y-94799505D01*
X164625195Y-94823773D01*
X164619234Y-94847572D01*
X164610969Y-94870671D01*
X164600479Y-94892850D01*
X164587867Y-94913893D01*
X164573252Y-94933599D01*
X164556776Y-94951777D01*
X164538598Y-94968253D01*
X164518892Y-94982868D01*
X164497849Y-94995480D01*
X164475670Y-95005970D01*
X164452571Y-95014235D01*
X164428772Y-95020196D01*
X164404504Y-95023796D01*
X164380000Y-95025000D01*
X163479998Y-95025000D01*
X163455494Y-95023796D01*
X163431226Y-95020196D01*
X163407427Y-95014235D01*
X163384328Y-95005970D01*
X163362149Y-94995480D01*
X163341106Y-94982868D01*
X163321400Y-94968253D01*
X163303222Y-94951777D01*
X163286746Y-94933599D01*
X163272131Y-94913893D01*
X163259519Y-94892850D01*
X163249029Y-94870671D01*
X163240764Y-94847572D01*
X163234803Y-94823773D01*
X163231203Y-94799505D01*
X163229999Y-94775001D01*
X163229999Y-94124999D01*
X163231203Y-94100495D01*
X163234803Y-94076227D01*
X163240764Y-94052428D01*
X163249029Y-94029329D01*
X163259519Y-94007150D01*
X163272131Y-93986107D01*
X163286746Y-93966401D01*
X163303222Y-93948223D01*
X163321400Y-93931747D01*
X163341106Y-93917132D01*
X163362149Y-93904520D01*
X163384328Y-93894030D01*
X163407427Y-93885765D01*
X163431226Y-93879804D01*
X163455494Y-93876204D01*
X163479998Y-93875000D01*
X164380000Y-93875000D01*
X164404504Y-93876204D01*
X164404504Y-93876204D01*
G37*
D16*
X163929999Y-94450000D03*
D17*
X163182001Y-109180000D03*
X159182001Y-109180000D03*
X155182001Y-109180000D03*
X163182001Y-106680000D03*
X159182001Y-106680000D03*
X155182001Y-106680000D03*
D18*
X153182001Y-110930000D03*
X165182001Y-110930000D03*
X165182001Y-104930000D03*
X153182001Y-104930000D03*
D15*
G36*
X137845381Y-88941906D02*
G01*
X137869649Y-88945506D01*
X137893448Y-88951467D01*
X137916547Y-88959732D01*
X137938726Y-88970222D01*
X137959769Y-88982834D01*
X137979475Y-88997449D01*
X137997653Y-89013925D01*
X138014129Y-89032103D01*
X138028744Y-89051809D01*
X138041356Y-89072852D01*
X138051846Y-89095031D01*
X138060111Y-89118130D01*
X138066072Y-89141929D01*
X138069672Y-89166197D01*
X138070876Y-89190701D01*
X138070876Y-90090703D01*
X138069672Y-90115207D01*
X138066072Y-90139475D01*
X138060111Y-90163274D01*
X138051846Y-90186373D01*
X138041356Y-90208552D01*
X138028744Y-90229595D01*
X138014129Y-90249301D01*
X137997653Y-90267479D01*
X137979475Y-90283955D01*
X137959769Y-90298570D01*
X137938726Y-90311182D01*
X137916547Y-90321672D01*
X137893448Y-90329937D01*
X137869649Y-90335898D01*
X137845381Y-90339498D01*
X137820877Y-90340702D01*
X137170875Y-90340702D01*
X137146371Y-90339498D01*
X137122103Y-90335898D01*
X137098304Y-90329937D01*
X137075205Y-90321672D01*
X137053026Y-90311182D01*
X137031983Y-90298570D01*
X137012277Y-90283955D01*
X136994099Y-90267479D01*
X136977623Y-90249301D01*
X136963008Y-90229595D01*
X136950396Y-90208552D01*
X136939906Y-90186373D01*
X136931641Y-90163274D01*
X136925680Y-90139475D01*
X136922080Y-90115207D01*
X136920876Y-90090703D01*
X136920876Y-89190701D01*
X136922080Y-89166197D01*
X136925680Y-89141929D01*
X136931641Y-89118130D01*
X136939906Y-89095031D01*
X136950396Y-89072852D01*
X136963008Y-89051809D01*
X136977623Y-89032103D01*
X136994099Y-89013925D01*
X137012277Y-88997449D01*
X137031983Y-88982834D01*
X137053026Y-88970222D01*
X137075205Y-88959732D01*
X137098304Y-88951467D01*
X137122103Y-88945506D01*
X137146371Y-88941906D01*
X137170875Y-88940702D01*
X137820877Y-88940702D01*
X137845381Y-88941906D01*
X137845381Y-88941906D01*
G37*
D16*
X137495876Y-89640702D03*
D15*
G36*
X139895381Y-88941906D02*
G01*
X139919649Y-88945506D01*
X139943448Y-88951467D01*
X139966547Y-88959732D01*
X139988726Y-88970222D01*
X140009769Y-88982834D01*
X140029475Y-88997449D01*
X140047653Y-89013925D01*
X140064129Y-89032103D01*
X140078744Y-89051809D01*
X140091356Y-89072852D01*
X140101846Y-89095031D01*
X140110111Y-89118130D01*
X140116072Y-89141929D01*
X140119672Y-89166197D01*
X140120876Y-89190701D01*
X140120876Y-90090703D01*
X140119672Y-90115207D01*
X140116072Y-90139475D01*
X140110111Y-90163274D01*
X140101846Y-90186373D01*
X140091356Y-90208552D01*
X140078744Y-90229595D01*
X140064129Y-90249301D01*
X140047653Y-90267479D01*
X140029475Y-90283955D01*
X140009769Y-90298570D01*
X139988726Y-90311182D01*
X139966547Y-90321672D01*
X139943448Y-90329937D01*
X139919649Y-90335898D01*
X139895381Y-90339498D01*
X139870877Y-90340702D01*
X139220875Y-90340702D01*
X139196371Y-90339498D01*
X139172103Y-90335898D01*
X139148304Y-90329937D01*
X139125205Y-90321672D01*
X139103026Y-90311182D01*
X139081983Y-90298570D01*
X139062277Y-90283955D01*
X139044099Y-90267479D01*
X139027623Y-90249301D01*
X139013008Y-90229595D01*
X139000396Y-90208552D01*
X138989906Y-90186373D01*
X138981641Y-90163274D01*
X138975680Y-90139475D01*
X138972080Y-90115207D01*
X138970876Y-90090703D01*
X138970876Y-89190701D01*
X138972080Y-89166197D01*
X138975680Y-89141929D01*
X138981641Y-89118130D01*
X138989906Y-89095031D01*
X139000396Y-89072852D01*
X139013008Y-89051809D01*
X139027623Y-89032103D01*
X139044099Y-89013925D01*
X139062277Y-88997449D01*
X139081983Y-88982834D01*
X139103026Y-88970222D01*
X139125205Y-88959732D01*
X139148304Y-88951467D01*
X139172103Y-88945506D01*
X139196371Y-88941906D01*
X139220875Y-88940702D01*
X139870877Y-88940702D01*
X139895381Y-88941906D01*
X139895381Y-88941906D01*
G37*
D16*
X139545876Y-89640702D03*
D15*
G36*
X137845381Y-91481906D02*
G01*
X137869649Y-91485506D01*
X137893448Y-91491467D01*
X137916547Y-91499732D01*
X137938726Y-91510222D01*
X137959769Y-91522834D01*
X137979475Y-91537449D01*
X137997653Y-91553925D01*
X138014129Y-91572103D01*
X138028744Y-91591809D01*
X138041356Y-91612852D01*
X138051846Y-91635031D01*
X138060111Y-91658130D01*
X138066072Y-91681929D01*
X138069672Y-91706197D01*
X138070876Y-91730701D01*
X138070876Y-92630703D01*
X138069672Y-92655207D01*
X138066072Y-92679475D01*
X138060111Y-92703274D01*
X138051846Y-92726373D01*
X138041356Y-92748552D01*
X138028744Y-92769595D01*
X138014129Y-92789301D01*
X137997653Y-92807479D01*
X137979475Y-92823955D01*
X137959769Y-92838570D01*
X137938726Y-92851182D01*
X137916547Y-92861672D01*
X137893448Y-92869937D01*
X137869649Y-92875898D01*
X137845381Y-92879498D01*
X137820877Y-92880702D01*
X137170875Y-92880702D01*
X137146371Y-92879498D01*
X137122103Y-92875898D01*
X137098304Y-92869937D01*
X137075205Y-92861672D01*
X137053026Y-92851182D01*
X137031983Y-92838570D01*
X137012277Y-92823955D01*
X136994099Y-92807479D01*
X136977623Y-92789301D01*
X136963008Y-92769595D01*
X136950396Y-92748552D01*
X136939906Y-92726373D01*
X136931641Y-92703274D01*
X136925680Y-92679475D01*
X136922080Y-92655207D01*
X136920876Y-92630703D01*
X136920876Y-91730701D01*
X136922080Y-91706197D01*
X136925680Y-91681929D01*
X136931641Y-91658130D01*
X136939906Y-91635031D01*
X136950396Y-91612852D01*
X136963008Y-91591809D01*
X136977623Y-91572103D01*
X136994099Y-91553925D01*
X137012277Y-91537449D01*
X137031983Y-91522834D01*
X137053026Y-91510222D01*
X137075205Y-91499732D01*
X137098304Y-91491467D01*
X137122103Y-91485506D01*
X137146371Y-91481906D01*
X137170875Y-91480702D01*
X137820877Y-91480702D01*
X137845381Y-91481906D01*
X137845381Y-91481906D01*
G37*
D16*
X137495876Y-92180702D03*
D15*
G36*
X139895381Y-91481906D02*
G01*
X139919649Y-91485506D01*
X139943448Y-91491467D01*
X139966547Y-91499732D01*
X139988726Y-91510222D01*
X140009769Y-91522834D01*
X140029475Y-91537449D01*
X140047653Y-91553925D01*
X140064129Y-91572103D01*
X140078744Y-91591809D01*
X140091356Y-91612852D01*
X140101846Y-91635031D01*
X140110111Y-91658130D01*
X140116072Y-91681929D01*
X140119672Y-91706197D01*
X140120876Y-91730701D01*
X140120876Y-92630703D01*
X140119672Y-92655207D01*
X140116072Y-92679475D01*
X140110111Y-92703274D01*
X140101846Y-92726373D01*
X140091356Y-92748552D01*
X140078744Y-92769595D01*
X140064129Y-92789301D01*
X140047653Y-92807479D01*
X140029475Y-92823955D01*
X140009769Y-92838570D01*
X139988726Y-92851182D01*
X139966547Y-92861672D01*
X139943448Y-92869937D01*
X139919649Y-92875898D01*
X139895381Y-92879498D01*
X139870877Y-92880702D01*
X139220875Y-92880702D01*
X139196371Y-92879498D01*
X139172103Y-92875898D01*
X139148304Y-92869937D01*
X139125205Y-92861672D01*
X139103026Y-92851182D01*
X139081983Y-92838570D01*
X139062277Y-92823955D01*
X139044099Y-92807479D01*
X139027623Y-92789301D01*
X139013008Y-92769595D01*
X139000396Y-92748552D01*
X138989906Y-92726373D01*
X138981641Y-92703274D01*
X138975680Y-92679475D01*
X138972080Y-92655207D01*
X138970876Y-92630703D01*
X138970876Y-91730701D01*
X138972080Y-91706197D01*
X138975680Y-91681929D01*
X138981641Y-91658130D01*
X138989906Y-91635031D01*
X139000396Y-91612852D01*
X139013008Y-91591809D01*
X139027623Y-91572103D01*
X139044099Y-91553925D01*
X139062277Y-91537449D01*
X139081983Y-91522834D01*
X139103026Y-91510222D01*
X139125205Y-91499732D01*
X139148304Y-91491467D01*
X139172103Y-91485506D01*
X139196371Y-91481906D01*
X139220875Y-91480702D01*
X139870877Y-91480702D01*
X139895381Y-91481906D01*
X139895381Y-91481906D01*
G37*
D16*
X139545876Y-92180702D03*
D15*
G36*
X137845381Y-94021906D02*
G01*
X137869649Y-94025506D01*
X137893448Y-94031467D01*
X137916547Y-94039732D01*
X137938726Y-94050222D01*
X137959769Y-94062834D01*
X137979475Y-94077449D01*
X137997653Y-94093925D01*
X138014129Y-94112103D01*
X138028744Y-94131809D01*
X138041356Y-94152852D01*
X138051846Y-94175031D01*
X138060111Y-94198130D01*
X138066072Y-94221929D01*
X138069672Y-94246197D01*
X138070876Y-94270701D01*
X138070876Y-95170703D01*
X138069672Y-95195207D01*
X138066072Y-95219475D01*
X138060111Y-95243274D01*
X138051846Y-95266373D01*
X138041356Y-95288552D01*
X138028744Y-95309595D01*
X138014129Y-95329301D01*
X137997653Y-95347479D01*
X137979475Y-95363955D01*
X137959769Y-95378570D01*
X137938726Y-95391182D01*
X137916547Y-95401672D01*
X137893448Y-95409937D01*
X137869649Y-95415898D01*
X137845381Y-95419498D01*
X137820877Y-95420702D01*
X137170875Y-95420702D01*
X137146371Y-95419498D01*
X137122103Y-95415898D01*
X137098304Y-95409937D01*
X137075205Y-95401672D01*
X137053026Y-95391182D01*
X137031983Y-95378570D01*
X137012277Y-95363955D01*
X136994099Y-95347479D01*
X136977623Y-95329301D01*
X136963008Y-95309595D01*
X136950396Y-95288552D01*
X136939906Y-95266373D01*
X136931641Y-95243274D01*
X136925680Y-95219475D01*
X136922080Y-95195207D01*
X136920876Y-95170703D01*
X136920876Y-94270701D01*
X136922080Y-94246197D01*
X136925680Y-94221929D01*
X136931641Y-94198130D01*
X136939906Y-94175031D01*
X136950396Y-94152852D01*
X136963008Y-94131809D01*
X136977623Y-94112103D01*
X136994099Y-94093925D01*
X137012277Y-94077449D01*
X137031983Y-94062834D01*
X137053026Y-94050222D01*
X137075205Y-94039732D01*
X137098304Y-94031467D01*
X137122103Y-94025506D01*
X137146371Y-94021906D01*
X137170875Y-94020702D01*
X137820877Y-94020702D01*
X137845381Y-94021906D01*
X137845381Y-94021906D01*
G37*
D16*
X137495876Y-94720702D03*
D15*
G36*
X139895381Y-94021906D02*
G01*
X139919649Y-94025506D01*
X139943448Y-94031467D01*
X139966547Y-94039732D01*
X139988726Y-94050222D01*
X140009769Y-94062834D01*
X140029475Y-94077449D01*
X140047653Y-94093925D01*
X140064129Y-94112103D01*
X140078744Y-94131809D01*
X140091356Y-94152852D01*
X140101846Y-94175031D01*
X140110111Y-94198130D01*
X140116072Y-94221929D01*
X140119672Y-94246197D01*
X140120876Y-94270701D01*
X140120876Y-95170703D01*
X140119672Y-95195207D01*
X140116072Y-95219475D01*
X140110111Y-95243274D01*
X140101846Y-95266373D01*
X140091356Y-95288552D01*
X140078744Y-95309595D01*
X140064129Y-95329301D01*
X140047653Y-95347479D01*
X140029475Y-95363955D01*
X140009769Y-95378570D01*
X139988726Y-95391182D01*
X139966547Y-95401672D01*
X139943448Y-95409937D01*
X139919649Y-95415898D01*
X139895381Y-95419498D01*
X139870877Y-95420702D01*
X139220875Y-95420702D01*
X139196371Y-95419498D01*
X139172103Y-95415898D01*
X139148304Y-95409937D01*
X139125205Y-95401672D01*
X139103026Y-95391182D01*
X139081983Y-95378570D01*
X139062277Y-95363955D01*
X139044099Y-95347479D01*
X139027623Y-95329301D01*
X139013008Y-95309595D01*
X139000396Y-95288552D01*
X138989906Y-95266373D01*
X138981641Y-95243274D01*
X138975680Y-95219475D01*
X138972080Y-95195207D01*
X138970876Y-95170703D01*
X138970876Y-94270701D01*
X138972080Y-94246197D01*
X138975680Y-94221929D01*
X138981641Y-94198130D01*
X138989906Y-94175031D01*
X139000396Y-94152852D01*
X139013008Y-94131809D01*
X139027623Y-94112103D01*
X139044099Y-94093925D01*
X139062277Y-94077449D01*
X139081983Y-94062834D01*
X139103026Y-94050222D01*
X139125205Y-94039732D01*
X139148304Y-94031467D01*
X139172103Y-94025506D01*
X139196371Y-94021906D01*
X139220875Y-94020702D01*
X139870877Y-94020702D01*
X139895381Y-94021906D01*
X139895381Y-94021906D01*
G37*
D16*
X139545876Y-94720702D03*
D15*
G36*
X143705381Y-88941906D02*
G01*
X143729649Y-88945506D01*
X143753448Y-88951467D01*
X143776547Y-88959732D01*
X143798726Y-88970222D01*
X143819769Y-88982834D01*
X143839475Y-88997449D01*
X143857653Y-89013925D01*
X143874129Y-89032103D01*
X143888744Y-89051809D01*
X143901356Y-89072852D01*
X143911846Y-89095031D01*
X143920111Y-89118130D01*
X143926072Y-89141929D01*
X143929672Y-89166197D01*
X143930876Y-89190701D01*
X143930876Y-90090703D01*
X143929672Y-90115207D01*
X143926072Y-90139475D01*
X143920111Y-90163274D01*
X143911846Y-90186373D01*
X143901356Y-90208552D01*
X143888744Y-90229595D01*
X143874129Y-90249301D01*
X143857653Y-90267479D01*
X143839475Y-90283955D01*
X143819769Y-90298570D01*
X143798726Y-90311182D01*
X143776547Y-90321672D01*
X143753448Y-90329937D01*
X143729649Y-90335898D01*
X143705381Y-90339498D01*
X143680877Y-90340702D01*
X143030875Y-90340702D01*
X143006371Y-90339498D01*
X142982103Y-90335898D01*
X142958304Y-90329937D01*
X142935205Y-90321672D01*
X142913026Y-90311182D01*
X142891983Y-90298570D01*
X142872277Y-90283955D01*
X142854099Y-90267479D01*
X142837623Y-90249301D01*
X142823008Y-90229595D01*
X142810396Y-90208552D01*
X142799906Y-90186373D01*
X142791641Y-90163274D01*
X142785680Y-90139475D01*
X142782080Y-90115207D01*
X142780876Y-90090703D01*
X142780876Y-89190701D01*
X142782080Y-89166197D01*
X142785680Y-89141929D01*
X142791641Y-89118130D01*
X142799906Y-89095031D01*
X142810396Y-89072852D01*
X142823008Y-89051809D01*
X142837623Y-89032103D01*
X142854099Y-89013925D01*
X142872277Y-88997449D01*
X142891983Y-88982834D01*
X142913026Y-88970222D01*
X142935205Y-88959732D01*
X142958304Y-88951467D01*
X142982103Y-88945506D01*
X143006371Y-88941906D01*
X143030875Y-88940702D01*
X143680877Y-88940702D01*
X143705381Y-88941906D01*
X143705381Y-88941906D01*
G37*
D16*
X143355876Y-89640702D03*
D15*
G36*
X141655381Y-88941906D02*
G01*
X141679649Y-88945506D01*
X141703448Y-88951467D01*
X141726547Y-88959732D01*
X141748726Y-88970222D01*
X141769769Y-88982834D01*
X141789475Y-88997449D01*
X141807653Y-89013925D01*
X141824129Y-89032103D01*
X141838744Y-89051809D01*
X141851356Y-89072852D01*
X141861846Y-89095031D01*
X141870111Y-89118130D01*
X141876072Y-89141929D01*
X141879672Y-89166197D01*
X141880876Y-89190701D01*
X141880876Y-90090703D01*
X141879672Y-90115207D01*
X141876072Y-90139475D01*
X141870111Y-90163274D01*
X141861846Y-90186373D01*
X141851356Y-90208552D01*
X141838744Y-90229595D01*
X141824129Y-90249301D01*
X141807653Y-90267479D01*
X141789475Y-90283955D01*
X141769769Y-90298570D01*
X141748726Y-90311182D01*
X141726547Y-90321672D01*
X141703448Y-90329937D01*
X141679649Y-90335898D01*
X141655381Y-90339498D01*
X141630877Y-90340702D01*
X140980875Y-90340702D01*
X140956371Y-90339498D01*
X140932103Y-90335898D01*
X140908304Y-90329937D01*
X140885205Y-90321672D01*
X140863026Y-90311182D01*
X140841983Y-90298570D01*
X140822277Y-90283955D01*
X140804099Y-90267479D01*
X140787623Y-90249301D01*
X140773008Y-90229595D01*
X140760396Y-90208552D01*
X140749906Y-90186373D01*
X140741641Y-90163274D01*
X140735680Y-90139475D01*
X140732080Y-90115207D01*
X140730876Y-90090703D01*
X140730876Y-89190701D01*
X140732080Y-89166197D01*
X140735680Y-89141929D01*
X140741641Y-89118130D01*
X140749906Y-89095031D01*
X140760396Y-89072852D01*
X140773008Y-89051809D01*
X140787623Y-89032103D01*
X140804099Y-89013925D01*
X140822277Y-88997449D01*
X140841983Y-88982834D01*
X140863026Y-88970222D01*
X140885205Y-88959732D01*
X140908304Y-88951467D01*
X140932103Y-88945506D01*
X140956371Y-88941906D01*
X140980875Y-88940702D01*
X141630877Y-88940702D01*
X141655381Y-88941906D01*
X141655381Y-88941906D01*
G37*
D16*
X141305876Y-89640702D03*
D15*
G36*
X143705381Y-91481906D02*
G01*
X143729649Y-91485506D01*
X143753448Y-91491467D01*
X143776547Y-91499732D01*
X143798726Y-91510222D01*
X143819769Y-91522834D01*
X143839475Y-91537449D01*
X143857653Y-91553925D01*
X143874129Y-91572103D01*
X143888744Y-91591809D01*
X143901356Y-91612852D01*
X143911846Y-91635031D01*
X143920111Y-91658130D01*
X143926072Y-91681929D01*
X143929672Y-91706197D01*
X143930876Y-91730701D01*
X143930876Y-92630703D01*
X143929672Y-92655207D01*
X143926072Y-92679475D01*
X143920111Y-92703274D01*
X143911846Y-92726373D01*
X143901356Y-92748552D01*
X143888744Y-92769595D01*
X143874129Y-92789301D01*
X143857653Y-92807479D01*
X143839475Y-92823955D01*
X143819769Y-92838570D01*
X143798726Y-92851182D01*
X143776547Y-92861672D01*
X143753448Y-92869937D01*
X143729649Y-92875898D01*
X143705381Y-92879498D01*
X143680877Y-92880702D01*
X143030875Y-92880702D01*
X143006371Y-92879498D01*
X142982103Y-92875898D01*
X142958304Y-92869937D01*
X142935205Y-92861672D01*
X142913026Y-92851182D01*
X142891983Y-92838570D01*
X142872277Y-92823955D01*
X142854099Y-92807479D01*
X142837623Y-92789301D01*
X142823008Y-92769595D01*
X142810396Y-92748552D01*
X142799906Y-92726373D01*
X142791641Y-92703274D01*
X142785680Y-92679475D01*
X142782080Y-92655207D01*
X142780876Y-92630703D01*
X142780876Y-91730701D01*
X142782080Y-91706197D01*
X142785680Y-91681929D01*
X142791641Y-91658130D01*
X142799906Y-91635031D01*
X142810396Y-91612852D01*
X142823008Y-91591809D01*
X142837623Y-91572103D01*
X142854099Y-91553925D01*
X142872277Y-91537449D01*
X142891983Y-91522834D01*
X142913026Y-91510222D01*
X142935205Y-91499732D01*
X142958304Y-91491467D01*
X142982103Y-91485506D01*
X143006371Y-91481906D01*
X143030875Y-91480702D01*
X143680877Y-91480702D01*
X143705381Y-91481906D01*
X143705381Y-91481906D01*
G37*
D16*
X143355876Y-92180702D03*
D15*
G36*
X141655381Y-91481906D02*
G01*
X141679649Y-91485506D01*
X141703448Y-91491467D01*
X141726547Y-91499732D01*
X141748726Y-91510222D01*
X141769769Y-91522834D01*
X141789475Y-91537449D01*
X141807653Y-91553925D01*
X141824129Y-91572103D01*
X141838744Y-91591809D01*
X141851356Y-91612852D01*
X141861846Y-91635031D01*
X141870111Y-91658130D01*
X141876072Y-91681929D01*
X141879672Y-91706197D01*
X141880876Y-91730701D01*
X141880876Y-92630703D01*
X141879672Y-92655207D01*
X141876072Y-92679475D01*
X141870111Y-92703274D01*
X141861846Y-92726373D01*
X141851356Y-92748552D01*
X141838744Y-92769595D01*
X141824129Y-92789301D01*
X141807653Y-92807479D01*
X141789475Y-92823955D01*
X141769769Y-92838570D01*
X141748726Y-92851182D01*
X141726547Y-92861672D01*
X141703448Y-92869937D01*
X141679649Y-92875898D01*
X141655381Y-92879498D01*
X141630877Y-92880702D01*
X140980875Y-92880702D01*
X140956371Y-92879498D01*
X140932103Y-92875898D01*
X140908304Y-92869937D01*
X140885205Y-92861672D01*
X140863026Y-92851182D01*
X140841983Y-92838570D01*
X140822277Y-92823955D01*
X140804099Y-92807479D01*
X140787623Y-92789301D01*
X140773008Y-92769595D01*
X140760396Y-92748552D01*
X140749906Y-92726373D01*
X140741641Y-92703274D01*
X140735680Y-92679475D01*
X140732080Y-92655207D01*
X140730876Y-92630703D01*
X140730876Y-91730701D01*
X140732080Y-91706197D01*
X140735680Y-91681929D01*
X140741641Y-91658130D01*
X140749906Y-91635031D01*
X140760396Y-91612852D01*
X140773008Y-91591809D01*
X140787623Y-91572103D01*
X140804099Y-91553925D01*
X140822277Y-91537449D01*
X140841983Y-91522834D01*
X140863026Y-91510222D01*
X140885205Y-91499732D01*
X140908304Y-91491467D01*
X140932103Y-91485506D01*
X140956371Y-91481906D01*
X140980875Y-91480702D01*
X141630877Y-91480702D01*
X141655381Y-91481906D01*
X141655381Y-91481906D01*
G37*
D16*
X141305876Y-92180702D03*
D15*
G36*
X143705381Y-94021906D02*
G01*
X143729649Y-94025506D01*
X143753448Y-94031467D01*
X143776547Y-94039732D01*
X143798726Y-94050222D01*
X143819769Y-94062834D01*
X143839475Y-94077449D01*
X143857653Y-94093925D01*
X143874129Y-94112103D01*
X143888744Y-94131809D01*
X143901356Y-94152852D01*
X143911846Y-94175031D01*
X143920111Y-94198130D01*
X143926072Y-94221929D01*
X143929672Y-94246197D01*
X143930876Y-94270701D01*
X143930876Y-95170703D01*
X143929672Y-95195207D01*
X143926072Y-95219475D01*
X143920111Y-95243274D01*
X143911846Y-95266373D01*
X143901356Y-95288552D01*
X143888744Y-95309595D01*
X143874129Y-95329301D01*
X143857653Y-95347479D01*
X143839475Y-95363955D01*
X143819769Y-95378570D01*
X143798726Y-95391182D01*
X143776547Y-95401672D01*
X143753448Y-95409937D01*
X143729649Y-95415898D01*
X143705381Y-95419498D01*
X143680877Y-95420702D01*
X143030875Y-95420702D01*
X143006371Y-95419498D01*
X142982103Y-95415898D01*
X142958304Y-95409937D01*
X142935205Y-95401672D01*
X142913026Y-95391182D01*
X142891983Y-95378570D01*
X142872277Y-95363955D01*
X142854099Y-95347479D01*
X142837623Y-95329301D01*
X142823008Y-95309595D01*
X142810396Y-95288552D01*
X142799906Y-95266373D01*
X142791641Y-95243274D01*
X142785680Y-95219475D01*
X142782080Y-95195207D01*
X142780876Y-95170703D01*
X142780876Y-94270701D01*
X142782080Y-94246197D01*
X142785680Y-94221929D01*
X142791641Y-94198130D01*
X142799906Y-94175031D01*
X142810396Y-94152852D01*
X142823008Y-94131809D01*
X142837623Y-94112103D01*
X142854099Y-94093925D01*
X142872277Y-94077449D01*
X142891983Y-94062834D01*
X142913026Y-94050222D01*
X142935205Y-94039732D01*
X142958304Y-94031467D01*
X142982103Y-94025506D01*
X143006371Y-94021906D01*
X143030875Y-94020702D01*
X143680877Y-94020702D01*
X143705381Y-94021906D01*
X143705381Y-94021906D01*
G37*
D16*
X143355876Y-94720702D03*
D15*
G36*
X141655381Y-94021906D02*
G01*
X141679649Y-94025506D01*
X141703448Y-94031467D01*
X141726547Y-94039732D01*
X141748726Y-94050222D01*
X141769769Y-94062834D01*
X141789475Y-94077449D01*
X141807653Y-94093925D01*
X141824129Y-94112103D01*
X141838744Y-94131809D01*
X141851356Y-94152852D01*
X141861846Y-94175031D01*
X141870111Y-94198130D01*
X141876072Y-94221929D01*
X141879672Y-94246197D01*
X141880876Y-94270701D01*
X141880876Y-95170703D01*
X141879672Y-95195207D01*
X141876072Y-95219475D01*
X141870111Y-95243274D01*
X141861846Y-95266373D01*
X141851356Y-95288552D01*
X141838744Y-95309595D01*
X141824129Y-95329301D01*
X141807653Y-95347479D01*
X141789475Y-95363955D01*
X141769769Y-95378570D01*
X141748726Y-95391182D01*
X141726547Y-95401672D01*
X141703448Y-95409937D01*
X141679649Y-95415898D01*
X141655381Y-95419498D01*
X141630877Y-95420702D01*
X140980875Y-95420702D01*
X140956371Y-95419498D01*
X140932103Y-95415898D01*
X140908304Y-95409937D01*
X140885205Y-95401672D01*
X140863026Y-95391182D01*
X140841983Y-95378570D01*
X140822277Y-95363955D01*
X140804099Y-95347479D01*
X140787623Y-95329301D01*
X140773008Y-95309595D01*
X140760396Y-95288552D01*
X140749906Y-95266373D01*
X140741641Y-95243274D01*
X140735680Y-95219475D01*
X140732080Y-95195207D01*
X140730876Y-95170703D01*
X140730876Y-94270701D01*
X140732080Y-94246197D01*
X140735680Y-94221929D01*
X140741641Y-94198130D01*
X140749906Y-94175031D01*
X140760396Y-94152852D01*
X140773008Y-94131809D01*
X140787623Y-94112103D01*
X140804099Y-94093925D01*
X140822277Y-94077449D01*
X140841983Y-94062834D01*
X140863026Y-94050222D01*
X140885205Y-94039732D01*
X140908304Y-94031467D01*
X140932103Y-94025506D01*
X140956371Y-94021906D01*
X140980875Y-94020702D01*
X141630877Y-94020702D01*
X141655381Y-94021906D01*
X141655381Y-94021906D01*
G37*
D16*
X141305876Y-94720702D03*
D15*
G36*
X126204505Y-92626204D02*
G01*
X126228773Y-92629804D01*
X126252572Y-92635765D01*
X126275671Y-92644030D01*
X126297850Y-92654520D01*
X126318893Y-92667132D01*
X126338599Y-92681747D01*
X126356777Y-92698223D01*
X126373253Y-92716401D01*
X126387868Y-92736107D01*
X126400480Y-92757150D01*
X126410970Y-92779329D01*
X126419235Y-92802428D01*
X126425196Y-92826227D01*
X126428796Y-92850495D01*
X126430000Y-92874999D01*
X126430000Y-93525001D01*
X126428796Y-93549505D01*
X126425196Y-93573773D01*
X126419235Y-93597572D01*
X126410970Y-93620671D01*
X126400480Y-93642850D01*
X126387868Y-93663893D01*
X126373253Y-93683599D01*
X126356777Y-93701777D01*
X126338599Y-93718253D01*
X126318893Y-93732868D01*
X126297850Y-93745480D01*
X126275671Y-93755970D01*
X126252572Y-93764235D01*
X126228773Y-93770196D01*
X126204505Y-93773796D01*
X126180001Y-93775000D01*
X125279999Y-93775000D01*
X125255495Y-93773796D01*
X125231227Y-93770196D01*
X125207428Y-93764235D01*
X125184329Y-93755970D01*
X125162150Y-93745480D01*
X125141107Y-93732868D01*
X125121401Y-93718253D01*
X125103223Y-93701777D01*
X125086747Y-93683599D01*
X125072132Y-93663893D01*
X125059520Y-93642850D01*
X125049030Y-93620671D01*
X125040765Y-93597572D01*
X125034804Y-93573773D01*
X125031204Y-93549505D01*
X125030000Y-93525001D01*
X125030000Y-92874999D01*
X125031204Y-92850495D01*
X125034804Y-92826227D01*
X125040765Y-92802428D01*
X125049030Y-92779329D01*
X125059520Y-92757150D01*
X125072132Y-92736107D01*
X125086747Y-92716401D01*
X125103223Y-92698223D01*
X125121401Y-92681747D01*
X125141107Y-92667132D01*
X125162150Y-92654520D01*
X125184329Y-92644030D01*
X125207428Y-92635765D01*
X125231227Y-92629804D01*
X125255495Y-92626204D01*
X125279999Y-92625000D01*
X126180001Y-92625000D01*
X126204505Y-92626204D01*
X126204505Y-92626204D01*
G37*
D16*
X125730000Y-93200000D03*
D15*
G36*
X126204505Y-94676204D02*
G01*
X126228773Y-94679804D01*
X126252572Y-94685765D01*
X126275671Y-94694030D01*
X126297850Y-94704520D01*
X126318893Y-94717132D01*
X126338599Y-94731747D01*
X126356777Y-94748223D01*
X126373253Y-94766401D01*
X126387868Y-94786107D01*
X126400480Y-94807150D01*
X126410970Y-94829329D01*
X126419235Y-94852428D01*
X126425196Y-94876227D01*
X126428796Y-94900495D01*
X126430000Y-94924999D01*
X126430000Y-95575001D01*
X126428796Y-95599505D01*
X126425196Y-95623773D01*
X126419235Y-95647572D01*
X126410970Y-95670671D01*
X126400480Y-95692850D01*
X126387868Y-95713893D01*
X126373253Y-95733599D01*
X126356777Y-95751777D01*
X126338599Y-95768253D01*
X126318893Y-95782868D01*
X126297850Y-95795480D01*
X126275671Y-95805970D01*
X126252572Y-95814235D01*
X126228773Y-95820196D01*
X126204505Y-95823796D01*
X126180001Y-95825000D01*
X125279999Y-95825000D01*
X125255495Y-95823796D01*
X125231227Y-95820196D01*
X125207428Y-95814235D01*
X125184329Y-95805970D01*
X125162150Y-95795480D01*
X125141107Y-95782868D01*
X125121401Y-95768253D01*
X125103223Y-95751777D01*
X125086747Y-95733599D01*
X125072132Y-95713893D01*
X125059520Y-95692850D01*
X125049030Y-95670671D01*
X125040765Y-95647572D01*
X125034804Y-95623773D01*
X125031204Y-95599505D01*
X125030000Y-95575001D01*
X125030000Y-94924999D01*
X125031204Y-94900495D01*
X125034804Y-94876227D01*
X125040765Y-94852428D01*
X125049030Y-94829329D01*
X125059520Y-94807150D01*
X125072132Y-94786107D01*
X125086747Y-94766401D01*
X125103223Y-94748223D01*
X125121401Y-94731747D01*
X125141107Y-94717132D01*
X125162150Y-94704520D01*
X125184329Y-94694030D01*
X125207428Y-94685765D01*
X125231227Y-94679804D01*
X125255495Y-94676204D01*
X125279999Y-94675000D01*
X126180001Y-94675000D01*
X126204505Y-94676204D01*
X126204505Y-94676204D01*
G37*
D16*
X125730000Y-95250000D03*
D15*
G36*
X128744505Y-92626204D02*
G01*
X128768773Y-92629804D01*
X128792572Y-92635765D01*
X128815671Y-92644030D01*
X128837850Y-92654520D01*
X128858893Y-92667132D01*
X128878599Y-92681747D01*
X128896777Y-92698223D01*
X128913253Y-92716401D01*
X128927868Y-92736107D01*
X128940480Y-92757150D01*
X128950970Y-92779329D01*
X128959235Y-92802428D01*
X128965196Y-92826227D01*
X128968796Y-92850495D01*
X128970000Y-92874999D01*
X128970000Y-93525001D01*
X128968796Y-93549505D01*
X128965196Y-93573773D01*
X128959235Y-93597572D01*
X128950970Y-93620671D01*
X128940480Y-93642850D01*
X128927868Y-93663893D01*
X128913253Y-93683599D01*
X128896777Y-93701777D01*
X128878599Y-93718253D01*
X128858893Y-93732868D01*
X128837850Y-93745480D01*
X128815671Y-93755970D01*
X128792572Y-93764235D01*
X128768773Y-93770196D01*
X128744505Y-93773796D01*
X128720001Y-93775000D01*
X127819999Y-93775000D01*
X127795495Y-93773796D01*
X127771227Y-93770196D01*
X127747428Y-93764235D01*
X127724329Y-93755970D01*
X127702150Y-93745480D01*
X127681107Y-93732868D01*
X127661401Y-93718253D01*
X127643223Y-93701777D01*
X127626747Y-93683599D01*
X127612132Y-93663893D01*
X127599520Y-93642850D01*
X127589030Y-93620671D01*
X127580765Y-93597572D01*
X127574804Y-93573773D01*
X127571204Y-93549505D01*
X127570000Y-93525001D01*
X127570000Y-92874999D01*
X127571204Y-92850495D01*
X127574804Y-92826227D01*
X127580765Y-92802428D01*
X127589030Y-92779329D01*
X127599520Y-92757150D01*
X127612132Y-92736107D01*
X127626747Y-92716401D01*
X127643223Y-92698223D01*
X127661401Y-92681747D01*
X127681107Y-92667132D01*
X127702150Y-92654520D01*
X127724329Y-92644030D01*
X127747428Y-92635765D01*
X127771227Y-92629804D01*
X127795495Y-92626204D01*
X127819999Y-92625000D01*
X128720001Y-92625000D01*
X128744505Y-92626204D01*
X128744505Y-92626204D01*
G37*
D16*
X128270000Y-93200000D03*
D15*
G36*
X128744505Y-94676204D02*
G01*
X128768773Y-94679804D01*
X128792572Y-94685765D01*
X128815671Y-94694030D01*
X128837850Y-94704520D01*
X128858893Y-94717132D01*
X128878599Y-94731747D01*
X128896777Y-94748223D01*
X128913253Y-94766401D01*
X128927868Y-94786107D01*
X128940480Y-94807150D01*
X128950970Y-94829329D01*
X128959235Y-94852428D01*
X128965196Y-94876227D01*
X128968796Y-94900495D01*
X128970000Y-94924999D01*
X128970000Y-95575001D01*
X128968796Y-95599505D01*
X128965196Y-95623773D01*
X128959235Y-95647572D01*
X128950970Y-95670671D01*
X128940480Y-95692850D01*
X128927868Y-95713893D01*
X128913253Y-95733599D01*
X128896777Y-95751777D01*
X128878599Y-95768253D01*
X128858893Y-95782868D01*
X128837850Y-95795480D01*
X128815671Y-95805970D01*
X128792572Y-95814235D01*
X128768773Y-95820196D01*
X128744505Y-95823796D01*
X128720001Y-95825000D01*
X127819999Y-95825000D01*
X127795495Y-95823796D01*
X127771227Y-95820196D01*
X127747428Y-95814235D01*
X127724329Y-95805970D01*
X127702150Y-95795480D01*
X127681107Y-95782868D01*
X127661401Y-95768253D01*
X127643223Y-95751777D01*
X127626747Y-95733599D01*
X127612132Y-95713893D01*
X127599520Y-95692850D01*
X127589030Y-95670671D01*
X127580765Y-95647572D01*
X127574804Y-95623773D01*
X127571204Y-95599505D01*
X127570000Y-95575001D01*
X127570000Y-94924999D01*
X127571204Y-94900495D01*
X127574804Y-94876227D01*
X127580765Y-94852428D01*
X127589030Y-94829329D01*
X127599520Y-94807150D01*
X127612132Y-94786107D01*
X127626747Y-94766401D01*
X127643223Y-94748223D01*
X127661401Y-94731747D01*
X127681107Y-94717132D01*
X127702150Y-94704520D01*
X127724329Y-94694030D01*
X127747428Y-94685765D01*
X127771227Y-94679804D01*
X127795495Y-94676204D01*
X127819999Y-94675000D01*
X128720001Y-94675000D01*
X128744505Y-94676204D01*
X128744505Y-94676204D01*
G37*
D16*
X128270000Y-95250000D03*
D15*
G36*
X131284505Y-92626204D02*
G01*
X131308773Y-92629804D01*
X131332572Y-92635765D01*
X131355671Y-92644030D01*
X131377850Y-92654520D01*
X131398893Y-92667132D01*
X131418599Y-92681747D01*
X131436777Y-92698223D01*
X131453253Y-92716401D01*
X131467868Y-92736107D01*
X131480480Y-92757150D01*
X131490970Y-92779329D01*
X131499235Y-92802428D01*
X131505196Y-92826227D01*
X131508796Y-92850495D01*
X131510000Y-92874999D01*
X131510000Y-93525001D01*
X131508796Y-93549505D01*
X131505196Y-93573773D01*
X131499235Y-93597572D01*
X131490970Y-93620671D01*
X131480480Y-93642850D01*
X131467868Y-93663893D01*
X131453253Y-93683599D01*
X131436777Y-93701777D01*
X131418599Y-93718253D01*
X131398893Y-93732868D01*
X131377850Y-93745480D01*
X131355671Y-93755970D01*
X131332572Y-93764235D01*
X131308773Y-93770196D01*
X131284505Y-93773796D01*
X131260001Y-93775000D01*
X130359999Y-93775000D01*
X130335495Y-93773796D01*
X130311227Y-93770196D01*
X130287428Y-93764235D01*
X130264329Y-93755970D01*
X130242150Y-93745480D01*
X130221107Y-93732868D01*
X130201401Y-93718253D01*
X130183223Y-93701777D01*
X130166747Y-93683599D01*
X130152132Y-93663893D01*
X130139520Y-93642850D01*
X130129030Y-93620671D01*
X130120765Y-93597572D01*
X130114804Y-93573773D01*
X130111204Y-93549505D01*
X130110000Y-93525001D01*
X130110000Y-92874999D01*
X130111204Y-92850495D01*
X130114804Y-92826227D01*
X130120765Y-92802428D01*
X130129030Y-92779329D01*
X130139520Y-92757150D01*
X130152132Y-92736107D01*
X130166747Y-92716401D01*
X130183223Y-92698223D01*
X130201401Y-92681747D01*
X130221107Y-92667132D01*
X130242150Y-92654520D01*
X130264329Y-92644030D01*
X130287428Y-92635765D01*
X130311227Y-92629804D01*
X130335495Y-92626204D01*
X130359999Y-92625000D01*
X131260001Y-92625000D01*
X131284505Y-92626204D01*
X131284505Y-92626204D01*
G37*
D16*
X130810000Y-93200000D03*
D15*
G36*
X131284505Y-94676204D02*
G01*
X131308773Y-94679804D01*
X131332572Y-94685765D01*
X131355671Y-94694030D01*
X131377850Y-94704520D01*
X131398893Y-94717132D01*
X131418599Y-94731747D01*
X131436777Y-94748223D01*
X131453253Y-94766401D01*
X131467868Y-94786107D01*
X131480480Y-94807150D01*
X131490970Y-94829329D01*
X131499235Y-94852428D01*
X131505196Y-94876227D01*
X131508796Y-94900495D01*
X131510000Y-94924999D01*
X131510000Y-95575001D01*
X131508796Y-95599505D01*
X131505196Y-95623773D01*
X131499235Y-95647572D01*
X131490970Y-95670671D01*
X131480480Y-95692850D01*
X131467868Y-95713893D01*
X131453253Y-95733599D01*
X131436777Y-95751777D01*
X131418599Y-95768253D01*
X131398893Y-95782868D01*
X131377850Y-95795480D01*
X131355671Y-95805970D01*
X131332572Y-95814235D01*
X131308773Y-95820196D01*
X131284505Y-95823796D01*
X131260001Y-95825000D01*
X130359999Y-95825000D01*
X130335495Y-95823796D01*
X130311227Y-95820196D01*
X130287428Y-95814235D01*
X130264329Y-95805970D01*
X130242150Y-95795480D01*
X130221107Y-95782868D01*
X130201401Y-95768253D01*
X130183223Y-95751777D01*
X130166747Y-95733599D01*
X130152132Y-95713893D01*
X130139520Y-95692850D01*
X130129030Y-95670671D01*
X130120765Y-95647572D01*
X130114804Y-95623773D01*
X130111204Y-95599505D01*
X130110000Y-95575001D01*
X130110000Y-94924999D01*
X130111204Y-94900495D01*
X130114804Y-94876227D01*
X130120765Y-94852428D01*
X130129030Y-94829329D01*
X130139520Y-94807150D01*
X130152132Y-94786107D01*
X130166747Y-94766401D01*
X130183223Y-94748223D01*
X130201401Y-94731747D01*
X130221107Y-94717132D01*
X130242150Y-94704520D01*
X130264329Y-94694030D01*
X130287428Y-94685765D01*
X130311227Y-94679804D01*
X130335495Y-94676204D01*
X130359999Y-94675000D01*
X131260001Y-94675000D01*
X131284505Y-94676204D01*
X131284505Y-94676204D01*
G37*
D16*
X130810000Y-95250000D03*
D12*
X121840000Y-86360000D03*
X124380000Y-86360000D03*
X126920000Y-86360000D03*
X129460000Y-86360000D03*
D13*
X132000000Y-86360000D03*
D12*
X151130000Y-86360000D03*
X148590000Y-86360000D03*
X146050000Y-86360000D03*
X143510000Y-86360000D03*
D13*
X140970000Y-86360000D03*
D19*
X147332001Y-100788339D03*
X122332001Y-100788339D03*
D20*
X129987001Y-103328339D03*
X132277001Y-103328339D03*
X134567001Y-103328339D03*
X136857001Y-103328339D03*
X139147001Y-103328339D03*
X131132001Y-101348339D03*
X133422001Y-101348339D03*
X135712001Y-101348339D03*
X138002001Y-101348339D03*
X140292001Y-101348339D03*
X129987001Y-99368339D03*
X132277001Y-99368339D03*
X134567001Y-99368339D03*
X136857001Y-99368339D03*
D21*
X139147001Y-99368339D03*
D15*
G36*
X157339505Y-90741204D02*
G01*
X157363773Y-90744804D01*
X157387572Y-90750765D01*
X157410671Y-90759030D01*
X157432850Y-90769520D01*
X157453893Y-90782132D01*
X157473599Y-90796747D01*
X157491777Y-90813223D01*
X157508253Y-90831401D01*
X157522868Y-90851107D01*
X157535480Y-90872150D01*
X157545970Y-90894329D01*
X157554235Y-90917428D01*
X157560196Y-90941227D01*
X157563796Y-90965495D01*
X157565000Y-90989999D01*
X157565000Y-91890001D01*
X157563796Y-91914505D01*
X157560196Y-91938773D01*
X157554235Y-91962572D01*
X157545970Y-91985671D01*
X157535480Y-92007850D01*
X157522868Y-92028893D01*
X157508253Y-92048599D01*
X157491777Y-92066777D01*
X157473599Y-92083253D01*
X157453893Y-92097868D01*
X157432850Y-92110480D01*
X157410671Y-92120970D01*
X157387572Y-92129235D01*
X157363773Y-92135196D01*
X157339505Y-92138796D01*
X157315001Y-92140000D01*
X156664999Y-92140000D01*
X156640495Y-92138796D01*
X156616227Y-92135196D01*
X156592428Y-92129235D01*
X156569329Y-92120970D01*
X156547150Y-92110480D01*
X156526107Y-92097868D01*
X156506401Y-92083253D01*
X156488223Y-92066777D01*
X156471747Y-92048599D01*
X156457132Y-92028893D01*
X156444520Y-92007850D01*
X156434030Y-91985671D01*
X156425765Y-91962572D01*
X156419804Y-91938773D01*
X156416204Y-91914505D01*
X156415000Y-91890001D01*
X156415000Y-90989999D01*
X156416204Y-90965495D01*
X156419804Y-90941227D01*
X156425765Y-90917428D01*
X156434030Y-90894329D01*
X156444520Y-90872150D01*
X156457132Y-90851107D01*
X156471747Y-90831401D01*
X156488223Y-90813223D01*
X156506401Y-90796747D01*
X156526107Y-90782132D01*
X156547150Y-90769520D01*
X156569329Y-90759030D01*
X156592428Y-90750765D01*
X156616227Y-90744804D01*
X156640495Y-90741204D01*
X156664999Y-90740000D01*
X157315001Y-90740000D01*
X157339505Y-90741204D01*
X157339505Y-90741204D01*
G37*
D16*
X156990000Y-91440000D03*
D15*
G36*
X155289505Y-90741204D02*
G01*
X155313773Y-90744804D01*
X155337572Y-90750765D01*
X155360671Y-90759030D01*
X155382850Y-90769520D01*
X155403893Y-90782132D01*
X155423599Y-90796747D01*
X155441777Y-90813223D01*
X155458253Y-90831401D01*
X155472868Y-90851107D01*
X155485480Y-90872150D01*
X155495970Y-90894329D01*
X155504235Y-90917428D01*
X155510196Y-90941227D01*
X155513796Y-90965495D01*
X155515000Y-90989999D01*
X155515000Y-91890001D01*
X155513796Y-91914505D01*
X155510196Y-91938773D01*
X155504235Y-91962572D01*
X155495970Y-91985671D01*
X155485480Y-92007850D01*
X155472868Y-92028893D01*
X155458253Y-92048599D01*
X155441777Y-92066777D01*
X155423599Y-92083253D01*
X155403893Y-92097868D01*
X155382850Y-92110480D01*
X155360671Y-92120970D01*
X155337572Y-92129235D01*
X155313773Y-92135196D01*
X155289505Y-92138796D01*
X155265001Y-92140000D01*
X154614999Y-92140000D01*
X154590495Y-92138796D01*
X154566227Y-92135196D01*
X154542428Y-92129235D01*
X154519329Y-92120970D01*
X154497150Y-92110480D01*
X154476107Y-92097868D01*
X154456401Y-92083253D01*
X154438223Y-92066777D01*
X154421747Y-92048599D01*
X154407132Y-92028893D01*
X154394520Y-92007850D01*
X154384030Y-91985671D01*
X154375765Y-91962572D01*
X154369804Y-91938773D01*
X154366204Y-91914505D01*
X154365000Y-91890001D01*
X154365000Y-90989999D01*
X154366204Y-90965495D01*
X154369804Y-90941227D01*
X154375765Y-90917428D01*
X154384030Y-90894329D01*
X154394520Y-90872150D01*
X154407132Y-90851107D01*
X154421747Y-90831401D01*
X154438223Y-90813223D01*
X154456401Y-90796747D01*
X154476107Y-90782132D01*
X154497150Y-90769520D01*
X154519329Y-90759030D01*
X154542428Y-90750765D01*
X154566227Y-90744804D01*
X154590495Y-90741204D01*
X154614999Y-90740000D01*
X155265001Y-90740000D01*
X155289505Y-90741204D01*
X155289505Y-90741204D01*
G37*
D16*
X154940000Y-91440000D03*
D15*
G36*
X157339505Y-95801204D02*
G01*
X157363773Y-95804804D01*
X157387572Y-95810765D01*
X157410671Y-95819030D01*
X157432850Y-95829520D01*
X157453893Y-95842132D01*
X157473599Y-95856747D01*
X157491777Y-95873223D01*
X157508253Y-95891401D01*
X157522868Y-95911107D01*
X157535480Y-95932150D01*
X157545970Y-95954329D01*
X157554235Y-95977428D01*
X157560196Y-96001227D01*
X157563796Y-96025495D01*
X157565000Y-96049999D01*
X157565000Y-96950001D01*
X157563796Y-96974505D01*
X157560196Y-96998773D01*
X157554235Y-97022572D01*
X157545970Y-97045671D01*
X157535480Y-97067850D01*
X157522868Y-97088893D01*
X157508253Y-97108599D01*
X157491777Y-97126777D01*
X157473599Y-97143253D01*
X157453893Y-97157868D01*
X157432850Y-97170480D01*
X157410671Y-97180970D01*
X157387572Y-97189235D01*
X157363773Y-97195196D01*
X157339505Y-97198796D01*
X157315001Y-97200000D01*
X156664999Y-97200000D01*
X156640495Y-97198796D01*
X156616227Y-97195196D01*
X156592428Y-97189235D01*
X156569329Y-97180970D01*
X156547150Y-97170480D01*
X156526107Y-97157868D01*
X156506401Y-97143253D01*
X156488223Y-97126777D01*
X156471747Y-97108599D01*
X156457132Y-97088893D01*
X156444520Y-97067850D01*
X156434030Y-97045671D01*
X156425765Y-97022572D01*
X156419804Y-96998773D01*
X156416204Y-96974505D01*
X156415000Y-96950001D01*
X156415000Y-96049999D01*
X156416204Y-96025495D01*
X156419804Y-96001227D01*
X156425765Y-95977428D01*
X156434030Y-95954329D01*
X156444520Y-95932150D01*
X156457132Y-95911107D01*
X156471747Y-95891401D01*
X156488223Y-95873223D01*
X156506401Y-95856747D01*
X156526107Y-95842132D01*
X156547150Y-95829520D01*
X156569329Y-95819030D01*
X156592428Y-95810765D01*
X156616227Y-95804804D01*
X156640495Y-95801204D01*
X156664999Y-95800000D01*
X157315001Y-95800000D01*
X157339505Y-95801204D01*
X157339505Y-95801204D01*
G37*
D16*
X156990000Y-96500000D03*
D15*
G36*
X155289505Y-95801204D02*
G01*
X155313773Y-95804804D01*
X155337572Y-95810765D01*
X155360671Y-95819030D01*
X155382850Y-95829520D01*
X155403893Y-95842132D01*
X155423599Y-95856747D01*
X155441777Y-95873223D01*
X155458253Y-95891401D01*
X155472868Y-95911107D01*
X155485480Y-95932150D01*
X155495970Y-95954329D01*
X155504235Y-95977428D01*
X155510196Y-96001227D01*
X155513796Y-96025495D01*
X155515000Y-96049999D01*
X155515000Y-96950001D01*
X155513796Y-96974505D01*
X155510196Y-96998773D01*
X155504235Y-97022572D01*
X155495970Y-97045671D01*
X155485480Y-97067850D01*
X155472868Y-97088893D01*
X155458253Y-97108599D01*
X155441777Y-97126777D01*
X155423599Y-97143253D01*
X155403893Y-97157868D01*
X155382850Y-97170480D01*
X155360671Y-97180970D01*
X155337572Y-97189235D01*
X155313773Y-97195196D01*
X155289505Y-97198796D01*
X155265001Y-97200000D01*
X154614999Y-97200000D01*
X154590495Y-97198796D01*
X154566227Y-97195196D01*
X154542428Y-97189235D01*
X154519329Y-97180970D01*
X154497150Y-97170480D01*
X154476107Y-97157868D01*
X154456401Y-97143253D01*
X154438223Y-97126777D01*
X154421747Y-97108599D01*
X154407132Y-97088893D01*
X154394520Y-97067850D01*
X154384030Y-97045671D01*
X154375765Y-97022572D01*
X154369804Y-96998773D01*
X154366204Y-96974505D01*
X154365000Y-96950001D01*
X154365000Y-96049999D01*
X154366204Y-96025495D01*
X154369804Y-96001227D01*
X154375765Y-95977428D01*
X154384030Y-95954329D01*
X154394520Y-95932150D01*
X154407132Y-95911107D01*
X154421747Y-95891401D01*
X154438223Y-95873223D01*
X154456401Y-95856747D01*
X154476107Y-95842132D01*
X154497150Y-95829520D01*
X154519329Y-95819030D01*
X154542428Y-95810765D01*
X154566227Y-95804804D01*
X154590495Y-95801204D01*
X154614999Y-95800000D01*
X155265001Y-95800000D01*
X155289505Y-95801204D01*
X155289505Y-95801204D01*
G37*
D16*
X154940000Y-96500000D03*
D10*
X114000000Y-108000000D03*
D22*
X158000000Y-92500000D03*
X163000000Y-91500000D03*
X136140702Y-89640702D03*
X136000000Y-92000000D03*
X136000000Y-94500000D03*
X132000000Y-93000000D03*
X147500000Y-89500000D03*
X150500000Y-94000000D03*
X150250359Y-90446728D03*
X150286094Y-91446102D03*
X150754988Y-92329357D03*
X154000000Y-102500000D03*
D23*
X158514999Y-95504999D02*
X159380000Y-95504999D01*
X156990000Y-93980000D02*
X158514999Y-95504999D01*
X152335000Y-92392500D02*
X152335000Y-93027500D01*
X156990000Y-92500000D02*
X158000000Y-92500000D01*
X156990000Y-91440000D02*
X156990000Y-92500000D01*
X156990000Y-92500000D02*
X156990000Y-93980000D01*
X161505000Y-91400000D02*
X162900000Y-91400000D01*
X162900000Y-91400000D02*
X163000000Y-91500000D01*
X137495876Y-89640702D02*
X136140702Y-89640702D01*
X136680702Y-92180702D02*
X137495876Y-92180702D01*
X136000000Y-92000000D02*
X136680702Y-92180702D01*
X137495876Y-94720702D02*
X136220702Y-94720702D01*
X136220702Y-94720702D02*
X136000000Y-94500000D01*
X128270000Y-93200000D02*
X125730000Y-93200000D01*
X130010000Y-93200000D02*
X128270000Y-93200000D01*
X130810000Y-93200000D02*
X130010000Y-93200000D01*
X130810000Y-93200000D02*
X131800000Y-93200000D01*
X131800000Y-93200000D02*
X132000000Y-93000000D01*
X158514999Y-98014999D02*
X159500000Y-99000000D01*
X156990000Y-96500000D02*
X158514999Y-98014999D01*
X156990000Y-93980000D02*
X156990000Y-96500000D01*
X147385000Y-90487500D02*
X147385000Y-89615000D01*
X147385000Y-89615000D02*
X147500000Y-89500000D01*
X150500000Y-93632500D02*
X150500000Y-94000000D01*
X151105000Y-93027500D02*
X150500000Y-93632500D01*
X152335000Y-93027500D02*
X151105000Y-93027500D01*
X159455000Y-94479999D02*
X159380000Y-94554999D01*
X159455000Y-91400000D02*
X159455000Y-94479999D01*
X158831628Y-90776628D02*
X159455000Y-91400000D01*
X158469990Y-90414990D02*
X158831628Y-90776628D01*
X155965010Y-90414990D02*
X158469990Y-90414990D01*
X154940000Y-91440000D02*
X155965010Y-90414990D01*
X147385000Y-91757500D02*
X147385000Y-92392500D01*
X148874976Y-92747476D02*
X148874976Y-94720802D01*
X149779198Y-95625024D02*
X153412478Y-95625024D01*
X153412478Y-95625024D02*
X154940000Y-94097502D01*
X154940000Y-94097502D02*
X154940000Y-92240000D01*
X154940000Y-92240000D02*
X154940000Y-91440000D01*
X148874976Y-94720802D02*
X149779198Y-95625024D01*
X148520000Y-92392500D02*
X148874976Y-92747476D01*
X147385000Y-92392500D02*
X148520000Y-92392500D01*
X162332002Y-110029999D02*
X163182001Y-109180000D01*
X162007000Y-110355001D02*
X162332002Y-110029999D01*
X154568004Y-110355001D02*
X162007000Y-110355001D01*
X148666343Y-104453340D02*
X154568004Y-110355001D01*
X135692002Y-104453340D02*
X148666343Y-104453340D01*
X134567001Y-103328339D02*
X135692002Y-104453340D01*
X133442000Y-98243338D02*
X133767002Y-98568340D01*
X128048338Y-98243338D02*
X133442000Y-98243338D01*
X125730000Y-95925000D02*
X128048338Y-98243338D01*
X133767002Y-98568340D02*
X134567001Y-99368339D01*
X125730000Y-95250000D02*
X125730000Y-95925000D01*
X152335000Y-90487500D02*
X150291131Y-90487500D01*
X150291131Y-90487500D02*
X150250359Y-90446728D01*
X150609696Y-91122500D02*
X150286094Y-91446102D01*
X152335000Y-91122500D02*
X150609696Y-91122500D01*
X134938673Y-97450011D02*
X136057002Y-98568340D01*
X136057002Y-98568340D02*
X136857001Y-99368339D01*
X130470011Y-97450011D02*
X134938673Y-97450011D01*
X128270000Y-95250000D02*
X130470011Y-97450011D01*
X152335000Y-91757500D02*
X151105000Y-91757500D01*
X151105000Y-91757500D02*
X150754988Y-92107512D01*
X150754988Y-92107512D02*
X150754988Y-92329357D01*
X139147001Y-98318339D02*
X139147001Y-99368339D01*
X137828662Y-97000000D02*
X139147001Y-98318339D01*
X133360000Y-97000000D02*
X137828662Y-97000000D01*
X131610000Y-95250000D02*
X133360000Y-97000000D01*
X130810000Y-95250000D02*
X131610000Y-95250000D01*
X156357002Y-108004999D02*
X156032000Y-108330001D01*
X156357002Y-104857002D02*
X156357002Y-108004999D01*
X156032000Y-108330001D02*
X155182001Y-109180000D01*
X154000000Y-102500000D02*
X156357002Y-104857002D01*
X146155000Y-94297500D02*
X147385000Y-94297500D01*
X144454078Y-94297500D02*
X146155000Y-94297500D01*
X144030876Y-94720702D02*
X144454078Y-94297500D01*
X143355876Y-94720702D02*
X144030876Y-94720702D01*
X144837674Y-93662500D02*
X147385000Y-93662500D01*
X143355876Y-92180702D02*
X144837674Y-93662500D01*
X146155000Y-93027500D02*
X147385000Y-93027500D01*
X145942674Y-93027500D02*
X146155000Y-93027500D01*
X143355876Y-90440702D02*
X145942674Y-93027500D01*
X143355876Y-89640702D02*
X143355876Y-90440702D01*
X139545876Y-94720702D02*
X141305876Y-94720702D01*
X138922504Y-94097330D02*
X139545876Y-94720702D01*
X138520866Y-93695692D02*
X138922504Y-94097330D01*
X128284999Y-86360000D02*
X128284999Y-86924001D01*
X129535001Y-87535001D02*
X135695692Y-93695692D01*
X126920000Y-86360000D02*
X128284999Y-86360000D01*
X128284999Y-86924001D02*
X128895999Y-87535001D01*
X128895999Y-87535001D02*
X129535001Y-87535001D01*
X135695692Y-93695692D02*
X138520866Y-93695692D01*
X138922504Y-91557330D02*
X139545876Y-92180702D01*
X134255692Y-91155692D02*
X138520866Y-91155692D01*
X138520866Y-91155692D02*
X138922504Y-91557330D01*
X129460000Y-86360000D02*
X134255692Y-91155692D01*
X139545876Y-92180702D02*
X141305876Y-92180702D01*
X139545876Y-89640702D02*
X141305876Y-89640702D01*
X138500000Y-88500000D02*
X139545876Y-89545876D01*
X132000000Y-86360000D02*
X134140000Y-88500000D01*
X139545876Y-89545876D02*
X139545876Y-89640702D01*
X134140000Y-88500000D02*
X138500000Y-88500000D01*
X161684999Y-94450000D02*
X161580000Y-94554999D01*
X163929999Y-94450000D02*
X161684999Y-94450000D01*
X162934998Y-95504999D02*
X161580000Y-95504999D01*
X163929999Y-96500000D02*
X162934998Y-95504999D01*
X153640001Y-88870001D02*
X151979999Y-87209999D01*
X151979999Y-87209999D02*
X151130000Y-86360000D01*
X153640001Y-93587499D02*
X153640001Y-88870001D01*
X153565000Y-93662500D02*
X153640001Y-93587499D01*
X152335000Y-93662500D02*
X153565000Y-93662500D01*
X150848002Y-94725002D02*
X150151998Y-94725002D01*
X152335000Y-94297500D02*
X151275504Y-94297500D01*
X149439999Y-87209999D02*
X148590000Y-86360000D01*
X149439999Y-92039675D02*
X149439999Y-87209999D01*
X149774998Y-92374674D02*
X149439999Y-92039675D01*
X149774998Y-94348002D02*
X149774998Y-92374674D01*
X150151998Y-94725002D02*
X149774998Y-94348002D01*
X151275504Y-94297500D02*
X150848002Y-94725002D01*
X149965598Y-95175013D02*
X149324987Y-94534402D01*
X152092487Y-95175013D02*
X149965598Y-95175013D01*
X146899999Y-87209999D02*
X146050000Y-86360000D01*
X148989988Y-89299988D02*
X146899999Y-87209999D01*
X148989988Y-92226075D02*
X148989988Y-89299988D01*
X149324987Y-92561074D02*
X148989988Y-92226075D01*
X152335000Y-94932500D02*
X152092487Y-95175013D01*
X149324987Y-94534402D02*
X149324987Y-92561074D01*
X146155000Y-91122500D02*
X147385000Y-91122500D01*
X146079999Y-91047499D02*
X146155000Y-91122500D01*
X146079999Y-90776635D02*
X146079999Y-91047499D01*
X143510000Y-88206636D02*
X146079999Y-90776635D01*
X143510000Y-86360000D02*
X143510000Y-88206636D01*
D24*
G36*
X168009954Y-85002115D02*
G01*
X167473000Y-86298436D01*
X167473000Y-87701564D01*
X168009954Y-88997885D01*
X169002115Y-89990046D01*
X170298436Y-90527000D01*
X171701564Y-90527000D01*
X172997885Y-89990046D01*
X173873000Y-89114931D01*
X173873000Y-105885069D01*
X172997885Y-105009954D01*
X171701564Y-104473000D01*
X170298436Y-104473000D01*
X169002115Y-105009954D01*
X168009954Y-106002115D01*
X167473000Y-107298436D01*
X167473000Y-108701564D01*
X168009954Y-109997885D01*
X168885069Y-110873000D01*
X166509001Y-110873000D01*
X166509001Y-110666043D01*
X166306977Y-110178315D01*
X165933686Y-109805024D01*
X165445958Y-109603000D01*
X164918044Y-109603000D01*
X164430316Y-109805024D01*
X164057025Y-110178315D01*
X163855001Y-110666043D01*
X163855001Y-110873000D01*
X154509001Y-110873000D01*
X154509001Y-110804120D01*
X154568003Y-110815856D01*
X154612521Y-110807001D01*
X161962482Y-110807001D01*
X162007000Y-110815856D01*
X162051518Y-110807001D01*
X162183362Y-110780776D01*
X162332874Y-110680875D01*
X162358093Y-110643132D01*
X162683093Y-110318133D01*
X162683095Y-110318130D01*
X162733164Y-110268061D01*
X162947881Y-110357000D01*
X163416121Y-110357000D01*
X163848718Y-110177813D01*
X164179814Y-109846717D01*
X164359001Y-109414120D01*
X164359001Y-108945880D01*
X164179814Y-108513283D01*
X163848718Y-108182187D01*
X163657615Y-108103030D01*
X163966081Y-107975259D01*
X164046354Y-107723958D01*
X163182001Y-106859605D01*
X162317648Y-107723958D01*
X162397921Y-107975259D01*
X162726817Y-108094567D01*
X162515284Y-108182187D01*
X162184188Y-108513283D01*
X162005001Y-108945880D01*
X162005001Y-109414120D01*
X162093940Y-109628837D01*
X162043871Y-109678906D01*
X162043868Y-109678908D01*
X161819776Y-109903001D01*
X160123530Y-109903001D01*
X160179814Y-109846717D01*
X160359001Y-109414120D01*
X160359001Y-108945880D01*
X160179814Y-108513283D01*
X159848718Y-108182187D01*
X159416121Y-108003000D01*
X158947881Y-108003000D01*
X158515284Y-108182187D01*
X158184188Y-108513283D01*
X158005001Y-108945880D01*
X158005001Y-109414120D01*
X158184188Y-109846717D01*
X158240472Y-109903001D01*
X156123530Y-109903001D01*
X156179814Y-109846717D01*
X156359001Y-109414120D01*
X156359001Y-108945880D01*
X156270063Y-108731163D01*
X156383091Y-108618135D01*
X156383093Y-108618132D01*
X156645135Y-108356091D01*
X156682876Y-108330873D01*
X156782777Y-108181361D01*
X156809002Y-108049517D01*
X156809002Y-108049516D01*
X156817857Y-108005000D01*
X156809002Y-107960483D01*
X156809002Y-106445880D01*
X158005001Y-106445880D01*
X158005001Y-106914120D01*
X158184188Y-107346717D01*
X158515284Y-107677813D01*
X158947881Y-107857000D01*
X159416121Y-107857000D01*
X159848718Y-107677813D01*
X160179814Y-107346717D01*
X160359001Y-106914120D01*
X160359001Y-106451279D01*
X161685283Y-106451279D01*
X161711686Y-107041458D01*
X161886742Y-107464080D01*
X162138043Y-107544353D01*
X163002396Y-106680000D01*
X162138043Y-105815647D01*
X161886742Y-105895920D01*
X161685283Y-106451279D01*
X160359001Y-106451279D01*
X160359001Y-106445880D01*
X160179814Y-106013283D01*
X159848718Y-105682187D01*
X159737314Y-105636042D01*
X162317648Y-105636042D01*
X163182001Y-106500395D01*
X163196144Y-106486253D01*
X163375749Y-106665858D01*
X163361606Y-106680000D01*
X164225959Y-107544353D01*
X164477260Y-107464080D01*
X164678719Y-106908721D01*
X164652316Y-106318542D01*
X164566511Y-106111390D01*
X164918044Y-106257000D01*
X165445958Y-106257000D01*
X165933686Y-106054976D01*
X166306977Y-105681685D01*
X166509001Y-105193957D01*
X166509001Y-104666043D01*
X166306977Y-104178315D01*
X165933686Y-103805024D01*
X165445958Y-103603000D01*
X164918044Y-103603000D01*
X164430316Y-103805024D01*
X164057025Y-104178315D01*
X163855001Y-104666043D01*
X163855001Y-105193957D01*
X163928358Y-105371057D01*
X163410722Y-105183282D01*
X162820543Y-105209685D01*
X162397921Y-105384741D01*
X162317648Y-105636042D01*
X159737314Y-105636042D01*
X159416121Y-105503000D01*
X158947881Y-105503000D01*
X158515284Y-105682187D01*
X158184188Y-106013283D01*
X158005001Y-106445880D01*
X156809002Y-106445880D01*
X156809002Y-104901519D01*
X156817857Y-104857001D01*
X156782777Y-104680640D01*
X156748741Y-104629702D01*
X156682876Y-104531128D01*
X156645136Y-104505911D01*
X154727000Y-102587776D01*
X154727000Y-102355391D01*
X154616321Y-102088187D01*
X154411813Y-101883679D01*
X154144609Y-101773000D01*
X153855391Y-101773000D01*
X153588187Y-101883679D01*
X153383679Y-102088187D01*
X153273000Y-102355391D01*
X153273000Y-102644609D01*
X153383679Y-102911813D01*
X153588187Y-103116321D01*
X153855391Y-103227000D01*
X154087776Y-103227000D01*
X155905002Y-105044227D01*
X155905002Y-105738471D01*
X155848718Y-105682187D01*
X155416121Y-105503000D01*
X154947881Y-105503000D01*
X154515284Y-105682187D01*
X154184188Y-106013283D01*
X154005001Y-106445880D01*
X154005001Y-106914120D01*
X154184188Y-107346717D01*
X154515284Y-107677813D01*
X154947881Y-107857000D01*
X155416121Y-107857000D01*
X155848718Y-107677813D01*
X155905003Y-107621528D01*
X155905003Y-107817773D01*
X155743869Y-107978908D01*
X155743866Y-107978910D01*
X155630838Y-108091938D01*
X155416121Y-108003000D01*
X154947881Y-108003000D01*
X154515284Y-108182187D01*
X154184188Y-108513283D01*
X154005001Y-108945880D01*
X154005001Y-109152773D01*
X149518271Y-104666043D01*
X151855001Y-104666043D01*
X151855001Y-105193957D01*
X152057025Y-105681685D01*
X152430316Y-106054976D01*
X152918044Y-106257000D01*
X153445958Y-106257000D01*
X153933686Y-106054976D01*
X154306977Y-105681685D01*
X154509001Y-105193957D01*
X154509001Y-104666043D01*
X154306977Y-104178315D01*
X153933686Y-103805024D01*
X153445958Y-103603000D01*
X152918044Y-103603000D01*
X152430316Y-103805024D01*
X152057025Y-104178315D01*
X151855001Y-104666043D01*
X149518271Y-104666043D01*
X149017436Y-104165209D01*
X148992217Y-104127466D01*
X148842705Y-104027565D01*
X148710861Y-104001340D01*
X148666343Y-103992485D01*
X148621825Y-104001340D01*
X140067818Y-104001340D01*
X140102425Y-103966733D01*
X140274001Y-103552513D01*
X140274001Y-103104165D01*
X140102425Y-102689945D01*
X139785395Y-102372915D01*
X139371175Y-102201339D01*
X138922827Y-102201339D01*
X138508607Y-102372915D01*
X138191577Y-102689945D01*
X138020001Y-103104165D01*
X138020001Y-103552513D01*
X138191577Y-103966733D01*
X138226184Y-104001340D01*
X137777818Y-104001340D01*
X137812425Y-103966733D01*
X137984001Y-103552513D01*
X137984001Y-103104165D01*
X137812425Y-102689945D01*
X137495395Y-102372915D01*
X137081175Y-102201339D01*
X136632827Y-102201339D01*
X136218607Y-102372915D01*
X135901577Y-102689945D01*
X135730001Y-103104165D01*
X135730001Y-103552513D01*
X135901577Y-103966733D01*
X135936184Y-104001340D01*
X135879227Y-104001340D01*
X135616794Y-103738907D01*
X135694001Y-103552513D01*
X135694001Y-103104165D01*
X135522425Y-102689945D01*
X135205395Y-102372915D01*
X134791175Y-102201339D01*
X134342827Y-102201339D01*
X133928607Y-102372915D01*
X133611577Y-102689945D01*
X133440001Y-103104165D01*
X133440001Y-103552513D01*
X133611577Y-103966733D01*
X133928607Y-104283763D01*
X134342827Y-104455339D01*
X134791175Y-104455339D01*
X134977569Y-104378132D01*
X135340910Y-104741473D01*
X135366128Y-104779214D01*
X135482544Y-104857001D01*
X135515640Y-104879115D01*
X135692002Y-104914195D01*
X135736520Y-104905340D01*
X148479119Y-104905340D01*
X153176778Y-109603000D01*
X152918044Y-109603000D01*
X152430316Y-109805024D01*
X152057025Y-110178315D01*
X151855001Y-110666043D01*
X151855001Y-110873000D01*
X116114931Y-110873000D01*
X116990046Y-109997885D01*
X117527000Y-108701564D01*
X117527000Y-107298436D01*
X116990046Y-106002115D01*
X115997885Y-105009954D01*
X114701564Y-104473000D01*
X113298436Y-104473000D01*
X112002115Y-105009954D01*
X111127000Y-105885069D01*
X111127000Y-100325470D01*
X120005001Y-100325470D01*
X120005001Y-101251208D01*
X120359265Y-102106479D01*
X121013861Y-102761075D01*
X121869132Y-103115339D01*
X122794870Y-103115339D01*
X122821846Y-103104165D01*
X128860001Y-103104165D01*
X128860001Y-103552513D01*
X129031577Y-103966733D01*
X129348607Y-104283763D01*
X129762827Y-104455339D01*
X130211175Y-104455339D01*
X130625395Y-104283763D01*
X130942425Y-103966733D01*
X131114001Y-103552513D01*
X131114001Y-103104165D01*
X131150001Y-103104165D01*
X131150001Y-103552513D01*
X131321577Y-103966733D01*
X131638607Y-104283763D01*
X132052827Y-104455339D01*
X132501175Y-104455339D01*
X132915395Y-104283763D01*
X133232425Y-103966733D01*
X133404001Y-103552513D01*
X133404001Y-103104165D01*
X133232425Y-102689945D01*
X132915395Y-102372915D01*
X132501175Y-102201339D01*
X132052827Y-102201339D01*
X131638607Y-102372915D01*
X131321577Y-102689945D01*
X131150001Y-103104165D01*
X131114001Y-103104165D01*
X130942425Y-102689945D01*
X130625395Y-102372915D01*
X130211175Y-102201339D01*
X129762827Y-102201339D01*
X129348607Y-102372915D01*
X129031577Y-102689945D01*
X128860001Y-103104165D01*
X122821846Y-103104165D01*
X123650141Y-102761075D01*
X124304737Y-102106479D01*
X124659001Y-101251208D01*
X124659001Y-101124165D01*
X130005001Y-101124165D01*
X130005001Y-101572513D01*
X130176577Y-101986733D01*
X130493607Y-102303763D01*
X130907827Y-102475339D01*
X131356175Y-102475339D01*
X131770395Y-102303763D01*
X132087425Y-101986733D01*
X132259001Y-101572513D01*
X132259001Y-101124165D01*
X132295001Y-101124165D01*
X132295001Y-101572513D01*
X132466577Y-101986733D01*
X132783607Y-102303763D01*
X133197827Y-102475339D01*
X133646175Y-102475339D01*
X134060395Y-102303763D01*
X134377425Y-101986733D01*
X134549001Y-101572513D01*
X134549001Y-101124165D01*
X134585001Y-101124165D01*
X134585001Y-101572513D01*
X134756577Y-101986733D01*
X135073607Y-102303763D01*
X135487827Y-102475339D01*
X135936175Y-102475339D01*
X136350395Y-102303763D01*
X136667425Y-101986733D01*
X136839001Y-101572513D01*
X136839001Y-101124165D01*
X136667425Y-100709945D01*
X136350395Y-100392915D01*
X135936175Y-100221339D01*
X135487827Y-100221339D01*
X135073607Y-100392915D01*
X134756577Y-100709945D01*
X134585001Y-101124165D01*
X134549001Y-101124165D01*
X134377425Y-100709945D01*
X134060395Y-100392915D01*
X133646175Y-100221339D01*
X133197827Y-100221339D01*
X132783607Y-100392915D01*
X132466577Y-100709945D01*
X132295001Y-101124165D01*
X132259001Y-101124165D01*
X132087425Y-100709945D01*
X131770395Y-100392915D01*
X131356175Y-100221339D01*
X130907827Y-100221339D01*
X130493607Y-100392915D01*
X130176577Y-100709945D01*
X130005001Y-101124165D01*
X124659001Y-101124165D01*
X124659001Y-100325470D01*
X124304737Y-99470199D01*
X123650141Y-98815603D01*
X122794870Y-98461339D01*
X121869132Y-98461339D01*
X121013861Y-98815603D01*
X120359265Y-99470199D01*
X120005001Y-100325470D01*
X111127000Y-100325470D01*
X111127000Y-94924999D01*
X124696594Y-94924999D01*
X124696594Y-95575001D01*
X124741003Y-95798260D01*
X124867469Y-95987531D01*
X125056740Y-96113997D01*
X125279999Y-96158406D01*
X125342341Y-96158406D01*
X125378909Y-96213133D01*
X125404127Y-96250874D01*
X125441867Y-96276091D01*
X127697246Y-98531471D01*
X127722464Y-98569212D01*
X127760204Y-98594429D01*
X127871976Y-98669113D01*
X128048337Y-98704193D01*
X128092855Y-98695338D01*
X129066184Y-98695338D01*
X129031577Y-98729945D01*
X128860001Y-99144165D01*
X128860001Y-99592513D01*
X129031577Y-100006733D01*
X129348607Y-100323763D01*
X129762827Y-100495339D01*
X130211175Y-100495339D01*
X130625395Y-100323763D01*
X130942425Y-100006733D01*
X131114001Y-99592513D01*
X131114001Y-99144165D01*
X130942425Y-98729945D01*
X130907818Y-98695338D01*
X131356184Y-98695338D01*
X131321577Y-98729945D01*
X131150001Y-99144165D01*
X131150001Y-99592513D01*
X131321577Y-100006733D01*
X131638607Y-100323763D01*
X132052827Y-100495339D01*
X132501175Y-100495339D01*
X132915395Y-100323763D01*
X133232425Y-100006733D01*
X133404001Y-99592513D01*
X133404001Y-99144165D01*
X133232425Y-98729945D01*
X133197818Y-98695338D01*
X133254776Y-98695338D01*
X133478868Y-98919431D01*
X133478871Y-98919433D01*
X133517208Y-98957770D01*
X133440001Y-99144165D01*
X133440001Y-99592513D01*
X133611577Y-100006733D01*
X133928607Y-100323763D01*
X134342827Y-100495339D01*
X134791175Y-100495339D01*
X135205395Y-100323763D01*
X135522425Y-100006733D01*
X135694001Y-99592513D01*
X135694001Y-99144165D01*
X135522425Y-98729945D01*
X135205395Y-98412915D01*
X134791175Y-98241339D01*
X134342827Y-98241339D01*
X134156432Y-98318546D01*
X134118095Y-98280209D01*
X134118093Y-98280206D01*
X133793093Y-97955207D01*
X133767874Y-97917464D01*
X133744747Y-97902011D01*
X134751449Y-97902011D01*
X135768868Y-98919431D01*
X135768871Y-98919433D01*
X135807208Y-98957770D01*
X135730001Y-99144165D01*
X135730001Y-99592513D01*
X135901577Y-100006733D01*
X136218607Y-100323763D01*
X136632827Y-100495339D01*
X137081175Y-100495339D01*
X137495395Y-100323763D01*
X137812425Y-100006733D01*
X137984001Y-99592513D01*
X137984001Y-99144165D01*
X137812425Y-98729945D01*
X137495395Y-98412915D01*
X137081175Y-98241339D01*
X136632827Y-98241339D01*
X136446432Y-98318546D01*
X136408095Y-98280209D01*
X136408093Y-98280206D01*
X135579886Y-97452000D01*
X137641438Y-97452000D01*
X138424370Y-98234933D01*
X138347001Y-98234933D01*
X138219412Y-98260312D01*
X138111247Y-98332585D01*
X138038974Y-98440750D01*
X138013595Y-98568339D01*
X138013595Y-100168339D01*
X138024137Y-100221339D01*
X137777827Y-100221339D01*
X137363607Y-100392915D01*
X137046577Y-100709945D01*
X136875001Y-101124165D01*
X136875001Y-101572513D01*
X137046577Y-101986733D01*
X137363607Y-102303763D01*
X137777827Y-102475339D01*
X138226175Y-102475339D01*
X138640395Y-102303763D01*
X138957425Y-101986733D01*
X139129001Y-101572513D01*
X139129001Y-101124165D01*
X138957425Y-100709945D01*
X138749225Y-100501745D01*
X139544777Y-100501745D01*
X139336577Y-100709945D01*
X139165001Y-101124165D01*
X139165001Y-101572513D01*
X139336577Y-101986733D01*
X139653607Y-102303763D01*
X140067827Y-102475339D01*
X140516175Y-102475339D01*
X140930395Y-102303763D01*
X141247425Y-101986733D01*
X141419001Y-101572513D01*
X141419001Y-101124165D01*
X141247425Y-100709945D01*
X140930395Y-100392915D01*
X140767569Y-100325470D01*
X145005001Y-100325470D01*
X145005001Y-101251208D01*
X145359265Y-102106479D01*
X146013861Y-102761075D01*
X146869132Y-103115339D01*
X147794870Y-103115339D01*
X148650141Y-102761075D01*
X149304737Y-102106479D01*
X149659001Y-101251208D01*
X149659001Y-100325470D01*
X149304737Y-99470199D01*
X148650141Y-98815603D01*
X147794870Y-98461339D01*
X146869132Y-98461339D01*
X146013861Y-98815603D01*
X145359265Y-99470199D01*
X145005001Y-100325470D01*
X140767569Y-100325470D01*
X140516175Y-100221339D01*
X140269865Y-100221339D01*
X140280407Y-100168339D01*
X140280407Y-98568339D01*
X140255028Y-98440750D01*
X140182755Y-98332585D01*
X140074590Y-98260312D01*
X139947001Y-98234933D01*
X139591266Y-98234933D01*
X139572776Y-98141977D01*
X139498092Y-98030205D01*
X139472875Y-97992465D01*
X139435135Y-97967248D01*
X138253637Y-96785750D01*
X153730000Y-96785750D01*
X153730000Y-97326310D01*
X153826673Y-97559699D01*
X154005302Y-97738327D01*
X154238691Y-97835000D01*
X154654250Y-97835000D01*
X154813000Y-97676250D01*
X154813000Y-96627000D01*
X153888750Y-96627000D01*
X153730000Y-96785750D01*
X138253637Y-96785750D01*
X138179755Y-96711869D01*
X138154536Y-96674126D01*
X138005024Y-96574225D01*
X137873180Y-96548000D01*
X137828662Y-96539145D01*
X137784144Y-96548000D01*
X133547225Y-96548000D01*
X131961093Y-94961869D01*
X131935874Y-94924126D01*
X131829032Y-94852736D01*
X131798997Y-94701740D01*
X131672531Y-94512469D01*
X131483260Y-94386003D01*
X131260001Y-94341594D01*
X130359999Y-94341594D01*
X130136740Y-94386003D01*
X129947469Y-94512469D01*
X129821003Y-94701740D01*
X129776594Y-94924999D01*
X129776594Y-95575001D01*
X129821003Y-95798260D01*
X129947469Y-95987531D01*
X130136740Y-96113997D01*
X130359999Y-96158406D01*
X131260001Y-96158406D01*
X131483260Y-96113997D01*
X131672531Y-95987531D01*
X131686861Y-95966085D01*
X132718786Y-96998011D01*
X130657235Y-96998011D01*
X129291928Y-95632704D01*
X129303406Y-95575001D01*
X129303406Y-94924999D01*
X129258997Y-94701740D01*
X129132531Y-94512469D01*
X128943260Y-94386003D01*
X128720001Y-94341594D01*
X127819999Y-94341594D01*
X127596740Y-94386003D01*
X127407469Y-94512469D01*
X127281003Y-94701740D01*
X127236594Y-94924999D01*
X127236594Y-95575001D01*
X127281003Y-95798260D01*
X127407469Y-95987531D01*
X127596740Y-96113997D01*
X127819999Y-96158406D01*
X128539182Y-96158406D01*
X130118918Y-97738142D01*
X130144137Y-97775885D01*
X130167264Y-97791338D01*
X128235563Y-97791338D01*
X126496153Y-96051928D01*
X126592531Y-95987531D01*
X126718997Y-95798260D01*
X126763406Y-95575001D01*
X126763406Y-94924999D01*
X126718997Y-94701740D01*
X126592531Y-94512469D01*
X126403260Y-94386003D01*
X126180001Y-94341594D01*
X125279999Y-94341594D01*
X125056740Y-94386003D01*
X124867469Y-94512469D01*
X124741003Y-94701740D01*
X124696594Y-94924999D01*
X111127000Y-94924999D01*
X111127000Y-92874999D01*
X124696594Y-92874999D01*
X124696594Y-93525001D01*
X124741003Y-93748260D01*
X124867469Y-93937531D01*
X125056740Y-94063997D01*
X125279999Y-94108406D01*
X126180001Y-94108406D01*
X126403260Y-94063997D01*
X126592531Y-93937531D01*
X126718997Y-93748260D01*
X126738144Y-93652000D01*
X127261856Y-93652000D01*
X127281003Y-93748260D01*
X127407469Y-93937531D01*
X127596740Y-94063997D01*
X127819999Y-94108406D01*
X128720001Y-94108406D01*
X128943260Y-94063997D01*
X129132531Y-93937531D01*
X129258997Y-93748260D01*
X129278144Y-93652000D01*
X129801856Y-93652000D01*
X129821003Y-93748260D01*
X129947469Y-93937531D01*
X130136740Y-94063997D01*
X130359999Y-94108406D01*
X131260001Y-94108406D01*
X131483260Y-94063997D01*
X131672531Y-93937531D01*
X131798997Y-93748260D01*
X131807197Y-93707037D01*
X131855391Y-93727000D01*
X132144609Y-93727000D01*
X132411813Y-93616321D01*
X132616321Y-93411813D01*
X132727000Y-93144609D01*
X132727000Y-92855391D01*
X132616321Y-92588187D01*
X132411813Y-92383679D01*
X132144609Y-92273000D01*
X131855391Y-92273000D01*
X131588187Y-92383679D01*
X131574739Y-92397127D01*
X131483260Y-92336003D01*
X131260001Y-92291594D01*
X130359999Y-92291594D01*
X130136740Y-92336003D01*
X129947469Y-92462469D01*
X129821003Y-92651740D01*
X129801856Y-92748000D01*
X129278144Y-92748000D01*
X129258997Y-92651740D01*
X129132531Y-92462469D01*
X128943260Y-92336003D01*
X128720001Y-92291594D01*
X127819999Y-92291594D01*
X127596740Y-92336003D01*
X127407469Y-92462469D01*
X127281003Y-92651740D01*
X127261856Y-92748000D01*
X126738144Y-92748000D01*
X126718997Y-92651740D01*
X126592531Y-92462469D01*
X126403260Y-92336003D01*
X126180001Y-92291594D01*
X125279999Y-92291594D01*
X125056740Y-92336003D01*
X124867469Y-92462469D01*
X124741003Y-92651740D01*
X124696594Y-92874999D01*
X111127000Y-92874999D01*
X111127000Y-89114931D01*
X112002115Y-89990046D01*
X113298436Y-90527000D01*
X114701564Y-90527000D01*
X115997885Y-89990046D01*
X116990046Y-88997885D01*
X117527000Y-87701564D01*
X117527000Y-86360000D01*
X120639942Y-86360000D01*
X120731291Y-86819242D01*
X120991431Y-87208569D01*
X121380758Y-87468709D01*
X121724080Y-87537000D01*
X121955920Y-87537000D01*
X122299242Y-87468709D01*
X122688569Y-87208569D01*
X122948709Y-86819242D01*
X123040058Y-86360000D01*
X123179942Y-86360000D01*
X123271291Y-86819242D01*
X123531431Y-87208569D01*
X123920758Y-87468709D01*
X124264080Y-87537000D01*
X124495920Y-87537000D01*
X124839242Y-87468709D01*
X125228569Y-87208569D01*
X125488709Y-86819242D01*
X125580058Y-86360000D01*
X125719942Y-86360000D01*
X125811291Y-86819242D01*
X126071431Y-87208569D01*
X126460758Y-87468709D01*
X126804080Y-87537000D01*
X127035920Y-87537000D01*
X127379242Y-87468709D01*
X127768569Y-87208569D01*
X127855014Y-87079195D01*
X127859224Y-87100362D01*
X127932482Y-87210000D01*
X127959126Y-87249875D01*
X127996866Y-87275092D01*
X128544906Y-87823132D01*
X128570125Y-87860875D01*
X128719637Y-87960776D01*
X128851481Y-87987001D01*
X128851482Y-87987001D01*
X128895998Y-87995856D01*
X128940515Y-87987001D01*
X129347777Y-87987001D01*
X135344600Y-93983825D01*
X135369818Y-94021566D01*
X135418063Y-94053803D01*
X135383679Y-94088187D01*
X135273000Y-94355391D01*
X135273000Y-94644609D01*
X135383679Y-94911813D01*
X135588187Y-95116321D01*
X135855391Y-95227000D01*
X136144609Y-95227000D01*
X136275697Y-95172702D01*
X136587868Y-95172702D01*
X136631879Y-95393962D01*
X136758345Y-95583233D01*
X136947616Y-95709699D01*
X137170875Y-95754108D01*
X137820877Y-95754108D01*
X138044136Y-95709699D01*
X138233407Y-95583233D01*
X138359873Y-95393962D01*
X138404282Y-95170703D01*
X138404282Y-94270701D01*
X138391279Y-94205329D01*
X138634370Y-94448421D01*
X138634373Y-94448423D01*
X138637470Y-94451520D01*
X138637470Y-95170703D01*
X138681879Y-95393962D01*
X138808345Y-95583233D01*
X138997616Y-95709699D01*
X139220875Y-95754108D01*
X139870877Y-95754108D01*
X140094136Y-95709699D01*
X140283407Y-95583233D01*
X140409873Y-95393962D01*
X140425876Y-95313510D01*
X140441879Y-95393962D01*
X140568345Y-95583233D01*
X140757616Y-95709699D01*
X140980875Y-95754108D01*
X141630877Y-95754108D01*
X141854136Y-95709699D01*
X142043407Y-95583233D01*
X142169873Y-95393962D01*
X142214282Y-95170703D01*
X142214282Y-94270701D01*
X142169873Y-94047442D01*
X142043407Y-93858171D01*
X141854136Y-93731705D01*
X141630877Y-93687296D01*
X140980875Y-93687296D01*
X140757616Y-93731705D01*
X140568345Y-93858171D01*
X140441879Y-94047442D01*
X140425876Y-94127894D01*
X140409873Y-94047442D01*
X140283407Y-93858171D01*
X140094136Y-93731705D01*
X139870877Y-93687296D01*
X139220875Y-93687296D01*
X139163173Y-93698774D01*
X138871959Y-93407561D01*
X138846740Y-93369818D01*
X138697228Y-93269917D01*
X138565384Y-93243692D01*
X138520866Y-93234837D01*
X138476348Y-93243692D01*
X135882917Y-93243692D01*
X134255758Y-91616534D01*
X134300210Y-91607692D01*
X135375600Y-91607692D01*
X135273000Y-91855391D01*
X135273000Y-92144609D01*
X135383679Y-92411813D01*
X135588187Y-92616321D01*
X135855391Y-92727000D01*
X136144609Y-92727000D01*
X136411813Y-92616321D01*
X136442904Y-92585230D01*
X136492079Y-92598285D01*
X136504340Y-92606477D01*
X136578527Y-92621234D01*
X136587470Y-92623608D01*
X136587470Y-92630703D01*
X136631879Y-92853962D01*
X136758345Y-93043233D01*
X136947616Y-93169699D01*
X137170875Y-93214108D01*
X137820877Y-93214108D01*
X138044136Y-93169699D01*
X138233407Y-93043233D01*
X138359873Y-92853962D01*
X138404282Y-92630703D01*
X138404282Y-91730701D01*
X138391279Y-91665329D01*
X138634370Y-91908421D01*
X138634373Y-91908423D01*
X138637470Y-91911520D01*
X138637470Y-92630703D01*
X138681879Y-92853962D01*
X138808345Y-93043233D01*
X138997616Y-93169699D01*
X139220875Y-93214108D01*
X139870877Y-93214108D01*
X140094136Y-93169699D01*
X140283407Y-93043233D01*
X140409873Y-92853962D01*
X140425876Y-92773510D01*
X140441879Y-92853962D01*
X140568345Y-93043233D01*
X140757616Y-93169699D01*
X140980875Y-93214108D01*
X141630877Y-93214108D01*
X141854136Y-93169699D01*
X142043407Y-93043233D01*
X142169873Y-92853962D01*
X142214282Y-92630703D01*
X142214282Y-91730701D01*
X142169873Y-91507442D01*
X142043407Y-91318171D01*
X141854136Y-91191705D01*
X141630877Y-91147296D01*
X140980875Y-91147296D01*
X140757616Y-91191705D01*
X140568345Y-91318171D01*
X140441879Y-91507442D01*
X140425876Y-91587894D01*
X140409873Y-91507442D01*
X140283407Y-91318171D01*
X140094136Y-91191705D01*
X139870877Y-91147296D01*
X139220875Y-91147296D01*
X139163173Y-91158774D01*
X138871959Y-90867561D01*
X138846740Y-90829818D01*
X138697228Y-90729917D01*
X138565384Y-90703692D01*
X138520866Y-90694837D01*
X138476348Y-90703692D01*
X134442917Y-90703692D01*
X131282630Y-87543406D01*
X132544182Y-87543406D01*
X133788908Y-88788133D01*
X133814126Y-88825874D01*
X133851866Y-88851091D01*
X133963638Y-88925775D01*
X134139999Y-88960855D01*
X134184517Y-88952000D01*
X135903633Y-88952000D01*
X135728889Y-89024381D01*
X135524381Y-89228889D01*
X135413702Y-89496093D01*
X135413702Y-89785311D01*
X135524381Y-90052515D01*
X135728889Y-90257023D01*
X135996093Y-90367702D01*
X136285311Y-90367702D01*
X136552515Y-90257023D01*
X136609265Y-90200273D01*
X136631879Y-90313962D01*
X136758345Y-90503233D01*
X136947616Y-90629699D01*
X137170875Y-90674108D01*
X137820877Y-90674108D01*
X138044136Y-90629699D01*
X138233407Y-90503233D01*
X138359873Y-90313962D01*
X138404282Y-90090703D01*
X138404282Y-89190701D01*
X138367733Y-89006957D01*
X138637470Y-89276694D01*
X138637470Y-90090703D01*
X138681879Y-90313962D01*
X138808345Y-90503233D01*
X138997616Y-90629699D01*
X139220875Y-90674108D01*
X139870877Y-90674108D01*
X140094136Y-90629699D01*
X140283407Y-90503233D01*
X140409873Y-90313962D01*
X140425876Y-90233510D01*
X140441879Y-90313962D01*
X140568345Y-90503233D01*
X140757616Y-90629699D01*
X140980875Y-90674108D01*
X141630877Y-90674108D01*
X141854136Y-90629699D01*
X142043407Y-90503233D01*
X142169873Y-90313962D01*
X142214282Y-90090703D01*
X142214282Y-89190701D01*
X142169873Y-88967442D01*
X142043407Y-88778171D01*
X141854136Y-88651705D01*
X141630877Y-88607296D01*
X140980875Y-88607296D01*
X140757616Y-88651705D01*
X140568345Y-88778171D01*
X140441879Y-88967442D01*
X140425876Y-89047894D01*
X140409873Y-88967442D01*
X140283407Y-88778171D01*
X140094136Y-88651705D01*
X139870877Y-88607296D01*
X139246520Y-88607296D01*
X138851093Y-88211869D01*
X138825874Y-88174126D01*
X138676362Y-88074225D01*
X138544518Y-88048000D01*
X138500000Y-88039145D01*
X138455482Y-88048000D01*
X134327225Y-88048000D01*
X133183406Y-86904182D01*
X133183406Y-85510000D01*
X139786594Y-85510000D01*
X139786594Y-87210000D01*
X139811973Y-87337589D01*
X139884246Y-87445754D01*
X139992411Y-87518027D01*
X140120000Y-87543406D01*
X141820000Y-87543406D01*
X141947589Y-87518027D01*
X142055754Y-87445754D01*
X142128027Y-87337589D01*
X142153406Y-87210000D01*
X142153406Y-86360000D01*
X142309942Y-86360000D01*
X142401291Y-86819242D01*
X142661431Y-87208569D01*
X143050758Y-87468709D01*
X143058001Y-87470150D01*
X143058001Y-88162114D01*
X143049145Y-88206636D01*
X143084225Y-88382997D01*
X143125137Y-88444226D01*
X143184127Y-88532510D01*
X143221867Y-88557727D01*
X143271436Y-88607296D01*
X143030875Y-88607296D01*
X142807616Y-88651705D01*
X142618345Y-88778171D01*
X142491879Y-88967442D01*
X142447470Y-89190701D01*
X142447470Y-90090703D01*
X142491879Y-90313962D01*
X142618345Y-90503233D01*
X142807616Y-90629699D01*
X142958613Y-90659734D01*
X142987985Y-90703692D01*
X143030003Y-90766576D01*
X143067743Y-90791793D01*
X143423246Y-91147296D01*
X143030875Y-91147296D01*
X142807616Y-91191705D01*
X142618345Y-91318171D01*
X142491879Y-91507442D01*
X142447470Y-91730701D01*
X142447470Y-92630703D01*
X142491879Y-92853962D01*
X142618345Y-93043233D01*
X142807616Y-93169699D01*
X143030875Y-93214108D01*
X143680877Y-93214108D01*
X143738580Y-93202630D01*
X144386113Y-93850164D01*
X144298957Y-93867500D01*
X144277716Y-93871725D01*
X144156556Y-93952681D01*
X144093407Y-93858171D01*
X143904136Y-93731705D01*
X143680877Y-93687296D01*
X143030875Y-93687296D01*
X142807616Y-93731705D01*
X142618345Y-93858171D01*
X142491879Y-94047442D01*
X142447470Y-94270701D01*
X142447470Y-95170703D01*
X142491879Y-95393962D01*
X142618345Y-95583233D01*
X142807616Y-95709699D01*
X143030875Y-95754108D01*
X143680877Y-95754108D01*
X143904136Y-95709699D01*
X144093407Y-95583233D01*
X144219873Y-95393962D01*
X144259697Y-95193750D01*
X145770000Y-95193750D01*
X145770000Y-95263810D01*
X145866673Y-95497199D01*
X146045302Y-95675827D01*
X146278691Y-95772500D01*
X147099250Y-95772500D01*
X147258000Y-95613750D01*
X147258000Y-95035000D01*
X145928750Y-95035000D01*
X145770000Y-95193750D01*
X144259697Y-95193750D01*
X144264282Y-95170703D01*
X144264282Y-95108361D01*
X144356750Y-95046576D01*
X144381969Y-95008833D01*
X144641303Y-94749500D01*
X145848250Y-94749500D01*
X145928750Y-94830000D01*
X146375308Y-94830000D01*
X146405000Y-94835906D01*
X147532000Y-94835906D01*
X147532000Y-95035000D01*
X147512000Y-95035000D01*
X147512000Y-95613750D01*
X147670750Y-95772500D01*
X148491309Y-95772500D01*
X148724698Y-95675827D01*
X148903327Y-95497199D01*
X148935200Y-95420251D01*
X149428106Y-95913157D01*
X149453324Y-95950898D01*
X149491064Y-95976115D01*
X149602836Y-96050799D01*
X149779197Y-96085879D01*
X149823715Y-96077024D01*
X153367960Y-96077024D01*
X153412478Y-96085879D01*
X153456996Y-96077024D01*
X153588840Y-96050799D01*
X153730000Y-95956479D01*
X153730000Y-96214250D01*
X153888750Y-96373000D01*
X154813000Y-96373000D01*
X154813000Y-95323750D01*
X154654250Y-95165000D01*
X154511727Y-95165000D01*
X155228134Y-94448593D01*
X155265874Y-94423376D01*
X155365775Y-94273864D01*
X155392000Y-94142020D01*
X155392000Y-94142019D01*
X155400855Y-94097503D01*
X155392000Y-94052986D01*
X155392000Y-92448144D01*
X155488260Y-92428997D01*
X155677531Y-92302531D01*
X155803997Y-92113260D01*
X155848406Y-91890001D01*
X155848406Y-91170819D01*
X156094597Y-90924628D01*
X156081594Y-90989999D01*
X156081594Y-91890001D01*
X156126003Y-92113260D01*
X156252469Y-92302531D01*
X156441740Y-92428997D01*
X156538001Y-92448144D01*
X156538001Y-92455478D01*
X156529145Y-92500000D01*
X156538000Y-92544518D01*
X156538001Y-93935478D01*
X156529145Y-93980000D01*
X156538000Y-94024518D01*
X156538001Y-95491856D01*
X156441740Y-95511003D01*
X156252469Y-95637469D01*
X156150000Y-95790826D01*
X156150000Y-95673690D01*
X156053327Y-95440301D01*
X155874698Y-95261673D01*
X155641309Y-95165000D01*
X155225750Y-95165000D01*
X155067000Y-95323750D01*
X155067000Y-96373000D01*
X155087000Y-96373000D01*
X155087000Y-96627000D01*
X155067000Y-96627000D01*
X155067000Y-97676250D01*
X155225750Y-97835000D01*
X155641309Y-97835000D01*
X155874698Y-97738327D01*
X156053327Y-97559699D01*
X156150000Y-97326310D01*
X156150000Y-97209174D01*
X156252469Y-97362531D01*
X156441740Y-97488997D01*
X156664999Y-97533406D01*
X157315001Y-97533406D01*
X157376564Y-97521160D01*
X158195989Y-98335213D01*
X158591594Y-98730818D01*
X158591594Y-99450001D01*
X158636003Y-99673260D01*
X158762469Y-99862531D01*
X158951740Y-99988997D01*
X159174999Y-100033406D01*
X159825001Y-100033406D01*
X160048260Y-99988997D01*
X160237531Y-99862531D01*
X160340000Y-99709174D01*
X160340000Y-99826310D01*
X160436673Y-100059699D01*
X160615302Y-100238327D01*
X160848691Y-100335000D01*
X161264250Y-100335000D01*
X161423000Y-100176250D01*
X161423000Y-99127000D01*
X161677000Y-99127000D01*
X161677000Y-100176250D01*
X161835750Y-100335000D01*
X162251309Y-100335000D01*
X162484698Y-100238327D01*
X162663327Y-100059699D01*
X162760000Y-99826310D01*
X162760000Y-99285750D01*
X162601250Y-99127000D01*
X161677000Y-99127000D01*
X161423000Y-99127000D01*
X161403000Y-99127000D01*
X161403000Y-98873000D01*
X161423000Y-98873000D01*
X161423000Y-97823750D01*
X161677000Y-97823750D01*
X161677000Y-98873000D01*
X162601250Y-98873000D01*
X162760000Y-98714250D01*
X162760000Y-98173690D01*
X162663327Y-97940301D01*
X162484698Y-97761673D01*
X162251309Y-97665000D01*
X161835750Y-97665000D01*
X161677000Y-97823750D01*
X161423000Y-97823750D01*
X161264250Y-97665000D01*
X160848691Y-97665000D01*
X160615302Y-97761673D01*
X160436673Y-97940301D01*
X160340000Y-98173690D01*
X160340000Y-98290826D01*
X160237531Y-98137469D01*
X160048260Y-98011003D01*
X159825001Y-97966594D01*
X159174999Y-97966594D01*
X159117296Y-97978072D01*
X158865560Y-97726336D01*
X158865140Y-97725712D01*
X158834037Y-97694813D01*
X158803132Y-97663908D01*
X158802509Y-97663492D01*
X157898406Y-96765318D01*
X157898406Y-96740749D01*
X158215000Y-96740749D01*
X158215000Y-96906309D01*
X158311673Y-97139698D01*
X158490302Y-97318326D01*
X158723691Y-97414999D01*
X159094250Y-97414999D01*
X159253000Y-97256249D01*
X159253000Y-96581999D01*
X159507000Y-96581999D01*
X159507000Y-97256249D01*
X159665750Y-97414999D01*
X160036309Y-97414999D01*
X160269698Y-97318326D01*
X160448327Y-97139698D01*
X160480000Y-97063233D01*
X160511673Y-97139698D01*
X160690302Y-97318326D01*
X160923691Y-97414999D01*
X161294250Y-97414999D01*
X161453000Y-97256249D01*
X161453000Y-96581999D01*
X161707000Y-96581999D01*
X161707000Y-97256249D01*
X161865750Y-97414999D01*
X162236309Y-97414999D01*
X162469698Y-97318326D01*
X162648327Y-97139698D01*
X162745000Y-96906309D01*
X162745000Y-96740749D01*
X162586250Y-96581999D01*
X161707000Y-96581999D01*
X161453000Y-96581999D01*
X160573750Y-96581999D01*
X160480000Y-96675749D01*
X160386250Y-96581999D01*
X159507000Y-96581999D01*
X159253000Y-96581999D01*
X158373750Y-96581999D01*
X158215000Y-96740749D01*
X157898406Y-96740749D01*
X157898406Y-96049999D01*
X157853997Y-95826740D01*
X157727531Y-95637469D01*
X157538260Y-95511003D01*
X157442000Y-95491856D01*
X157442000Y-95071225D01*
X158163908Y-95793132D01*
X158189125Y-95830873D01*
X158265457Y-95881876D01*
X158215000Y-96003689D01*
X158215000Y-96169249D01*
X158373750Y-96327999D01*
X159253000Y-96327999D01*
X159253000Y-96307999D01*
X159507000Y-96307999D01*
X159507000Y-96327999D01*
X160386250Y-96327999D01*
X160480000Y-96234249D01*
X160573750Y-96327999D01*
X161453000Y-96327999D01*
X161453000Y-96307999D01*
X161707000Y-96307999D01*
X161707000Y-96327999D01*
X162586250Y-96327999D01*
X162745000Y-96169249D01*
X162745000Y-96003689D01*
X162725660Y-95956999D01*
X162747774Y-95956999D01*
X162908071Y-96117296D01*
X162896593Y-96174999D01*
X162896593Y-96825001D01*
X162941002Y-97048260D01*
X163067468Y-97237531D01*
X163256739Y-97363997D01*
X163479998Y-97408406D01*
X164380000Y-97408406D01*
X164603259Y-97363997D01*
X164792530Y-97237531D01*
X164918996Y-97048260D01*
X164963405Y-96825001D01*
X164963405Y-96174999D01*
X164918996Y-95951740D01*
X164792530Y-95762469D01*
X164603259Y-95636003D01*
X164380000Y-95591594D01*
X163660817Y-95591594D01*
X163414626Y-95345403D01*
X163479998Y-95358406D01*
X164380000Y-95358406D01*
X164603259Y-95313997D01*
X164792530Y-95187531D01*
X164918996Y-94998260D01*
X164963405Y-94775001D01*
X164963405Y-94124999D01*
X164918996Y-93901740D01*
X164792530Y-93712469D01*
X164603259Y-93586003D01*
X164380000Y-93541594D01*
X163479998Y-93541594D01*
X163256739Y-93586003D01*
X163067468Y-93712469D01*
X162941002Y-93901740D01*
X162921855Y-93998000D01*
X162348263Y-93998000D01*
X162345754Y-93994245D01*
X162237589Y-93921972D01*
X162110000Y-93896593D01*
X161050000Y-93896593D01*
X160922411Y-93921972D01*
X160814246Y-93994245D01*
X160741973Y-94102410D01*
X160716594Y-94229999D01*
X160716594Y-94879999D01*
X160741973Y-95007588D01*
X160756947Y-95029999D01*
X160741973Y-95052410D01*
X160716594Y-95179999D01*
X160716594Y-95580781D01*
X160690302Y-95591672D01*
X160511673Y-95770300D01*
X160480000Y-95846765D01*
X160448327Y-95770300D01*
X160269698Y-95591672D01*
X160243406Y-95580781D01*
X160243406Y-95179999D01*
X160218027Y-95052410D01*
X160203053Y-95029999D01*
X160218027Y-95007588D01*
X160243406Y-94879999D01*
X160243406Y-94229999D01*
X160218027Y-94102410D01*
X160145754Y-93994245D01*
X160037589Y-93921972D01*
X159910000Y-93896593D01*
X159907000Y-93896593D01*
X159907000Y-92408144D01*
X160003260Y-92388997D01*
X160192531Y-92262531D01*
X160318997Y-92073260D01*
X160363406Y-91850001D01*
X160363406Y-90949999D01*
X160596594Y-90949999D01*
X160596594Y-91850001D01*
X160641003Y-92073260D01*
X160767469Y-92262531D01*
X160956740Y-92388997D01*
X161179999Y-92433406D01*
X161830001Y-92433406D01*
X162053260Y-92388997D01*
X162242531Y-92262531D01*
X162368997Y-92073260D01*
X162398219Y-91926353D01*
X162588187Y-92116321D01*
X162855391Y-92227000D01*
X163144609Y-92227000D01*
X163411813Y-92116321D01*
X163616321Y-91911813D01*
X163727000Y-91644609D01*
X163727000Y-91355391D01*
X163616321Y-91088187D01*
X163411813Y-90883679D01*
X163144609Y-90773000D01*
X162855391Y-90773000D01*
X162588187Y-90883679D01*
X162523866Y-90948000D01*
X162413008Y-90948000D01*
X162368997Y-90726740D01*
X162242531Y-90537469D01*
X162053260Y-90411003D01*
X161830001Y-90366594D01*
X161179999Y-90366594D01*
X160956740Y-90411003D01*
X160767469Y-90537469D01*
X160641003Y-90726740D01*
X160596594Y-90949999D01*
X160363406Y-90949999D01*
X160318997Y-90726740D01*
X160192531Y-90537469D01*
X160003260Y-90411003D01*
X159780001Y-90366594D01*
X159129999Y-90366594D01*
X159072296Y-90378072D01*
X158821083Y-90126859D01*
X158795864Y-90089116D01*
X158646352Y-89989215D01*
X158514508Y-89962990D01*
X158469990Y-89954135D01*
X158425472Y-89962990D01*
X156009527Y-89962990D01*
X155965009Y-89954135D01*
X155862762Y-89974473D01*
X155788648Y-89989215D01*
X155639136Y-90089116D01*
X155613918Y-90126857D01*
X155322704Y-90418072D01*
X155265001Y-90406594D01*
X154614999Y-90406594D01*
X154391740Y-90451003D01*
X154202469Y-90577469D01*
X154092001Y-90742797D01*
X154092001Y-88914517D01*
X154100856Y-88870000D01*
X154092001Y-88825483D01*
X154065776Y-88693639D01*
X153965875Y-88544127D01*
X153928134Y-88518910D01*
X152331092Y-86921868D01*
X152331090Y-86921865D01*
X152234607Y-86825382D01*
X152238709Y-86819242D01*
X152273218Y-86645750D01*
X157265000Y-86645750D01*
X157265000Y-87336309D01*
X157361673Y-87569698D01*
X157540301Y-87748327D01*
X157773690Y-87845000D01*
X158464250Y-87845000D01*
X158623000Y-87686250D01*
X158623000Y-86487000D01*
X157423750Y-86487000D01*
X157265000Y-86645750D01*
X152273218Y-86645750D01*
X152330058Y-86360000D01*
X152238709Y-85900758D01*
X151978569Y-85511431D01*
X151787393Y-85383691D01*
X157265000Y-85383691D01*
X157265000Y-86074250D01*
X157423750Y-86233000D01*
X158623000Y-86233000D01*
X158623000Y-85033750D01*
X158877000Y-85033750D01*
X158877000Y-86233000D01*
X158897000Y-86233000D01*
X158897000Y-86487000D01*
X158877000Y-86487000D01*
X158877000Y-87686250D01*
X159035750Y-87845000D01*
X159726310Y-87845000D01*
X159959699Y-87748327D01*
X160138327Y-87569698D01*
X160235000Y-87336309D01*
X160235000Y-86899623D01*
X160441431Y-87208569D01*
X160830758Y-87468709D01*
X161174080Y-87537000D01*
X161405920Y-87537000D01*
X161749242Y-87468709D01*
X162138569Y-87208569D01*
X162398709Y-86819242D01*
X162490058Y-86360000D01*
X162398709Y-85900758D01*
X162138569Y-85511431D01*
X161749242Y-85251291D01*
X161405920Y-85183000D01*
X161174080Y-85183000D01*
X160830758Y-85251291D01*
X160441431Y-85511431D01*
X160235000Y-85820377D01*
X160235000Y-85383691D01*
X160138327Y-85150302D01*
X159959699Y-84971673D01*
X159726310Y-84875000D01*
X159035750Y-84875000D01*
X158877000Y-85033750D01*
X158623000Y-85033750D01*
X158464250Y-84875000D01*
X157773690Y-84875000D01*
X157540301Y-84971673D01*
X157361673Y-85150302D01*
X157265000Y-85383691D01*
X151787393Y-85383691D01*
X151589242Y-85251291D01*
X151245920Y-85183000D01*
X151014080Y-85183000D01*
X150670758Y-85251291D01*
X150281431Y-85511431D01*
X150021291Y-85900758D01*
X149929942Y-86360000D01*
X150021291Y-86819242D01*
X150281431Y-87208569D01*
X150670758Y-87468709D01*
X151014080Y-87537000D01*
X151245920Y-87537000D01*
X151589242Y-87468709D01*
X151595382Y-87464607D01*
X151691865Y-87561090D01*
X151691868Y-87561092D01*
X153188002Y-89057227D01*
X153188002Y-89949094D01*
X151355000Y-89949094D01*
X151227411Y-89974473D01*
X151136077Y-90035500D01*
X150866922Y-90035500D01*
X150866680Y-90034915D01*
X150662172Y-89830407D01*
X150394968Y-89719728D01*
X150105750Y-89719728D01*
X149891999Y-89808266D01*
X149891999Y-87254516D01*
X149900854Y-87209998D01*
X149865774Y-87033637D01*
X149791090Y-86921865D01*
X149765873Y-86884125D01*
X149728132Y-86858907D01*
X149694607Y-86825382D01*
X149698709Y-86819242D01*
X149790058Y-86360000D01*
X149698709Y-85900758D01*
X149438569Y-85511431D01*
X149049242Y-85251291D01*
X148705920Y-85183000D01*
X148474080Y-85183000D01*
X148130758Y-85251291D01*
X147741431Y-85511431D01*
X147481291Y-85900758D01*
X147389942Y-86360000D01*
X147481291Y-86819242D01*
X147741431Y-87208569D01*
X148130758Y-87468709D01*
X148474080Y-87537000D01*
X148705920Y-87537000D01*
X148988000Y-87480891D01*
X148988000Y-88658775D01*
X147251092Y-86921868D01*
X147251090Y-86921865D01*
X147154607Y-86825382D01*
X147158709Y-86819242D01*
X147250058Y-86360000D01*
X147158709Y-85900758D01*
X146898569Y-85511431D01*
X146509242Y-85251291D01*
X146165920Y-85183000D01*
X145934080Y-85183000D01*
X145590758Y-85251291D01*
X145201431Y-85511431D01*
X144941291Y-85900758D01*
X144849942Y-86360000D01*
X144941291Y-86819242D01*
X145201431Y-87208569D01*
X145590758Y-87468709D01*
X145934080Y-87537000D01*
X146165920Y-87537000D01*
X146509242Y-87468709D01*
X146515382Y-87464607D01*
X146611865Y-87561090D01*
X146611868Y-87561092D01*
X148537989Y-89487214D01*
X148537989Y-90004808D01*
X148492589Y-89974473D01*
X148365000Y-89949094D01*
X148079040Y-89949094D01*
X148116321Y-89911813D01*
X148227000Y-89644609D01*
X148227000Y-89355391D01*
X148116321Y-89088187D01*
X147911813Y-88883679D01*
X147644609Y-88773000D01*
X147355391Y-88773000D01*
X147088187Y-88883679D01*
X146883679Y-89088187D01*
X146773000Y-89355391D01*
X146773000Y-89644609D01*
X146883679Y-89911813D01*
X146920960Y-89949094D01*
X146405000Y-89949094D01*
X146277411Y-89974473D01*
X146169246Y-90046746D01*
X146097184Y-90154596D01*
X143962000Y-88019412D01*
X143962000Y-87470150D01*
X143969242Y-87468709D01*
X144358569Y-87208569D01*
X144618709Y-86819242D01*
X144710058Y-86360000D01*
X144618709Y-85900758D01*
X144358569Y-85511431D01*
X143969242Y-85251291D01*
X143625920Y-85183000D01*
X143394080Y-85183000D01*
X143050758Y-85251291D01*
X142661431Y-85511431D01*
X142401291Y-85900758D01*
X142309942Y-86360000D01*
X142153406Y-86360000D01*
X142153406Y-85510000D01*
X142128027Y-85382411D01*
X142055754Y-85274246D01*
X141947589Y-85201973D01*
X141820000Y-85176594D01*
X140120000Y-85176594D01*
X139992411Y-85201973D01*
X139884246Y-85274246D01*
X139811973Y-85382411D01*
X139786594Y-85510000D01*
X133183406Y-85510000D01*
X133158027Y-85382411D01*
X133085754Y-85274246D01*
X132977589Y-85201973D01*
X132850000Y-85176594D01*
X131150000Y-85176594D01*
X131022411Y-85201973D01*
X130914246Y-85274246D01*
X130841973Y-85382411D01*
X130816594Y-85510000D01*
X130816594Y-87077370D01*
X130564606Y-86825382D01*
X130568709Y-86819242D01*
X130660058Y-86360000D01*
X130568709Y-85900758D01*
X130308569Y-85511431D01*
X129919242Y-85251291D01*
X129575920Y-85183000D01*
X129344080Y-85183000D01*
X129000758Y-85251291D01*
X128611431Y-85511431D01*
X128351291Y-85900758D01*
X128349077Y-85911891D01*
X128329517Y-85908000D01*
X128284999Y-85899145D01*
X128240481Y-85908000D01*
X128030150Y-85908000D01*
X128028709Y-85900758D01*
X127768569Y-85511431D01*
X127379242Y-85251291D01*
X127035920Y-85183000D01*
X126804080Y-85183000D01*
X126460758Y-85251291D01*
X126071431Y-85511431D01*
X125811291Y-85900758D01*
X125719942Y-86360000D01*
X125580058Y-86360000D01*
X125488709Y-85900758D01*
X125228569Y-85511431D01*
X124839242Y-85251291D01*
X124495920Y-85183000D01*
X124264080Y-85183000D01*
X123920758Y-85251291D01*
X123531431Y-85511431D01*
X123271291Y-85900758D01*
X123179942Y-86360000D01*
X123040058Y-86360000D01*
X122948709Y-85900758D01*
X122688569Y-85511431D01*
X122299242Y-85251291D01*
X121955920Y-85183000D01*
X121724080Y-85183000D01*
X121380758Y-85251291D01*
X120991431Y-85511431D01*
X120731291Y-85900758D01*
X120639942Y-86360000D01*
X117527000Y-86360000D01*
X117527000Y-86298436D01*
X116990046Y-85002115D01*
X116114931Y-84127000D01*
X168885069Y-84127000D01*
X168009954Y-85002115D01*
X168009954Y-85002115D01*
G37*
X168009954Y-85002115D02*
X167473000Y-86298436D01*
X167473000Y-87701564D01*
X168009954Y-88997885D01*
X169002115Y-89990046D01*
X170298436Y-90527000D01*
X171701564Y-90527000D01*
X172997885Y-89990046D01*
X173873000Y-89114931D01*
X173873000Y-105885069D01*
X172997885Y-105009954D01*
X171701564Y-104473000D01*
X170298436Y-104473000D01*
X169002115Y-105009954D01*
X168009954Y-106002115D01*
X167473000Y-107298436D01*
X167473000Y-108701564D01*
X168009954Y-109997885D01*
X168885069Y-110873000D01*
X166509001Y-110873000D01*
X166509001Y-110666043D01*
X166306977Y-110178315D01*
X165933686Y-109805024D01*
X165445958Y-109603000D01*
X164918044Y-109603000D01*
X164430316Y-109805024D01*
X164057025Y-110178315D01*
X163855001Y-110666043D01*
X163855001Y-110873000D01*
X154509001Y-110873000D01*
X154509001Y-110804120D01*
X154568003Y-110815856D01*
X154612521Y-110807001D01*
X161962482Y-110807001D01*
X162007000Y-110815856D01*
X162051518Y-110807001D01*
X162183362Y-110780776D01*
X162332874Y-110680875D01*
X162358093Y-110643132D01*
X162683093Y-110318133D01*
X162683095Y-110318130D01*
X162733164Y-110268061D01*
X162947881Y-110357000D01*
X163416121Y-110357000D01*
X163848718Y-110177813D01*
X164179814Y-109846717D01*
X164359001Y-109414120D01*
X164359001Y-108945880D01*
X164179814Y-108513283D01*
X163848718Y-108182187D01*
X163657615Y-108103030D01*
X163966081Y-107975259D01*
X164046354Y-107723958D01*
X163182001Y-106859605D01*
X162317648Y-107723958D01*
X162397921Y-107975259D01*
X162726817Y-108094567D01*
X162515284Y-108182187D01*
X162184188Y-108513283D01*
X162005001Y-108945880D01*
X162005001Y-109414120D01*
X162093940Y-109628837D01*
X162043871Y-109678906D01*
X162043868Y-109678908D01*
X161819776Y-109903001D01*
X160123530Y-109903001D01*
X160179814Y-109846717D01*
X160359001Y-109414120D01*
X160359001Y-108945880D01*
X160179814Y-108513283D01*
X159848718Y-108182187D01*
X159416121Y-108003000D01*
X158947881Y-108003000D01*
X158515284Y-108182187D01*
X158184188Y-108513283D01*
X158005001Y-108945880D01*
X158005001Y-109414120D01*
X158184188Y-109846717D01*
X158240472Y-109903001D01*
X156123530Y-109903001D01*
X156179814Y-109846717D01*
X156359001Y-109414120D01*
X156359001Y-108945880D01*
X156270063Y-108731163D01*
X156383091Y-108618135D01*
X156383093Y-108618132D01*
X156645135Y-108356091D01*
X156682876Y-108330873D01*
X156782777Y-108181361D01*
X156809002Y-108049517D01*
X156809002Y-108049516D01*
X156817857Y-108005000D01*
X156809002Y-107960483D01*
X156809002Y-106445880D01*
X158005001Y-106445880D01*
X158005001Y-106914120D01*
X158184188Y-107346717D01*
X158515284Y-107677813D01*
X158947881Y-107857000D01*
X159416121Y-107857000D01*
X159848718Y-107677813D01*
X160179814Y-107346717D01*
X160359001Y-106914120D01*
X160359001Y-106451279D01*
X161685283Y-106451279D01*
X161711686Y-107041458D01*
X161886742Y-107464080D01*
X162138043Y-107544353D01*
X163002396Y-106680000D01*
X162138043Y-105815647D01*
X161886742Y-105895920D01*
X161685283Y-106451279D01*
X160359001Y-106451279D01*
X160359001Y-106445880D01*
X160179814Y-106013283D01*
X159848718Y-105682187D01*
X159737314Y-105636042D01*
X162317648Y-105636042D01*
X163182001Y-106500395D01*
X163196144Y-106486253D01*
X163375749Y-106665858D01*
X163361606Y-106680000D01*
X164225959Y-107544353D01*
X164477260Y-107464080D01*
X164678719Y-106908721D01*
X164652316Y-106318542D01*
X164566511Y-106111390D01*
X164918044Y-106257000D01*
X165445958Y-106257000D01*
X165933686Y-106054976D01*
X166306977Y-105681685D01*
X166509001Y-105193957D01*
X166509001Y-104666043D01*
X166306977Y-104178315D01*
X165933686Y-103805024D01*
X165445958Y-103603000D01*
X164918044Y-103603000D01*
X164430316Y-103805024D01*
X164057025Y-104178315D01*
X163855001Y-104666043D01*
X163855001Y-105193957D01*
X163928358Y-105371057D01*
X163410722Y-105183282D01*
X162820543Y-105209685D01*
X162397921Y-105384741D01*
X162317648Y-105636042D01*
X159737314Y-105636042D01*
X159416121Y-105503000D01*
X158947881Y-105503000D01*
X158515284Y-105682187D01*
X158184188Y-106013283D01*
X158005001Y-106445880D01*
X156809002Y-106445880D01*
X156809002Y-104901519D01*
X156817857Y-104857001D01*
X156782777Y-104680640D01*
X156748741Y-104629702D01*
X156682876Y-104531128D01*
X156645136Y-104505911D01*
X154727000Y-102587776D01*
X154727000Y-102355391D01*
X154616321Y-102088187D01*
X154411813Y-101883679D01*
X154144609Y-101773000D01*
X153855391Y-101773000D01*
X153588187Y-101883679D01*
X153383679Y-102088187D01*
X153273000Y-102355391D01*
X153273000Y-102644609D01*
X153383679Y-102911813D01*
X153588187Y-103116321D01*
X153855391Y-103227000D01*
X154087776Y-103227000D01*
X155905002Y-105044227D01*
X155905002Y-105738471D01*
X155848718Y-105682187D01*
X155416121Y-105503000D01*
X154947881Y-105503000D01*
X154515284Y-105682187D01*
X154184188Y-106013283D01*
X154005001Y-106445880D01*
X154005001Y-106914120D01*
X154184188Y-107346717D01*
X154515284Y-107677813D01*
X154947881Y-107857000D01*
X155416121Y-107857000D01*
X155848718Y-107677813D01*
X155905003Y-107621528D01*
X155905003Y-107817773D01*
X155743869Y-107978908D01*
X155743866Y-107978910D01*
X155630838Y-108091938D01*
X155416121Y-108003000D01*
X154947881Y-108003000D01*
X154515284Y-108182187D01*
X154184188Y-108513283D01*
X154005001Y-108945880D01*
X154005001Y-109152773D01*
X149518271Y-104666043D01*
X151855001Y-104666043D01*
X151855001Y-105193957D01*
X152057025Y-105681685D01*
X152430316Y-106054976D01*
X152918044Y-106257000D01*
X153445958Y-106257000D01*
X153933686Y-106054976D01*
X154306977Y-105681685D01*
X154509001Y-105193957D01*
X154509001Y-104666043D01*
X154306977Y-104178315D01*
X153933686Y-103805024D01*
X153445958Y-103603000D01*
X152918044Y-103603000D01*
X152430316Y-103805024D01*
X152057025Y-104178315D01*
X151855001Y-104666043D01*
X149518271Y-104666043D01*
X149017436Y-104165209D01*
X148992217Y-104127466D01*
X148842705Y-104027565D01*
X148710861Y-104001340D01*
X148666343Y-103992485D01*
X148621825Y-104001340D01*
X140067818Y-104001340D01*
X140102425Y-103966733D01*
X140274001Y-103552513D01*
X140274001Y-103104165D01*
X140102425Y-102689945D01*
X139785395Y-102372915D01*
X139371175Y-102201339D01*
X138922827Y-102201339D01*
X138508607Y-102372915D01*
X138191577Y-102689945D01*
X138020001Y-103104165D01*
X138020001Y-103552513D01*
X138191577Y-103966733D01*
X138226184Y-104001340D01*
X137777818Y-104001340D01*
X137812425Y-103966733D01*
X137984001Y-103552513D01*
X137984001Y-103104165D01*
X137812425Y-102689945D01*
X137495395Y-102372915D01*
X137081175Y-102201339D01*
X136632827Y-102201339D01*
X136218607Y-102372915D01*
X135901577Y-102689945D01*
X135730001Y-103104165D01*
X135730001Y-103552513D01*
X135901577Y-103966733D01*
X135936184Y-104001340D01*
X135879227Y-104001340D01*
X135616794Y-103738907D01*
X135694001Y-103552513D01*
X135694001Y-103104165D01*
X135522425Y-102689945D01*
X135205395Y-102372915D01*
X134791175Y-102201339D01*
X134342827Y-102201339D01*
X133928607Y-102372915D01*
X133611577Y-102689945D01*
X133440001Y-103104165D01*
X133440001Y-103552513D01*
X133611577Y-103966733D01*
X133928607Y-104283763D01*
X134342827Y-104455339D01*
X134791175Y-104455339D01*
X134977569Y-104378132D01*
X135340910Y-104741473D01*
X135366128Y-104779214D01*
X135482544Y-104857001D01*
X135515640Y-104879115D01*
X135692002Y-104914195D01*
X135736520Y-104905340D01*
X148479119Y-104905340D01*
X153176778Y-109603000D01*
X152918044Y-109603000D01*
X152430316Y-109805024D01*
X152057025Y-110178315D01*
X151855001Y-110666043D01*
X151855001Y-110873000D01*
X116114931Y-110873000D01*
X116990046Y-109997885D01*
X117527000Y-108701564D01*
X117527000Y-107298436D01*
X116990046Y-106002115D01*
X115997885Y-105009954D01*
X114701564Y-104473000D01*
X113298436Y-104473000D01*
X112002115Y-105009954D01*
X111127000Y-105885069D01*
X111127000Y-100325470D01*
X120005001Y-100325470D01*
X120005001Y-101251208D01*
X120359265Y-102106479D01*
X121013861Y-102761075D01*
X121869132Y-103115339D01*
X122794870Y-103115339D01*
X122821846Y-103104165D01*
X128860001Y-103104165D01*
X128860001Y-103552513D01*
X129031577Y-103966733D01*
X129348607Y-104283763D01*
X129762827Y-104455339D01*
X130211175Y-104455339D01*
X130625395Y-104283763D01*
X130942425Y-103966733D01*
X131114001Y-103552513D01*
X131114001Y-103104165D01*
X131150001Y-103104165D01*
X131150001Y-103552513D01*
X131321577Y-103966733D01*
X131638607Y-104283763D01*
X132052827Y-104455339D01*
X132501175Y-104455339D01*
X132915395Y-104283763D01*
X133232425Y-103966733D01*
X133404001Y-103552513D01*
X133404001Y-103104165D01*
X133232425Y-102689945D01*
X132915395Y-102372915D01*
X132501175Y-102201339D01*
X132052827Y-102201339D01*
X131638607Y-102372915D01*
X131321577Y-102689945D01*
X131150001Y-103104165D01*
X131114001Y-103104165D01*
X130942425Y-102689945D01*
X130625395Y-102372915D01*
X130211175Y-102201339D01*
X129762827Y-102201339D01*
X129348607Y-102372915D01*
X129031577Y-102689945D01*
X128860001Y-103104165D01*
X122821846Y-103104165D01*
X123650141Y-102761075D01*
X124304737Y-102106479D01*
X124659001Y-101251208D01*
X124659001Y-101124165D01*
X130005001Y-101124165D01*
X130005001Y-101572513D01*
X130176577Y-101986733D01*
X130493607Y-102303763D01*
X130907827Y-102475339D01*
X131356175Y-102475339D01*
X131770395Y-102303763D01*
X132087425Y-101986733D01*
X132259001Y-101572513D01*
X132259001Y-101124165D01*
X132295001Y-101124165D01*
X132295001Y-101572513D01*
X132466577Y-101986733D01*
X132783607Y-102303763D01*
X133197827Y-102475339D01*
X133646175Y-102475339D01*
X134060395Y-102303763D01*
X134377425Y-101986733D01*
X134549001Y-101572513D01*
X134549001Y-101124165D01*
X134585001Y-101124165D01*
X134585001Y-101572513D01*
X134756577Y-101986733D01*
X135073607Y-102303763D01*
X135487827Y-102475339D01*
X135936175Y-102475339D01*
X136350395Y-102303763D01*
X136667425Y-101986733D01*
X136839001Y-101572513D01*
X136839001Y-101124165D01*
X136667425Y-100709945D01*
X136350395Y-100392915D01*
X135936175Y-100221339D01*
X135487827Y-100221339D01*
X135073607Y-100392915D01*
X134756577Y-100709945D01*
X134585001Y-101124165D01*
X134549001Y-101124165D01*
X134377425Y-100709945D01*
X134060395Y-100392915D01*
X133646175Y-100221339D01*
X133197827Y-100221339D01*
X132783607Y-100392915D01*
X132466577Y-100709945D01*
X132295001Y-101124165D01*
X132259001Y-101124165D01*
X132087425Y-100709945D01*
X131770395Y-100392915D01*
X131356175Y-100221339D01*
X130907827Y-100221339D01*
X130493607Y-100392915D01*
X130176577Y-100709945D01*
X130005001Y-101124165D01*
X124659001Y-101124165D01*
X124659001Y-100325470D01*
X124304737Y-99470199D01*
X123650141Y-98815603D01*
X122794870Y-98461339D01*
X121869132Y-98461339D01*
X121013861Y-98815603D01*
X120359265Y-99470199D01*
X120005001Y-100325470D01*
X111127000Y-100325470D01*
X111127000Y-94924999D01*
X124696594Y-94924999D01*
X124696594Y-95575001D01*
X124741003Y-95798260D01*
X124867469Y-95987531D01*
X125056740Y-96113997D01*
X125279999Y-96158406D01*
X125342341Y-96158406D01*
X125378909Y-96213133D01*
X125404127Y-96250874D01*
X125441867Y-96276091D01*
X127697246Y-98531471D01*
X127722464Y-98569212D01*
X127760204Y-98594429D01*
X127871976Y-98669113D01*
X128048337Y-98704193D01*
X128092855Y-98695338D01*
X129066184Y-98695338D01*
X129031577Y-98729945D01*
X128860001Y-99144165D01*
X128860001Y-99592513D01*
X129031577Y-100006733D01*
X129348607Y-100323763D01*
X129762827Y-100495339D01*
X130211175Y-100495339D01*
X130625395Y-100323763D01*
X130942425Y-100006733D01*
X131114001Y-99592513D01*
X131114001Y-99144165D01*
X130942425Y-98729945D01*
X130907818Y-98695338D01*
X131356184Y-98695338D01*
X131321577Y-98729945D01*
X131150001Y-99144165D01*
X131150001Y-99592513D01*
X131321577Y-100006733D01*
X131638607Y-100323763D01*
X132052827Y-100495339D01*
X132501175Y-100495339D01*
X132915395Y-100323763D01*
X133232425Y-100006733D01*
X133404001Y-99592513D01*
X133404001Y-99144165D01*
X133232425Y-98729945D01*
X133197818Y-98695338D01*
X133254776Y-98695338D01*
X133478868Y-98919431D01*
X133478871Y-98919433D01*
X133517208Y-98957770D01*
X133440001Y-99144165D01*
X133440001Y-99592513D01*
X133611577Y-100006733D01*
X133928607Y-100323763D01*
X134342827Y-100495339D01*
X134791175Y-100495339D01*
X135205395Y-100323763D01*
X135522425Y-100006733D01*
X135694001Y-99592513D01*
X135694001Y-99144165D01*
X135522425Y-98729945D01*
X135205395Y-98412915D01*
X134791175Y-98241339D01*
X134342827Y-98241339D01*
X134156432Y-98318546D01*
X134118095Y-98280209D01*
X134118093Y-98280206D01*
X133793093Y-97955207D01*
X133767874Y-97917464D01*
X133744747Y-97902011D01*
X134751449Y-97902011D01*
X135768868Y-98919431D01*
X135768871Y-98919433D01*
X135807208Y-98957770D01*
X135730001Y-99144165D01*
X135730001Y-99592513D01*
X135901577Y-100006733D01*
X136218607Y-100323763D01*
X136632827Y-100495339D01*
X137081175Y-100495339D01*
X137495395Y-100323763D01*
X137812425Y-100006733D01*
X137984001Y-99592513D01*
X137984001Y-99144165D01*
X137812425Y-98729945D01*
X137495395Y-98412915D01*
X137081175Y-98241339D01*
X136632827Y-98241339D01*
X136446432Y-98318546D01*
X136408095Y-98280209D01*
X136408093Y-98280206D01*
X135579886Y-97452000D01*
X137641438Y-97452000D01*
X138424370Y-98234933D01*
X138347001Y-98234933D01*
X138219412Y-98260312D01*
X138111247Y-98332585D01*
X138038974Y-98440750D01*
X138013595Y-98568339D01*
X138013595Y-100168339D01*
X138024137Y-100221339D01*
X137777827Y-100221339D01*
X137363607Y-100392915D01*
X137046577Y-100709945D01*
X136875001Y-101124165D01*
X136875001Y-101572513D01*
X137046577Y-101986733D01*
X137363607Y-102303763D01*
X137777827Y-102475339D01*
X138226175Y-102475339D01*
X138640395Y-102303763D01*
X138957425Y-101986733D01*
X139129001Y-101572513D01*
X139129001Y-101124165D01*
X138957425Y-100709945D01*
X138749225Y-100501745D01*
X139544777Y-100501745D01*
X139336577Y-100709945D01*
X139165001Y-101124165D01*
X139165001Y-101572513D01*
X139336577Y-101986733D01*
X139653607Y-102303763D01*
X140067827Y-102475339D01*
X140516175Y-102475339D01*
X140930395Y-102303763D01*
X141247425Y-101986733D01*
X141419001Y-101572513D01*
X141419001Y-101124165D01*
X141247425Y-100709945D01*
X140930395Y-100392915D01*
X140767569Y-100325470D01*
X145005001Y-100325470D01*
X145005001Y-101251208D01*
X145359265Y-102106479D01*
X146013861Y-102761075D01*
X146869132Y-103115339D01*
X147794870Y-103115339D01*
X148650141Y-102761075D01*
X149304737Y-102106479D01*
X149659001Y-101251208D01*
X149659001Y-100325470D01*
X149304737Y-99470199D01*
X148650141Y-98815603D01*
X147794870Y-98461339D01*
X146869132Y-98461339D01*
X146013861Y-98815603D01*
X145359265Y-99470199D01*
X145005001Y-100325470D01*
X140767569Y-100325470D01*
X140516175Y-100221339D01*
X140269865Y-100221339D01*
X140280407Y-100168339D01*
X140280407Y-98568339D01*
X140255028Y-98440750D01*
X140182755Y-98332585D01*
X140074590Y-98260312D01*
X139947001Y-98234933D01*
X139591266Y-98234933D01*
X139572776Y-98141977D01*
X139498092Y-98030205D01*
X139472875Y-97992465D01*
X139435135Y-97967248D01*
X138253637Y-96785750D01*
X153730000Y-96785750D01*
X153730000Y-97326310D01*
X153826673Y-97559699D01*
X154005302Y-97738327D01*
X154238691Y-97835000D01*
X154654250Y-97835000D01*
X154813000Y-97676250D01*
X154813000Y-96627000D01*
X153888750Y-96627000D01*
X153730000Y-96785750D01*
X138253637Y-96785750D01*
X138179755Y-96711869D01*
X138154536Y-96674126D01*
X138005024Y-96574225D01*
X137873180Y-96548000D01*
X137828662Y-96539145D01*
X137784144Y-96548000D01*
X133547225Y-96548000D01*
X131961093Y-94961869D01*
X131935874Y-94924126D01*
X131829032Y-94852736D01*
X131798997Y-94701740D01*
X131672531Y-94512469D01*
X131483260Y-94386003D01*
X131260001Y-94341594D01*
X130359999Y-94341594D01*
X130136740Y-94386003D01*
X129947469Y-94512469D01*
X129821003Y-94701740D01*
X129776594Y-94924999D01*
X129776594Y-95575001D01*
X129821003Y-95798260D01*
X129947469Y-95987531D01*
X130136740Y-96113997D01*
X130359999Y-96158406D01*
X131260001Y-96158406D01*
X131483260Y-96113997D01*
X131672531Y-95987531D01*
X131686861Y-95966085D01*
X132718786Y-96998011D01*
X130657235Y-96998011D01*
X129291928Y-95632704D01*
X129303406Y-95575001D01*
X129303406Y-94924999D01*
X129258997Y-94701740D01*
X129132531Y-94512469D01*
X128943260Y-94386003D01*
X128720001Y-94341594D01*
X127819999Y-94341594D01*
X127596740Y-94386003D01*
X127407469Y-94512469D01*
X127281003Y-94701740D01*
X127236594Y-94924999D01*
X127236594Y-95575001D01*
X127281003Y-95798260D01*
X127407469Y-95987531D01*
X127596740Y-96113997D01*
X127819999Y-96158406D01*
X128539182Y-96158406D01*
X130118918Y-97738142D01*
X130144137Y-97775885D01*
X130167264Y-97791338D01*
X128235563Y-97791338D01*
X126496153Y-96051928D01*
X126592531Y-95987531D01*
X126718997Y-95798260D01*
X126763406Y-95575001D01*
X126763406Y-94924999D01*
X126718997Y-94701740D01*
X126592531Y-94512469D01*
X126403260Y-94386003D01*
X126180001Y-94341594D01*
X125279999Y-94341594D01*
X125056740Y-94386003D01*
X124867469Y-94512469D01*
X124741003Y-94701740D01*
X124696594Y-94924999D01*
X111127000Y-94924999D01*
X111127000Y-92874999D01*
X124696594Y-92874999D01*
X124696594Y-93525001D01*
X124741003Y-93748260D01*
X124867469Y-93937531D01*
X125056740Y-94063997D01*
X125279999Y-94108406D01*
X126180001Y-94108406D01*
X126403260Y-94063997D01*
X126592531Y-93937531D01*
X126718997Y-93748260D01*
X126738144Y-93652000D01*
X127261856Y-93652000D01*
X127281003Y-93748260D01*
X127407469Y-93937531D01*
X127596740Y-94063997D01*
X127819999Y-94108406D01*
X128720001Y-94108406D01*
X128943260Y-94063997D01*
X129132531Y-93937531D01*
X129258997Y-93748260D01*
X129278144Y-93652000D01*
X129801856Y-93652000D01*
X129821003Y-93748260D01*
X129947469Y-93937531D01*
X130136740Y-94063997D01*
X130359999Y-94108406D01*
X131260001Y-94108406D01*
X131483260Y-94063997D01*
X131672531Y-93937531D01*
X131798997Y-93748260D01*
X131807197Y-93707037D01*
X131855391Y-93727000D01*
X132144609Y-93727000D01*
X132411813Y-93616321D01*
X132616321Y-93411813D01*
X132727000Y-93144609D01*
X132727000Y-92855391D01*
X132616321Y-92588187D01*
X132411813Y-92383679D01*
X132144609Y-92273000D01*
X131855391Y-92273000D01*
X131588187Y-92383679D01*
X131574739Y-92397127D01*
X131483260Y-92336003D01*
X131260001Y-92291594D01*
X130359999Y-92291594D01*
X130136740Y-92336003D01*
X129947469Y-92462469D01*
X129821003Y-92651740D01*
X129801856Y-92748000D01*
X129278144Y-92748000D01*
X129258997Y-92651740D01*
X129132531Y-92462469D01*
X128943260Y-92336003D01*
X128720001Y-92291594D01*
X127819999Y-92291594D01*
X127596740Y-92336003D01*
X127407469Y-92462469D01*
X127281003Y-92651740D01*
X127261856Y-92748000D01*
X126738144Y-92748000D01*
X126718997Y-92651740D01*
X126592531Y-92462469D01*
X126403260Y-92336003D01*
X126180001Y-92291594D01*
X125279999Y-92291594D01*
X125056740Y-92336003D01*
X124867469Y-92462469D01*
X124741003Y-92651740D01*
X124696594Y-92874999D01*
X111127000Y-92874999D01*
X111127000Y-89114931D01*
X112002115Y-89990046D01*
X113298436Y-90527000D01*
X114701564Y-90527000D01*
X115997885Y-89990046D01*
X116990046Y-88997885D01*
X117527000Y-87701564D01*
X117527000Y-86360000D01*
X120639942Y-86360000D01*
X120731291Y-86819242D01*
X120991431Y-87208569D01*
X121380758Y-87468709D01*
X121724080Y-87537000D01*
X121955920Y-87537000D01*
X122299242Y-87468709D01*
X122688569Y-87208569D01*
X122948709Y-86819242D01*
X123040058Y-86360000D01*
X123179942Y-86360000D01*
X123271291Y-86819242D01*
X123531431Y-87208569D01*
X123920758Y-87468709D01*
X124264080Y-87537000D01*
X124495920Y-87537000D01*
X124839242Y-87468709D01*
X125228569Y-87208569D01*
X125488709Y-86819242D01*
X125580058Y-86360000D01*
X125719942Y-86360000D01*
X125811291Y-86819242D01*
X126071431Y-87208569D01*
X126460758Y-87468709D01*
X126804080Y-87537000D01*
X127035920Y-87537000D01*
X127379242Y-87468709D01*
X127768569Y-87208569D01*
X127855014Y-87079195D01*
X127859224Y-87100362D01*
X127932482Y-87210000D01*
X127959126Y-87249875D01*
X127996866Y-87275092D01*
X128544906Y-87823132D01*
X128570125Y-87860875D01*
X128719637Y-87960776D01*
X128851481Y-87987001D01*
X128851482Y-87987001D01*
X128895998Y-87995856D01*
X128940515Y-87987001D01*
X129347777Y-87987001D01*
X135344600Y-93983825D01*
X135369818Y-94021566D01*
X135418063Y-94053803D01*
X135383679Y-94088187D01*
X135273000Y-94355391D01*
X135273000Y-94644609D01*
X135383679Y-94911813D01*
X135588187Y-95116321D01*
X135855391Y-95227000D01*
X136144609Y-95227000D01*
X136275697Y-95172702D01*
X136587868Y-95172702D01*
X136631879Y-95393962D01*
X136758345Y-95583233D01*
X136947616Y-95709699D01*
X137170875Y-95754108D01*
X137820877Y-95754108D01*
X138044136Y-95709699D01*
X138233407Y-95583233D01*
X138359873Y-95393962D01*
X138404282Y-95170703D01*
X138404282Y-94270701D01*
X138391279Y-94205329D01*
X138634370Y-94448421D01*
X138634373Y-94448423D01*
X138637470Y-94451520D01*
X138637470Y-95170703D01*
X138681879Y-95393962D01*
X138808345Y-95583233D01*
X138997616Y-95709699D01*
X139220875Y-95754108D01*
X139870877Y-95754108D01*
X140094136Y-95709699D01*
X140283407Y-95583233D01*
X140409873Y-95393962D01*
X140425876Y-95313510D01*
X140441879Y-95393962D01*
X140568345Y-95583233D01*
X140757616Y-95709699D01*
X140980875Y-95754108D01*
X141630877Y-95754108D01*
X141854136Y-95709699D01*
X142043407Y-95583233D01*
X142169873Y-95393962D01*
X142214282Y-95170703D01*
X142214282Y-94270701D01*
X142169873Y-94047442D01*
X142043407Y-93858171D01*
X141854136Y-93731705D01*
X141630877Y-93687296D01*
X140980875Y-93687296D01*
X140757616Y-93731705D01*
X140568345Y-93858171D01*
X140441879Y-94047442D01*
X140425876Y-94127894D01*
X140409873Y-94047442D01*
X140283407Y-93858171D01*
X140094136Y-93731705D01*
X139870877Y-93687296D01*
X139220875Y-93687296D01*
X139163173Y-93698774D01*
X138871959Y-93407561D01*
X138846740Y-93369818D01*
X138697228Y-93269917D01*
X138565384Y-93243692D01*
X138520866Y-93234837D01*
X138476348Y-93243692D01*
X135882917Y-93243692D01*
X134255758Y-91616534D01*
X134300210Y-91607692D01*
X135375600Y-91607692D01*
X135273000Y-91855391D01*
X135273000Y-92144609D01*
X135383679Y-92411813D01*
X135588187Y-92616321D01*
X135855391Y-92727000D01*
X136144609Y-92727000D01*
X136411813Y-92616321D01*
X136442904Y-92585230D01*
X136492079Y-92598285D01*
X136504340Y-92606477D01*
X136578527Y-92621234D01*
X136587470Y-92623608D01*
X136587470Y-92630703D01*
X136631879Y-92853962D01*
X136758345Y-93043233D01*
X136947616Y-93169699D01*
X137170875Y-93214108D01*
X137820877Y-93214108D01*
X138044136Y-93169699D01*
X138233407Y-93043233D01*
X138359873Y-92853962D01*
X138404282Y-92630703D01*
X138404282Y-91730701D01*
X138391279Y-91665329D01*
X138634370Y-91908421D01*
X138634373Y-91908423D01*
X138637470Y-91911520D01*
X138637470Y-92630703D01*
X138681879Y-92853962D01*
X138808345Y-93043233D01*
X138997616Y-93169699D01*
X139220875Y-93214108D01*
X139870877Y-93214108D01*
X140094136Y-93169699D01*
X140283407Y-93043233D01*
X140409873Y-92853962D01*
X140425876Y-92773510D01*
X140441879Y-92853962D01*
X140568345Y-93043233D01*
X140757616Y-93169699D01*
X140980875Y-93214108D01*
X141630877Y-93214108D01*
X141854136Y-93169699D01*
X142043407Y-93043233D01*
X142169873Y-92853962D01*
X142214282Y-92630703D01*
X142214282Y-91730701D01*
X142169873Y-91507442D01*
X142043407Y-91318171D01*
X141854136Y-91191705D01*
X141630877Y-91147296D01*
X140980875Y-91147296D01*
X140757616Y-91191705D01*
X140568345Y-91318171D01*
X140441879Y-91507442D01*
X140425876Y-91587894D01*
X140409873Y-91507442D01*
X140283407Y-91318171D01*
X140094136Y-91191705D01*
X139870877Y-91147296D01*
X139220875Y-91147296D01*
X139163173Y-91158774D01*
X138871959Y-90867561D01*
X138846740Y-90829818D01*
X138697228Y-90729917D01*
X138565384Y-90703692D01*
X138520866Y-90694837D01*
X138476348Y-90703692D01*
X134442917Y-90703692D01*
X131282630Y-87543406D01*
X132544182Y-87543406D01*
X133788908Y-88788133D01*
X133814126Y-88825874D01*
X133851866Y-88851091D01*
X133963638Y-88925775D01*
X134139999Y-88960855D01*
X134184517Y-88952000D01*
X135903633Y-88952000D01*
X135728889Y-89024381D01*
X135524381Y-89228889D01*
X135413702Y-89496093D01*
X135413702Y-89785311D01*
X135524381Y-90052515D01*
X135728889Y-90257023D01*
X135996093Y-90367702D01*
X136285311Y-90367702D01*
X136552515Y-90257023D01*
X136609265Y-90200273D01*
X136631879Y-90313962D01*
X136758345Y-90503233D01*
X136947616Y-90629699D01*
X137170875Y-90674108D01*
X137820877Y-90674108D01*
X138044136Y-90629699D01*
X138233407Y-90503233D01*
X138359873Y-90313962D01*
X138404282Y-90090703D01*
X138404282Y-89190701D01*
X138367733Y-89006957D01*
X138637470Y-89276694D01*
X138637470Y-90090703D01*
X138681879Y-90313962D01*
X138808345Y-90503233D01*
X138997616Y-90629699D01*
X139220875Y-90674108D01*
X139870877Y-90674108D01*
X140094136Y-90629699D01*
X140283407Y-90503233D01*
X140409873Y-90313962D01*
X140425876Y-90233510D01*
X140441879Y-90313962D01*
X140568345Y-90503233D01*
X140757616Y-90629699D01*
X140980875Y-90674108D01*
X141630877Y-90674108D01*
X141854136Y-90629699D01*
X142043407Y-90503233D01*
X142169873Y-90313962D01*
X142214282Y-90090703D01*
X142214282Y-89190701D01*
X142169873Y-88967442D01*
X142043407Y-88778171D01*
X141854136Y-88651705D01*
X141630877Y-88607296D01*
X140980875Y-88607296D01*
X140757616Y-88651705D01*
X140568345Y-88778171D01*
X140441879Y-88967442D01*
X140425876Y-89047894D01*
X140409873Y-88967442D01*
X140283407Y-88778171D01*
X140094136Y-88651705D01*
X139870877Y-88607296D01*
X139246520Y-88607296D01*
X138851093Y-88211869D01*
X138825874Y-88174126D01*
X138676362Y-88074225D01*
X138544518Y-88048000D01*
X138500000Y-88039145D01*
X138455482Y-88048000D01*
X134327225Y-88048000D01*
X133183406Y-86904182D01*
X133183406Y-85510000D01*
X139786594Y-85510000D01*
X139786594Y-87210000D01*
X139811973Y-87337589D01*
X139884246Y-87445754D01*
X139992411Y-87518027D01*
X140120000Y-87543406D01*
X141820000Y-87543406D01*
X141947589Y-87518027D01*
X142055754Y-87445754D01*
X142128027Y-87337589D01*
X142153406Y-87210000D01*
X142153406Y-86360000D01*
X142309942Y-86360000D01*
X142401291Y-86819242D01*
X142661431Y-87208569D01*
X143050758Y-87468709D01*
X143058001Y-87470150D01*
X143058001Y-88162114D01*
X143049145Y-88206636D01*
X143084225Y-88382997D01*
X143125137Y-88444226D01*
X143184127Y-88532510D01*
X143221867Y-88557727D01*
X143271436Y-88607296D01*
X143030875Y-88607296D01*
X142807616Y-88651705D01*
X142618345Y-88778171D01*
X142491879Y-88967442D01*
X142447470Y-89190701D01*
X142447470Y-90090703D01*
X142491879Y-90313962D01*
X142618345Y-90503233D01*
X142807616Y-90629699D01*
X142958613Y-90659734D01*
X142987985Y-90703692D01*
X143030003Y-90766576D01*
X143067743Y-90791793D01*
X143423246Y-91147296D01*
X143030875Y-91147296D01*
X142807616Y-91191705D01*
X142618345Y-91318171D01*
X142491879Y-91507442D01*
X142447470Y-91730701D01*
X142447470Y-92630703D01*
X142491879Y-92853962D01*
X142618345Y-93043233D01*
X142807616Y-93169699D01*
X143030875Y-93214108D01*
X143680877Y-93214108D01*
X143738580Y-93202630D01*
X144386113Y-93850164D01*
X144298957Y-93867500D01*
X144277716Y-93871725D01*
X144156556Y-93952681D01*
X144093407Y-93858171D01*
X143904136Y-93731705D01*
X143680877Y-93687296D01*
X143030875Y-93687296D01*
X142807616Y-93731705D01*
X142618345Y-93858171D01*
X142491879Y-94047442D01*
X142447470Y-94270701D01*
X142447470Y-95170703D01*
X142491879Y-95393962D01*
X142618345Y-95583233D01*
X142807616Y-95709699D01*
X143030875Y-95754108D01*
X143680877Y-95754108D01*
X143904136Y-95709699D01*
X144093407Y-95583233D01*
X144219873Y-95393962D01*
X144259697Y-95193750D01*
X145770000Y-95193750D01*
X145770000Y-95263810D01*
X145866673Y-95497199D01*
X146045302Y-95675827D01*
X146278691Y-95772500D01*
X147099250Y-95772500D01*
X147258000Y-95613750D01*
X147258000Y-95035000D01*
X145928750Y-95035000D01*
X145770000Y-95193750D01*
X144259697Y-95193750D01*
X144264282Y-95170703D01*
X144264282Y-95108361D01*
X144356750Y-95046576D01*
X144381969Y-95008833D01*
X144641303Y-94749500D01*
X145848250Y-94749500D01*
X145928750Y-94830000D01*
X146375308Y-94830000D01*
X146405000Y-94835906D01*
X147532000Y-94835906D01*
X147532000Y-95035000D01*
X147512000Y-95035000D01*
X147512000Y-95613750D01*
X147670750Y-95772500D01*
X148491309Y-95772500D01*
X148724698Y-95675827D01*
X148903327Y-95497199D01*
X148935200Y-95420251D01*
X149428106Y-95913157D01*
X149453324Y-95950898D01*
X149491064Y-95976115D01*
X149602836Y-96050799D01*
X149779197Y-96085879D01*
X149823715Y-96077024D01*
X153367960Y-96077024D01*
X153412478Y-96085879D01*
X153456996Y-96077024D01*
X153588840Y-96050799D01*
X153730000Y-95956479D01*
X153730000Y-96214250D01*
X153888750Y-96373000D01*
X154813000Y-96373000D01*
X154813000Y-95323750D01*
X154654250Y-95165000D01*
X154511727Y-95165000D01*
X155228134Y-94448593D01*
X155265874Y-94423376D01*
X155365775Y-94273864D01*
X155392000Y-94142020D01*
X155392000Y-94142019D01*
X155400855Y-94097503D01*
X155392000Y-94052986D01*
X155392000Y-92448144D01*
X155488260Y-92428997D01*
X155677531Y-92302531D01*
X155803997Y-92113260D01*
X155848406Y-91890001D01*
X155848406Y-91170819D01*
X156094597Y-90924628D01*
X156081594Y-90989999D01*
X156081594Y-91890001D01*
X156126003Y-92113260D01*
X156252469Y-92302531D01*
X156441740Y-92428997D01*
X156538001Y-92448144D01*
X156538001Y-92455478D01*
X156529145Y-92500000D01*
X156538000Y-92544518D01*
X156538001Y-93935478D01*
X156529145Y-93980000D01*
X156538000Y-94024518D01*
X156538001Y-95491856D01*
X156441740Y-95511003D01*
X156252469Y-95637469D01*
X156150000Y-95790826D01*
X156150000Y-95673690D01*
X156053327Y-95440301D01*
X155874698Y-95261673D01*
X155641309Y-95165000D01*
X155225750Y-95165000D01*
X155067000Y-95323750D01*
X155067000Y-96373000D01*
X155087000Y-96373000D01*
X155087000Y-96627000D01*
X155067000Y-96627000D01*
X155067000Y-97676250D01*
X155225750Y-97835000D01*
X155641309Y-97835000D01*
X155874698Y-97738327D01*
X156053327Y-97559699D01*
X156150000Y-97326310D01*
X156150000Y-97209174D01*
X156252469Y-97362531D01*
X156441740Y-97488997D01*
X156664999Y-97533406D01*
X157315001Y-97533406D01*
X157376564Y-97521160D01*
X158195989Y-98335213D01*
X158591594Y-98730818D01*
X158591594Y-99450001D01*
X158636003Y-99673260D01*
X158762469Y-99862531D01*
X158951740Y-99988997D01*
X159174999Y-100033406D01*
X159825001Y-100033406D01*
X160048260Y-99988997D01*
X160237531Y-99862531D01*
X160340000Y-99709174D01*
X160340000Y-99826310D01*
X160436673Y-100059699D01*
X160615302Y-100238327D01*
X160848691Y-100335000D01*
X161264250Y-100335000D01*
X161423000Y-100176250D01*
X161423000Y-99127000D01*
X161677000Y-99127000D01*
X161677000Y-100176250D01*
X161835750Y-100335000D01*
X162251309Y-100335000D01*
X162484698Y-100238327D01*
X162663327Y-100059699D01*
X162760000Y-99826310D01*
X162760000Y-99285750D01*
X162601250Y-99127000D01*
X161677000Y-99127000D01*
X161423000Y-99127000D01*
X161403000Y-99127000D01*
X161403000Y-98873000D01*
X161423000Y-98873000D01*
X161423000Y-97823750D01*
X161677000Y-97823750D01*
X161677000Y-98873000D01*
X162601250Y-98873000D01*
X162760000Y-98714250D01*
X162760000Y-98173690D01*
X162663327Y-97940301D01*
X162484698Y-97761673D01*
X162251309Y-97665000D01*
X161835750Y-97665000D01*
X161677000Y-97823750D01*
X161423000Y-97823750D01*
X161264250Y-97665000D01*
X160848691Y-97665000D01*
X160615302Y-97761673D01*
X160436673Y-97940301D01*
X160340000Y-98173690D01*
X160340000Y-98290826D01*
X160237531Y-98137469D01*
X160048260Y-98011003D01*
X159825001Y-97966594D01*
X159174999Y-97966594D01*
X159117296Y-97978072D01*
X158865560Y-97726336D01*
X158865140Y-97725712D01*
X158834037Y-97694813D01*
X158803132Y-97663908D01*
X158802509Y-97663492D01*
X157898406Y-96765318D01*
X157898406Y-96740749D01*
X158215000Y-96740749D01*
X158215000Y-96906309D01*
X158311673Y-97139698D01*
X158490302Y-97318326D01*
X158723691Y-97414999D01*
X159094250Y-97414999D01*
X159253000Y-97256249D01*
X159253000Y-96581999D01*
X159507000Y-96581999D01*
X159507000Y-97256249D01*
X159665750Y-97414999D01*
X160036309Y-97414999D01*
X160269698Y-97318326D01*
X160448327Y-97139698D01*
X160480000Y-97063233D01*
X160511673Y-97139698D01*
X160690302Y-97318326D01*
X160923691Y-97414999D01*
X161294250Y-97414999D01*
X161453000Y-97256249D01*
X161453000Y-96581999D01*
X161707000Y-96581999D01*
X161707000Y-97256249D01*
X161865750Y-97414999D01*
X162236309Y-97414999D01*
X162469698Y-97318326D01*
X162648327Y-97139698D01*
X162745000Y-96906309D01*
X162745000Y-96740749D01*
X162586250Y-96581999D01*
X161707000Y-96581999D01*
X161453000Y-96581999D01*
X160573750Y-96581999D01*
X160480000Y-96675749D01*
X160386250Y-96581999D01*
X159507000Y-96581999D01*
X159253000Y-96581999D01*
X158373750Y-96581999D01*
X158215000Y-96740749D01*
X157898406Y-96740749D01*
X157898406Y-96049999D01*
X157853997Y-95826740D01*
X157727531Y-95637469D01*
X157538260Y-95511003D01*
X157442000Y-95491856D01*
X157442000Y-95071225D01*
X158163908Y-95793132D01*
X158189125Y-95830873D01*
X158265457Y-95881876D01*
X158215000Y-96003689D01*
X158215000Y-96169249D01*
X158373750Y-96327999D01*
X159253000Y-96327999D01*
X159253000Y-96307999D01*
X159507000Y-96307999D01*
X159507000Y-96327999D01*
X160386250Y-96327999D01*
X160480000Y-96234249D01*
X160573750Y-96327999D01*
X161453000Y-96327999D01*
X161453000Y-96307999D01*
X161707000Y-96307999D01*
X161707000Y-96327999D01*
X162586250Y-96327999D01*
X162745000Y-96169249D01*
X162745000Y-96003689D01*
X162725660Y-95956999D01*
X162747774Y-95956999D01*
X162908071Y-96117296D01*
X162896593Y-96174999D01*
X162896593Y-96825001D01*
X162941002Y-97048260D01*
X163067468Y-97237531D01*
X163256739Y-97363997D01*
X163479998Y-97408406D01*
X164380000Y-97408406D01*
X164603259Y-97363997D01*
X164792530Y-97237531D01*
X164918996Y-97048260D01*
X164963405Y-96825001D01*
X164963405Y-96174999D01*
X164918996Y-95951740D01*
X164792530Y-95762469D01*
X164603259Y-95636003D01*
X164380000Y-95591594D01*
X163660817Y-95591594D01*
X163414626Y-95345403D01*
X163479998Y-95358406D01*
X164380000Y-95358406D01*
X164603259Y-95313997D01*
X164792530Y-95187531D01*
X164918996Y-94998260D01*
X164963405Y-94775001D01*
X164963405Y-94124999D01*
X164918996Y-93901740D01*
X164792530Y-93712469D01*
X164603259Y-93586003D01*
X164380000Y-93541594D01*
X163479998Y-93541594D01*
X163256739Y-93586003D01*
X163067468Y-93712469D01*
X162941002Y-93901740D01*
X162921855Y-93998000D01*
X162348263Y-93998000D01*
X162345754Y-93994245D01*
X162237589Y-93921972D01*
X162110000Y-93896593D01*
X161050000Y-93896593D01*
X160922411Y-93921972D01*
X160814246Y-93994245D01*
X160741973Y-94102410D01*
X160716594Y-94229999D01*
X160716594Y-94879999D01*
X160741973Y-95007588D01*
X160756947Y-95029999D01*
X160741973Y-95052410D01*
X160716594Y-95179999D01*
X160716594Y-95580781D01*
X160690302Y-95591672D01*
X160511673Y-95770300D01*
X160480000Y-95846765D01*
X160448327Y-95770300D01*
X160269698Y-95591672D01*
X160243406Y-95580781D01*
X160243406Y-95179999D01*
X160218027Y-95052410D01*
X160203053Y-95029999D01*
X160218027Y-95007588D01*
X160243406Y-94879999D01*
X160243406Y-94229999D01*
X160218027Y-94102410D01*
X160145754Y-93994245D01*
X160037589Y-93921972D01*
X159910000Y-93896593D01*
X159907000Y-93896593D01*
X159907000Y-92408144D01*
X160003260Y-92388997D01*
X160192531Y-92262531D01*
X160318997Y-92073260D01*
X160363406Y-91850001D01*
X160363406Y-90949999D01*
X160596594Y-90949999D01*
X160596594Y-91850001D01*
X160641003Y-92073260D01*
X160767469Y-92262531D01*
X160956740Y-92388997D01*
X161179999Y-92433406D01*
X161830001Y-92433406D01*
X162053260Y-92388997D01*
X162242531Y-92262531D01*
X162368997Y-92073260D01*
X162398219Y-91926353D01*
X162588187Y-92116321D01*
X162855391Y-92227000D01*
X163144609Y-92227000D01*
X163411813Y-92116321D01*
X163616321Y-91911813D01*
X163727000Y-91644609D01*
X163727000Y-91355391D01*
X163616321Y-91088187D01*
X163411813Y-90883679D01*
X163144609Y-90773000D01*
X162855391Y-90773000D01*
X162588187Y-90883679D01*
X162523866Y-90948000D01*
X162413008Y-90948000D01*
X162368997Y-90726740D01*
X162242531Y-90537469D01*
X162053260Y-90411003D01*
X161830001Y-90366594D01*
X161179999Y-90366594D01*
X160956740Y-90411003D01*
X160767469Y-90537469D01*
X160641003Y-90726740D01*
X160596594Y-90949999D01*
X160363406Y-90949999D01*
X160318997Y-90726740D01*
X160192531Y-90537469D01*
X160003260Y-90411003D01*
X159780001Y-90366594D01*
X159129999Y-90366594D01*
X159072296Y-90378072D01*
X158821083Y-90126859D01*
X158795864Y-90089116D01*
X158646352Y-89989215D01*
X158514508Y-89962990D01*
X158469990Y-89954135D01*
X158425472Y-89962990D01*
X156009527Y-89962990D01*
X155965009Y-89954135D01*
X155862762Y-89974473D01*
X155788648Y-89989215D01*
X155639136Y-90089116D01*
X155613918Y-90126857D01*
X155322704Y-90418072D01*
X155265001Y-90406594D01*
X154614999Y-90406594D01*
X154391740Y-90451003D01*
X154202469Y-90577469D01*
X154092001Y-90742797D01*
X154092001Y-88914517D01*
X154100856Y-88870000D01*
X154092001Y-88825483D01*
X154065776Y-88693639D01*
X153965875Y-88544127D01*
X153928134Y-88518910D01*
X152331092Y-86921868D01*
X152331090Y-86921865D01*
X152234607Y-86825382D01*
X152238709Y-86819242D01*
X152273218Y-86645750D01*
X157265000Y-86645750D01*
X157265000Y-87336309D01*
X157361673Y-87569698D01*
X157540301Y-87748327D01*
X157773690Y-87845000D01*
X158464250Y-87845000D01*
X158623000Y-87686250D01*
X158623000Y-86487000D01*
X157423750Y-86487000D01*
X157265000Y-86645750D01*
X152273218Y-86645750D01*
X152330058Y-86360000D01*
X152238709Y-85900758D01*
X151978569Y-85511431D01*
X151787393Y-85383691D01*
X157265000Y-85383691D01*
X157265000Y-86074250D01*
X157423750Y-86233000D01*
X158623000Y-86233000D01*
X158623000Y-85033750D01*
X158877000Y-85033750D01*
X158877000Y-86233000D01*
X158897000Y-86233000D01*
X158897000Y-86487000D01*
X158877000Y-86487000D01*
X158877000Y-87686250D01*
X159035750Y-87845000D01*
X159726310Y-87845000D01*
X159959699Y-87748327D01*
X160138327Y-87569698D01*
X160235000Y-87336309D01*
X160235000Y-86899623D01*
X160441431Y-87208569D01*
X160830758Y-87468709D01*
X161174080Y-87537000D01*
X161405920Y-87537000D01*
X161749242Y-87468709D01*
X162138569Y-87208569D01*
X162398709Y-86819242D01*
X162490058Y-86360000D01*
X162398709Y-85900758D01*
X162138569Y-85511431D01*
X161749242Y-85251291D01*
X161405920Y-85183000D01*
X161174080Y-85183000D01*
X160830758Y-85251291D01*
X160441431Y-85511431D01*
X160235000Y-85820377D01*
X160235000Y-85383691D01*
X160138327Y-85150302D01*
X159959699Y-84971673D01*
X159726310Y-84875000D01*
X159035750Y-84875000D01*
X158877000Y-85033750D01*
X158623000Y-85033750D01*
X158464250Y-84875000D01*
X157773690Y-84875000D01*
X157540301Y-84971673D01*
X157361673Y-85150302D01*
X157265000Y-85383691D01*
X151787393Y-85383691D01*
X151589242Y-85251291D01*
X151245920Y-85183000D01*
X151014080Y-85183000D01*
X150670758Y-85251291D01*
X150281431Y-85511431D01*
X150021291Y-85900758D01*
X149929942Y-86360000D01*
X150021291Y-86819242D01*
X150281431Y-87208569D01*
X150670758Y-87468709D01*
X151014080Y-87537000D01*
X151245920Y-87537000D01*
X151589242Y-87468709D01*
X151595382Y-87464607D01*
X151691865Y-87561090D01*
X151691868Y-87561092D01*
X153188002Y-89057227D01*
X153188002Y-89949094D01*
X151355000Y-89949094D01*
X151227411Y-89974473D01*
X151136077Y-90035500D01*
X150866922Y-90035500D01*
X150866680Y-90034915D01*
X150662172Y-89830407D01*
X150394968Y-89719728D01*
X150105750Y-89719728D01*
X149891999Y-89808266D01*
X149891999Y-87254516D01*
X149900854Y-87209998D01*
X149865774Y-87033637D01*
X149791090Y-86921865D01*
X149765873Y-86884125D01*
X149728132Y-86858907D01*
X149694607Y-86825382D01*
X149698709Y-86819242D01*
X149790058Y-86360000D01*
X149698709Y-85900758D01*
X149438569Y-85511431D01*
X149049242Y-85251291D01*
X148705920Y-85183000D01*
X148474080Y-85183000D01*
X148130758Y-85251291D01*
X147741431Y-85511431D01*
X147481291Y-85900758D01*
X147389942Y-86360000D01*
X147481291Y-86819242D01*
X147741431Y-87208569D01*
X148130758Y-87468709D01*
X148474080Y-87537000D01*
X148705920Y-87537000D01*
X148988000Y-87480891D01*
X148988000Y-88658775D01*
X147251092Y-86921868D01*
X147251090Y-86921865D01*
X147154607Y-86825382D01*
X147158709Y-86819242D01*
X147250058Y-86360000D01*
X147158709Y-85900758D01*
X146898569Y-85511431D01*
X146509242Y-85251291D01*
X146165920Y-85183000D01*
X145934080Y-85183000D01*
X145590758Y-85251291D01*
X145201431Y-85511431D01*
X144941291Y-85900758D01*
X144849942Y-86360000D01*
X144941291Y-86819242D01*
X145201431Y-87208569D01*
X145590758Y-87468709D01*
X145934080Y-87537000D01*
X146165920Y-87537000D01*
X146509242Y-87468709D01*
X146515382Y-87464607D01*
X146611865Y-87561090D01*
X146611868Y-87561092D01*
X148537989Y-89487214D01*
X148537989Y-90004808D01*
X148492589Y-89974473D01*
X148365000Y-89949094D01*
X148079040Y-89949094D01*
X148116321Y-89911813D01*
X148227000Y-89644609D01*
X148227000Y-89355391D01*
X148116321Y-89088187D01*
X147911813Y-88883679D01*
X147644609Y-88773000D01*
X147355391Y-88773000D01*
X147088187Y-88883679D01*
X146883679Y-89088187D01*
X146773000Y-89355391D01*
X146773000Y-89644609D01*
X146883679Y-89911813D01*
X146920960Y-89949094D01*
X146405000Y-89949094D01*
X146277411Y-89974473D01*
X146169246Y-90046746D01*
X146097184Y-90154596D01*
X143962000Y-88019412D01*
X143962000Y-87470150D01*
X143969242Y-87468709D01*
X144358569Y-87208569D01*
X144618709Y-86819242D01*
X144710058Y-86360000D01*
X144618709Y-85900758D01*
X144358569Y-85511431D01*
X143969242Y-85251291D01*
X143625920Y-85183000D01*
X143394080Y-85183000D01*
X143050758Y-85251291D01*
X142661431Y-85511431D01*
X142401291Y-85900758D01*
X142309942Y-86360000D01*
X142153406Y-86360000D01*
X142153406Y-85510000D01*
X142128027Y-85382411D01*
X142055754Y-85274246D01*
X141947589Y-85201973D01*
X141820000Y-85176594D01*
X140120000Y-85176594D01*
X139992411Y-85201973D01*
X139884246Y-85274246D01*
X139811973Y-85382411D01*
X139786594Y-85510000D01*
X133183406Y-85510000D01*
X133158027Y-85382411D01*
X133085754Y-85274246D01*
X132977589Y-85201973D01*
X132850000Y-85176594D01*
X131150000Y-85176594D01*
X131022411Y-85201973D01*
X130914246Y-85274246D01*
X130841973Y-85382411D01*
X130816594Y-85510000D01*
X130816594Y-87077370D01*
X130564606Y-86825382D01*
X130568709Y-86819242D01*
X130660058Y-86360000D01*
X130568709Y-85900758D01*
X130308569Y-85511431D01*
X129919242Y-85251291D01*
X129575920Y-85183000D01*
X129344080Y-85183000D01*
X129000758Y-85251291D01*
X128611431Y-85511431D01*
X128351291Y-85900758D01*
X128349077Y-85911891D01*
X128329517Y-85908000D01*
X128284999Y-85899145D01*
X128240481Y-85908000D01*
X128030150Y-85908000D01*
X128028709Y-85900758D01*
X127768569Y-85511431D01*
X127379242Y-85251291D01*
X127035920Y-85183000D01*
X126804080Y-85183000D01*
X126460758Y-85251291D01*
X126071431Y-85511431D01*
X125811291Y-85900758D01*
X125719942Y-86360000D01*
X125580058Y-86360000D01*
X125488709Y-85900758D01*
X125228569Y-85511431D01*
X124839242Y-85251291D01*
X124495920Y-85183000D01*
X124264080Y-85183000D01*
X123920758Y-85251291D01*
X123531431Y-85511431D01*
X123271291Y-85900758D01*
X123179942Y-86360000D01*
X123040058Y-86360000D01*
X122948709Y-85900758D01*
X122688569Y-85511431D01*
X122299242Y-85251291D01*
X121955920Y-85183000D01*
X121724080Y-85183000D01*
X121380758Y-85251291D01*
X120991431Y-85511431D01*
X120731291Y-85900758D01*
X120639942Y-86360000D01*
X117527000Y-86360000D01*
X117527000Y-86298436D01*
X116990046Y-85002115D01*
X116114931Y-84127000D01*
X168885069Y-84127000D01*
X168009954Y-85002115D01*
M02*
