G04 #@! TF.GenerationSoftware,KiCad,Pcbnew,6.0.0-rc1-unknown-r14633-2e907bfa*
G04 #@! TF.CreationDate,2018-12-23T16:51:31-08:00
G04 #@! TF.ProjectId,td-rgb,74642d72-6762-42e6-9b69-6361645f7063,rev?*
G04 #@! TF.SameCoordinates,Original*
G04 #@! TF.FileFunction,Copper,L2,Bot*
G04 #@! TF.FilePolarity,Positive*
%FSLAX46Y46*%
G04 Gerber Fmt 4.6, Leading zero omitted, Abs format (unit mm)*
G04 Created by KiCad (PCBNEW 6.0.0-rc1-unknown-r14633-2e907bfa) date Sun 23 Dec 2018 04:51:31 PM PST*
%MOMM*%
%LPD*%
G04 APERTURE LIST*
%ADD10C,6.400000*%
%ADD11O,1.700000X1.700000*%
%ADD12R,1.700000X1.700000*%
%ADD13C,1.700000*%
%ADD14C,2.000000*%
%ADD15C,4.000000*%
%ADD16C,1.600000*%
%ADD17R,1.600000X1.600000*%
%ADD18C,0.800000*%
%ADD19C,0.250000*%
%ADD20C,0.254000*%
G04 APERTURE END LIST*
D10*
X171000000Y-87000000D03*
X114000000Y-87000000D03*
X171000000Y-108000000D03*
D11*
X161290000Y-86360000D03*
D12*
X158750000Y-86360000D03*
D13*
X163182001Y-109180000D03*
X159182001Y-109180000D03*
X155182001Y-109180000D03*
X163182001Y-106680000D03*
X159182001Y-106680000D03*
X155182001Y-106680000D03*
D14*
X153182001Y-110930000D03*
X165182001Y-110930000D03*
X165182001Y-104930000D03*
X153182001Y-104930000D03*
D11*
X121840000Y-86360000D03*
X124380000Y-86360000D03*
X126920000Y-86360000D03*
X129460000Y-86360000D03*
D12*
X132000000Y-86360000D03*
D11*
X151130000Y-86360000D03*
X148590000Y-86360000D03*
X146050000Y-86360000D03*
X143510000Y-86360000D03*
D12*
X140970000Y-86360000D03*
D15*
X147332001Y-100788339D03*
X122332001Y-100788339D03*
D16*
X129987001Y-103328339D03*
X132277001Y-103328339D03*
X134567001Y-103328339D03*
X136857001Y-103328339D03*
X139147001Y-103328339D03*
X131132001Y-101348339D03*
X133422001Y-101348339D03*
X135712001Y-101348339D03*
X138002001Y-101348339D03*
X140292001Y-101348339D03*
X129987001Y-99368339D03*
X132277001Y-99368339D03*
X134567001Y-99368339D03*
X136857001Y-99368339D03*
D17*
X139147001Y-99368339D03*
D10*
X114000000Y-108000000D03*
D18*
X158000000Y-92500000D03*
X163000000Y-91500000D03*
X136140702Y-89640702D03*
X136000000Y-92000000D03*
X136000000Y-94500000D03*
X132000000Y-93000000D03*
X147500000Y-89500000D03*
X150500000Y-94000000D03*
X150250359Y-90446728D03*
X150286094Y-91446102D03*
X150754988Y-92329357D03*
X154000000Y-102500000D03*
D19*
X135712001Y-101348339D02*
X138002001Y-101348339D01*
X138002001Y-101348339D02*
X140292001Y-101348339D01*
X143210339Y-90725001D02*
X149406401Y-90725001D01*
X149684674Y-90446728D02*
X150250359Y-90446728D01*
X134567001Y-99368339D02*
X143210339Y-90725001D01*
X149406401Y-90725001D02*
X149684674Y-90446728D01*
X144779238Y-91446102D02*
X149720409Y-91446102D01*
X136857001Y-99368339D02*
X144779238Y-91446102D01*
X149720409Y-91446102D02*
X150286094Y-91446102D01*
X145270644Y-92729356D02*
X150354989Y-92729356D01*
X150354989Y-92729356D02*
X150754988Y-92329357D01*
X139147001Y-99368339D02*
X139147001Y-98852999D01*
X139147001Y-98852999D02*
X145270644Y-92729356D01*
X147151999Y-88774999D02*
X147848001Y-88774999D01*
X154000000Y-92500000D02*
X154000000Y-101934315D01*
X148573002Y-89500000D02*
X151000000Y-89500000D01*
X151000000Y-89500000D02*
X154000000Y-92500000D01*
X147848001Y-88774999D02*
X148573002Y-89500000D01*
X154000000Y-101934315D02*
X154000000Y-102500000D01*
X146426998Y-89500000D02*
X147151999Y-88774999D01*
X143010000Y-89500000D02*
X146426998Y-89500000D01*
X140970000Y-87460000D02*
X143010000Y-89500000D01*
X140970000Y-86360000D02*
X140970000Y-87460000D01*
X158332002Y-110029999D02*
X159182001Y-109180000D01*
X154568004Y-110355001D02*
X158007000Y-110355001D01*
X121840000Y-86360000D02*
X124657002Y-89177002D01*
X124657002Y-89177002D02*
X126560593Y-89177003D01*
X158007000Y-110355001D02*
X158332002Y-110029999D01*
X126560593Y-89177003D02*
X126560594Y-102203344D01*
X126560594Y-102203344D02*
X132662261Y-108305011D01*
X132662261Y-108305011D02*
X152518014Y-108305011D01*
X152518014Y-108305011D02*
X154568004Y-110355001D01*
X132848661Y-107855001D02*
X158007000Y-107855001D01*
X158007000Y-107855001D02*
X158332002Y-107529999D01*
X127010603Y-88990603D02*
X127010603Y-102016943D01*
X124380000Y-86360000D02*
X127010603Y-88990603D01*
X158332002Y-107529999D02*
X159182001Y-106680000D01*
X127010603Y-102016943D02*
X132848661Y-107855001D01*
X143510000Y-86360000D02*
X145474988Y-88324988D01*
X145474988Y-88324988D02*
X148034401Y-88324988D01*
X148034401Y-88324988D02*
X148709413Y-89000000D01*
X152500000Y-89000000D02*
X155182001Y-91682001D01*
X148709413Y-89000000D02*
X152500000Y-89000000D01*
X155182001Y-105477919D02*
X155182001Y-106680000D01*
X155182001Y-91682001D02*
X155182001Y-105477919D01*
D20*
G36*
X168009954Y-85002115D02*
G01*
X167473000Y-86298436D01*
X167473000Y-87701564D01*
X168009954Y-88997885D01*
X169002115Y-89990046D01*
X170298436Y-90527000D01*
X171701564Y-90527000D01*
X172997885Y-89990046D01*
X173873000Y-89114931D01*
X173873000Y-105885069D01*
X172997885Y-105009954D01*
X171701564Y-104473000D01*
X170298436Y-104473000D01*
X169002115Y-105009954D01*
X168009954Y-106002115D01*
X167473000Y-107298436D01*
X167473000Y-108701564D01*
X168009954Y-109997885D01*
X168885069Y-110873000D01*
X166509001Y-110873000D01*
X166509001Y-110666043D01*
X166306977Y-110178315D01*
X165933686Y-109805024D01*
X165445958Y-109603000D01*
X164918044Y-109603000D01*
X164430316Y-109805024D01*
X164057025Y-110178315D01*
X163855001Y-110666043D01*
X163855001Y-110873000D01*
X154509001Y-110873000D01*
X154509001Y-110804120D01*
X154568004Y-110815856D01*
X154612522Y-110807001D01*
X157962482Y-110807001D01*
X158007000Y-110815856D01*
X158051518Y-110807001D01*
X158183362Y-110780776D01*
X158332874Y-110680875D01*
X158358093Y-110643132D01*
X158683093Y-110318133D01*
X158683095Y-110318130D01*
X158733164Y-110268061D01*
X158947881Y-110357000D01*
X159416121Y-110357000D01*
X159848718Y-110177813D01*
X160179814Y-109846717D01*
X160359001Y-109414120D01*
X160359001Y-108945880D01*
X162005001Y-108945880D01*
X162005001Y-109414120D01*
X162184188Y-109846717D01*
X162515284Y-110177813D01*
X162947881Y-110357000D01*
X163416121Y-110357000D01*
X163848718Y-110177813D01*
X164179814Y-109846717D01*
X164359001Y-109414120D01*
X164359001Y-108945880D01*
X164179814Y-108513283D01*
X163848718Y-108182187D01*
X163416121Y-108003000D01*
X162947881Y-108003000D01*
X162515284Y-108182187D01*
X162184188Y-108513283D01*
X162005001Y-108945880D01*
X160359001Y-108945880D01*
X160179814Y-108513283D01*
X159848718Y-108182187D01*
X159416121Y-108003000D01*
X158947881Y-108003000D01*
X158515284Y-108182187D01*
X158184188Y-108513283D01*
X158005001Y-108945880D01*
X158005001Y-109414120D01*
X158093940Y-109628837D01*
X158043871Y-109678906D01*
X158043868Y-109678908D01*
X157819776Y-109903001D01*
X156123530Y-109903001D01*
X156179814Y-109846717D01*
X156359001Y-109414120D01*
X156359001Y-108945880D01*
X156179814Y-108513283D01*
X155973532Y-108307001D01*
X157962482Y-108307001D01*
X158007000Y-108315856D01*
X158051518Y-108307001D01*
X158183362Y-108280776D01*
X158332874Y-108180875D01*
X158358093Y-108143132D01*
X158683093Y-107818133D01*
X158683095Y-107818130D01*
X158733164Y-107768061D01*
X158947881Y-107857000D01*
X159416121Y-107857000D01*
X159848718Y-107677813D01*
X160179814Y-107346717D01*
X160359001Y-106914120D01*
X160359001Y-106445880D01*
X162005001Y-106445880D01*
X162005001Y-106914120D01*
X162184188Y-107346717D01*
X162515284Y-107677813D01*
X162947881Y-107857000D01*
X163416121Y-107857000D01*
X163848718Y-107677813D01*
X164179814Y-107346717D01*
X164359001Y-106914120D01*
X164359001Y-106445880D01*
X164179814Y-106013283D01*
X163848718Y-105682187D01*
X163416121Y-105503000D01*
X162947881Y-105503000D01*
X162515284Y-105682187D01*
X162184188Y-106013283D01*
X162005001Y-106445880D01*
X160359001Y-106445880D01*
X160179814Y-106013283D01*
X159848718Y-105682187D01*
X159416121Y-105503000D01*
X158947881Y-105503000D01*
X158515284Y-105682187D01*
X158184188Y-106013283D01*
X158005001Y-106445880D01*
X158005001Y-106914120D01*
X158093940Y-107128837D01*
X158043871Y-107178906D01*
X158043868Y-107178908D01*
X157819776Y-107403001D01*
X156123530Y-107403001D01*
X156179814Y-107346717D01*
X156359001Y-106914120D01*
X156359001Y-106445880D01*
X156179814Y-106013283D01*
X155848718Y-105682187D01*
X155634001Y-105593249D01*
X155634001Y-104666043D01*
X163855001Y-104666043D01*
X163855001Y-105193957D01*
X164057025Y-105681685D01*
X164430316Y-106054976D01*
X164918044Y-106257000D01*
X165445958Y-106257000D01*
X165933686Y-106054976D01*
X166306977Y-105681685D01*
X166509001Y-105193957D01*
X166509001Y-104666043D01*
X166306977Y-104178315D01*
X165933686Y-103805024D01*
X165445958Y-103603000D01*
X164918044Y-103603000D01*
X164430316Y-103805024D01*
X164057025Y-104178315D01*
X163855001Y-104666043D01*
X155634001Y-104666043D01*
X155634001Y-91726518D01*
X155642856Y-91682000D01*
X155607776Y-91505639D01*
X155567995Y-91446103D01*
X155507875Y-91356127D01*
X155470135Y-91330910D01*
X152851093Y-88711869D01*
X152825874Y-88674126D01*
X152676362Y-88574225D01*
X152544518Y-88548000D01*
X152500000Y-88539145D01*
X152455482Y-88548000D01*
X148896638Y-88548000D01*
X148385494Y-88036857D01*
X148360275Y-87999114D01*
X148210763Y-87899213D01*
X148078919Y-87872988D01*
X148034401Y-87864133D01*
X147989883Y-87872988D01*
X145662213Y-87872988D01*
X144614606Y-86825382D01*
X144618709Y-86819242D01*
X144710058Y-86360000D01*
X144849942Y-86360000D01*
X144941291Y-86819242D01*
X145201431Y-87208569D01*
X145590758Y-87468709D01*
X145934080Y-87537000D01*
X146165920Y-87537000D01*
X146509242Y-87468709D01*
X146898569Y-87208569D01*
X147158709Y-86819242D01*
X147250058Y-86360000D01*
X147389942Y-86360000D01*
X147481291Y-86819242D01*
X147741431Y-87208569D01*
X148130758Y-87468709D01*
X148474080Y-87537000D01*
X148705920Y-87537000D01*
X149049242Y-87468709D01*
X149438569Y-87208569D01*
X149698709Y-86819242D01*
X149790058Y-86360000D01*
X149929942Y-86360000D01*
X150021291Y-86819242D01*
X150281431Y-87208569D01*
X150670758Y-87468709D01*
X151014080Y-87537000D01*
X151245920Y-87537000D01*
X151589242Y-87468709D01*
X151978569Y-87208569D01*
X152238709Y-86819242D01*
X152330058Y-86360000D01*
X152238709Y-85900758D01*
X151978569Y-85511431D01*
X151976428Y-85510000D01*
X157566594Y-85510000D01*
X157566594Y-87210000D01*
X157591973Y-87337589D01*
X157664246Y-87445754D01*
X157772411Y-87518027D01*
X157900000Y-87543406D01*
X159600000Y-87543406D01*
X159727589Y-87518027D01*
X159835754Y-87445754D01*
X159908027Y-87337589D01*
X159933406Y-87210000D01*
X159933406Y-86897657D01*
X160094817Y-87241358D01*
X160523076Y-87631645D01*
X160933110Y-87801476D01*
X161163000Y-87680155D01*
X161163000Y-86487000D01*
X161417000Y-86487000D01*
X161417000Y-87680155D01*
X161646890Y-87801476D01*
X162056924Y-87631645D01*
X162485183Y-87241358D01*
X162731486Y-86716892D01*
X162610819Y-86487000D01*
X161417000Y-86487000D01*
X161163000Y-86487000D01*
X161143000Y-86487000D01*
X161143000Y-86233000D01*
X161163000Y-86233000D01*
X161163000Y-85039845D01*
X161417000Y-85039845D01*
X161417000Y-86233000D01*
X162610819Y-86233000D01*
X162731486Y-86003108D01*
X162485183Y-85478642D01*
X162056924Y-85088355D01*
X161646890Y-84918524D01*
X161417000Y-85039845D01*
X161163000Y-85039845D01*
X160933110Y-84918524D01*
X160523076Y-85088355D01*
X160094817Y-85478642D01*
X159933406Y-85822343D01*
X159933406Y-85510000D01*
X159908027Y-85382411D01*
X159835754Y-85274246D01*
X159727589Y-85201973D01*
X159600000Y-85176594D01*
X157900000Y-85176594D01*
X157772411Y-85201973D01*
X157664246Y-85274246D01*
X157591973Y-85382411D01*
X157566594Y-85510000D01*
X151976428Y-85510000D01*
X151589242Y-85251291D01*
X151245920Y-85183000D01*
X151014080Y-85183000D01*
X150670758Y-85251291D01*
X150281431Y-85511431D01*
X150021291Y-85900758D01*
X149929942Y-86360000D01*
X149790058Y-86360000D01*
X149698709Y-85900758D01*
X149438569Y-85511431D01*
X149049242Y-85251291D01*
X148705920Y-85183000D01*
X148474080Y-85183000D01*
X148130758Y-85251291D01*
X147741431Y-85511431D01*
X147481291Y-85900758D01*
X147389942Y-86360000D01*
X147250058Y-86360000D01*
X147158709Y-85900758D01*
X146898569Y-85511431D01*
X146509242Y-85251291D01*
X146165920Y-85183000D01*
X145934080Y-85183000D01*
X145590758Y-85251291D01*
X145201431Y-85511431D01*
X144941291Y-85900758D01*
X144849942Y-86360000D01*
X144710058Y-86360000D01*
X144618709Y-85900758D01*
X144358569Y-85511431D01*
X143969242Y-85251291D01*
X143625920Y-85183000D01*
X143394080Y-85183000D01*
X143050758Y-85251291D01*
X142661431Y-85511431D01*
X142401291Y-85900758D01*
X142309942Y-86360000D01*
X142401291Y-86819242D01*
X142661431Y-87208569D01*
X143050758Y-87468709D01*
X143394080Y-87537000D01*
X143625920Y-87537000D01*
X143969242Y-87468709D01*
X143975382Y-87464606D01*
X145123896Y-88613121D01*
X145149114Y-88650862D01*
X145298626Y-88750763D01*
X145420476Y-88775000D01*
X145474988Y-88785843D01*
X145519506Y-88776988D01*
X146510785Y-88776988D01*
X146239774Y-89048000D01*
X143197225Y-89048000D01*
X141692630Y-87543406D01*
X141820000Y-87543406D01*
X141947589Y-87518027D01*
X142055754Y-87445754D01*
X142128027Y-87337589D01*
X142153406Y-87210000D01*
X142153406Y-85510000D01*
X142128027Y-85382411D01*
X142055754Y-85274246D01*
X141947589Y-85201973D01*
X141820000Y-85176594D01*
X140120000Y-85176594D01*
X139992411Y-85201973D01*
X139884246Y-85274246D01*
X139811973Y-85382411D01*
X139786594Y-85510000D01*
X139786594Y-87210000D01*
X139811973Y-87337589D01*
X139884246Y-87445754D01*
X139992411Y-87518027D01*
X140120000Y-87543406D01*
X140525735Y-87543406D01*
X140544225Y-87636361D01*
X140618909Y-87748133D01*
X140644127Y-87785874D01*
X140681867Y-87811091D01*
X142658908Y-89788133D01*
X142684126Y-89825874D01*
X142721866Y-89851091D01*
X142833638Y-89925775D01*
X143010000Y-89960855D01*
X143054518Y-89952000D01*
X146382480Y-89952000D01*
X146426998Y-89960855D01*
X146471516Y-89952000D01*
X146603360Y-89925775D01*
X146752872Y-89825874D01*
X146778091Y-89788131D01*
X147339224Y-89226999D01*
X147660777Y-89226999D01*
X148221910Y-89788133D01*
X148247128Y-89825874D01*
X148396640Y-89925775D01*
X148528484Y-89952000D01*
X148528485Y-89952000D01*
X148573001Y-89960855D01*
X148617518Y-89952000D01*
X149716953Y-89952000D01*
X149682684Y-89986269D01*
X149640157Y-89994728D01*
X149640156Y-89994728D01*
X149508312Y-90020953D01*
X149358800Y-90120854D01*
X149333579Y-90158600D01*
X149219177Y-90273001D01*
X143254857Y-90273001D01*
X143210339Y-90264146D01*
X143165821Y-90273001D01*
X143033977Y-90299226D01*
X142884465Y-90399127D01*
X142859248Y-90436867D01*
X134977570Y-98318546D01*
X134791175Y-98241339D01*
X134342827Y-98241339D01*
X133928607Y-98412915D01*
X133611577Y-98729945D01*
X133440001Y-99144165D01*
X133440001Y-99592513D01*
X133611577Y-100006733D01*
X133928607Y-100323763D01*
X134342827Y-100495339D01*
X134679393Y-100495339D01*
X134704254Y-100520200D01*
X134458137Y-100594334D01*
X134398390Y-100760558D01*
X134377425Y-100709945D01*
X134060395Y-100392915D01*
X133646175Y-100221339D01*
X133197827Y-100221339D01*
X132783607Y-100392915D01*
X132466577Y-100709945D01*
X132295001Y-101124165D01*
X132295001Y-101572513D01*
X132466577Y-101986733D01*
X132783607Y-102303763D01*
X133197827Y-102475339D01*
X133646175Y-102475339D01*
X134060395Y-102303763D01*
X134377425Y-101986733D01*
X134393837Y-101947111D01*
X134458137Y-102102344D01*
X134704254Y-102176478D01*
X134679393Y-102201339D01*
X134342827Y-102201339D01*
X133928607Y-102372915D01*
X133611577Y-102689945D01*
X133440001Y-103104165D01*
X133440001Y-103552513D01*
X133611577Y-103966733D01*
X133928607Y-104283763D01*
X134342827Y-104455339D01*
X134791175Y-104455339D01*
X135205395Y-104283763D01*
X135522425Y-103966733D01*
X135694001Y-103552513D01*
X135694001Y-103104165D01*
X135564694Y-102791992D01*
X135865243Y-102777663D01*
X135730001Y-103104165D01*
X135730001Y-103552513D01*
X135901577Y-103966733D01*
X136218607Y-104283763D01*
X136632827Y-104455339D01*
X137081175Y-104455339D01*
X137495395Y-104283763D01*
X137812425Y-103966733D01*
X137984001Y-103552513D01*
X137984001Y-103104165D01*
X137854694Y-102791992D01*
X138155243Y-102777663D01*
X138020001Y-103104165D01*
X138020001Y-103552513D01*
X138191577Y-103966733D01*
X138508607Y-104283763D01*
X138922827Y-104455339D01*
X139371175Y-104455339D01*
X139785395Y-104283763D01*
X140102425Y-103966733D01*
X140274001Y-103552513D01*
X140274001Y-103104165D01*
X140144694Y-102791992D01*
X140645455Y-102768117D01*
X141046006Y-102602203D01*
X141120140Y-102356084D01*
X140292001Y-101527944D01*
X140277859Y-101542087D01*
X140098253Y-101362481D01*
X140112396Y-101348339D01*
X140471606Y-101348339D01*
X141299746Y-102176478D01*
X141545865Y-102102344D01*
X141738966Y-101565116D01*
X141711779Y-100994885D01*
X141545865Y-100594334D01*
X141299746Y-100520200D01*
X140471606Y-101348339D01*
X140112396Y-101348339D01*
X140098253Y-101334197D01*
X140277859Y-101154591D01*
X140292001Y-101168734D01*
X141120140Y-100340594D01*
X141115585Y-100325470D01*
X145005001Y-100325470D01*
X145005001Y-101251208D01*
X145359265Y-102106479D01*
X146013861Y-102761075D01*
X146869132Y-103115339D01*
X147794870Y-103115339D01*
X148650141Y-102761075D01*
X149304737Y-102106479D01*
X149659001Y-101251208D01*
X149659001Y-100325470D01*
X149304737Y-99470199D01*
X148650141Y-98815603D01*
X147794870Y-98461339D01*
X146869132Y-98461339D01*
X146013861Y-98815603D01*
X145359265Y-99470199D01*
X145005001Y-100325470D01*
X141115585Y-100325470D01*
X141046006Y-100094475D01*
X140508778Y-99901374D01*
X140280407Y-99912262D01*
X140280407Y-98568339D01*
X140255028Y-98440750D01*
X140232376Y-98406848D01*
X145457869Y-93181356D01*
X150310471Y-93181356D01*
X150354989Y-93190211D01*
X150399507Y-93181356D01*
X150531351Y-93155131D01*
X150679176Y-93056357D01*
X150899597Y-93056357D01*
X151166801Y-92945678D01*
X151371309Y-92741170D01*
X151481988Y-92473966D01*
X151481988Y-92184748D01*
X151371309Y-91917544D01*
X151166801Y-91713036D01*
X150992355Y-91640779D01*
X151013094Y-91590711D01*
X151013094Y-91301493D01*
X150902415Y-91034289D01*
X150796674Y-90928548D01*
X150866680Y-90858541D01*
X150977359Y-90591337D01*
X150977359Y-90302119D01*
X150866680Y-90034915D01*
X150783765Y-89952000D01*
X150812776Y-89952000D01*
X153548000Y-92687225D01*
X153548001Y-101889793D01*
X153548000Y-101889798D01*
X153548000Y-101923866D01*
X153383679Y-102088187D01*
X153273000Y-102355391D01*
X153273000Y-102644609D01*
X153383679Y-102911813D01*
X153588187Y-103116321D01*
X153855391Y-103227000D01*
X154144609Y-103227000D01*
X154411813Y-103116321D01*
X154616321Y-102911813D01*
X154727000Y-102644609D01*
X154727000Y-102355391D01*
X154616321Y-102088187D01*
X154452000Y-101923866D01*
X154452000Y-92544518D01*
X154460855Y-92500000D01*
X154425775Y-92323638D01*
X154394850Y-92277356D01*
X154325874Y-92174126D01*
X154288134Y-92148909D01*
X151591224Y-89452000D01*
X152312776Y-89452000D01*
X154730001Y-91869226D01*
X154730002Y-105433397D01*
X154730001Y-105433402D01*
X154730001Y-105593249D01*
X154515284Y-105682187D01*
X154184188Y-106013283D01*
X154005001Y-106445880D01*
X154005001Y-106914120D01*
X154184188Y-107346717D01*
X154240472Y-107403001D01*
X133035886Y-107403001D01*
X130298928Y-104666043D01*
X151855001Y-104666043D01*
X151855001Y-105193957D01*
X152057025Y-105681685D01*
X152430316Y-106054976D01*
X152918044Y-106257000D01*
X153445958Y-106257000D01*
X153933686Y-106054976D01*
X154306977Y-105681685D01*
X154509001Y-105193957D01*
X154509001Y-104666043D01*
X154306977Y-104178315D01*
X153933686Y-103805024D01*
X153445958Y-103603000D01*
X152918044Y-103603000D01*
X152430316Y-103805024D01*
X152057025Y-104178315D01*
X151855001Y-104666043D01*
X130298928Y-104666043D01*
X130088223Y-104455339D01*
X130211175Y-104455339D01*
X130625395Y-104283763D01*
X130942425Y-103966733D01*
X131114001Y-103552513D01*
X131114001Y-103104165D01*
X131150001Y-103104165D01*
X131150001Y-103552513D01*
X131321577Y-103966733D01*
X131638607Y-104283763D01*
X132052827Y-104455339D01*
X132501175Y-104455339D01*
X132915395Y-104283763D01*
X133232425Y-103966733D01*
X133404001Y-103552513D01*
X133404001Y-103104165D01*
X133232425Y-102689945D01*
X132915395Y-102372915D01*
X132501175Y-102201339D01*
X132052827Y-102201339D01*
X131638607Y-102372915D01*
X131321577Y-102689945D01*
X131150001Y-103104165D01*
X131114001Y-103104165D01*
X130942425Y-102689945D01*
X130625395Y-102372915D01*
X130211175Y-102201339D01*
X129762827Y-102201339D01*
X129348607Y-102372915D01*
X129031577Y-102689945D01*
X128860001Y-103104165D01*
X128860001Y-103227117D01*
X127462603Y-101829719D01*
X127462603Y-100376084D01*
X129158862Y-100376084D01*
X129232996Y-100622203D01*
X129770224Y-100815304D01*
X130140243Y-100797663D01*
X130005001Y-101124165D01*
X130005001Y-101572513D01*
X130176577Y-101986733D01*
X130493607Y-102303763D01*
X130907827Y-102475339D01*
X131356175Y-102475339D01*
X131770395Y-102303763D01*
X132087425Y-101986733D01*
X132259001Y-101572513D01*
X132259001Y-101124165D01*
X132087425Y-100709945D01*
X131770395Y-100392915D01*
X131356175Y-100221339D01*
X131019609Y-100221339D01*
X130994748Y-100196478D01*
X131240865Y-100122344D01*
X131300612Y-99956120D01*
X131321577Y-100006733D01*
X131638607Y-100323763D01*
X132052827Y-100495339D01*
X132501175Y-100495339D01*
X132915395Y-100323763D01*
X133232425Y-100006733D01*
X133404001Y-99592513D01*
X133404001Y-99144165D01*
X133232425Y-98729945D01*
X132915395Y-98412915D01*
X132501175Y-98241339D01*
X132052827Y-98241339D01*
X131638607Y-98412915D01*
X131321577Y-98729945D01*
X131305165Y-98769567D01*
X131240865Y-98614334D01*
X130994746Y-98540200D01*
X130166606Y-99368339D01*
X130180749Y-99382481D01*
X130001143Y-99562087D01*
X129987001Y-99547944D01*
X129158862Y-100376084D01*
X127462603Y-100376084D01*
X127462603Y-99151562D01*
X128540036Y-99151562D01*
X128567223Y-99721793D01*
X128733137Y-100122344D01*
X128979256Y-100196478D01*
X129807396Y-99368339D01*
X128979256Y-98540200D01*
X128733137Y-98614334D01*
X128540036Y-99151562D01*
X127462603Y-99151562D01*
X127462603Y-98360594D01*
X129158862Y-98360594D01*
X129987001Y-99188734D01*
X130815140Y-98360594D01*
X130741006Y-98114475D01*
X130203778Y-97921374D01*
X129633547Y-97948561D01*
X129232996Y-98114475D01*
X129158862Y-98360594D01*
X127462603Y-98360594D01*
X127462603Y-89035119D01*
X127471458Y-88990602D01*
X127462603Y-88946085D01*
X127436378Y-88814241D01*
X127336477Y-88664729D01*
X127298734Y-88639510D01*
X125484606Y-86825382D01*
X125488709Y-86819242D01*
X125580058Y-86360000D01*
X125719942Y-86360000D01*
X125811291Y-86819242D01*
X126071431Y-87208569D01*
X126460758Y-87468709D01*
X126804080Y-87537000D01*
X127035920Y-87537000D01*
X127379242Y-87468709D01*
X127768569Y-87208569D01*
X128028709Y-86819242D01*
X128120058Y-86360000D01*
X128259942Y-86360000D01*
X128351291Y-86819242D01*
X128611431Y-87208569D01*
X129000758Y-87468709D01*
X129344080Y-87537000D01*
X129575920Y-87537000D01*
X129919242Y-87468709D01*
X130308569Y-87208569D01*
X130568709Y-86819242D01*
X130660058Y-86360000D01*
X130568709Y-85900758D01*
X130308569Y-85511431D01*
X130306428Y-85510000D01*
X130816594Y-85510000D01*
X130816594Y-87210000D01*
X130841973Y-87337589D01*
X130914246Y-87445754D01*
X131022411Y-87518027D01*
X131150000Y-87543406D01*
X132850000Y-87543406D01*
X132977589Y-87518027D01*
X133085754Y-87445754D01*
X133158027Y-87337589D01*
X133183406Y-87210000D01*
X133183406Y-85510000D01*
X133158027Y-85382411D01*
X133085754Y-85274246D01*
X132977589Y-85201973D01*
X132850000Y-85176594D01*
X131150000Y-85176594D01*
X131022411Y-85201973D01*
X130914246Y-85274246D01*
X130841973Y-85382411D01*
X130816594Y-85510000D01*
X130306428Y-85510000D01*
X129919242Y-85251291D01*
X129575920Y-85183000D01*
X129344080Y-85183000D01*
X129000758Y-85251291D01*
X128611431Y-85511431D01*
X128351291Y-85900758D01*
X128259942Y-86360000D01*
X128120058Y-86360000D01*
X128028709Y-85900758D01*
X127768569Y-85511431D01*
X127379242Y-85251291D01*
X127035920Y-85183000D01*
X126804080Y-85183000D01*
X126460758Y-85251291D01*
X126071431Y-85511431D01*
X125811291Y-85900758D01*
X125719942Y-86360000D01*
X125580058Y-86360000D01*
X125488709Y-85900758D01*
X125228569Y-85511431D01*
X124839242Y-85251291D01*
X124495920Y-85183000D01*
X124264080Y-85183000D01*
X123920758Y-85251291D01*
X123531431Y-85511431D01*
X123271291Y-85900758D01*
X123179942Y-86360000D01*
X123271291Y-86819242D01*
X123531431Y-87208569D01*
X123920758Y-87468709D01*
X124264080Y-87537000D01*
X124495920Y-87537000D01*
X124839242Y-87468709D01*
X124845382Y-87464606D01*
X126105779Y-88725003D01*
X124844226Y-88725002D01*
X122944606Y-86825382D01*
X122948709Y-86819242D01*
X123040058Y-86360000D01*
X122948709Y-85900758D01*
X122688569Y-85511431D01*
X122299242Y-85251291D01*
X121955920Y-85183000D01*
X121724080Y-85183000D01*
X121380758Y-85251291D01*
X120991431Y-85511431D01*
X120731291Y-85900758D01*
X120639942Y-86360000D01*
X120731291Y-86819242D01*
X120991431Y-87208569D01*
X121380758Y-87468709D01*
X121724080Y-87537000D01*
X121955920Y-87537000D01*
X122299242Y-87468709D01*
X122305382Y-87464606D01*
X124305911Y-89465135D01*
X124331128Y-89502875D01*
X124368868Y-89528092D01*
X124480640Y-89602776D01*
X124657001Y-89637857D01*
X124701522Y-89629001D01*
X126108593Y-89629003D01*
X126108595Y-102158821D01*
X126099739Y-102203344D01*
X126134819Y-102379705D01*
X126176923Y-102442718D01*
X126234721Y-102529218D01*
X126272461Y-102554435D01*
X132311169Y-108593144D01*
X132336387Y-108630885D01*
X132485899Y-108730786D01*
X132617743Y-108757011D01*
X132617744Y-108757011D01*
X132662260Y-108765866D01*
X132706777Y-108757011D01*
X152330790Y-108757011D01*
X153176779Y-109603000D01*
X152918044Y-109603000D01*
X152430316Y-109805024D01*
X152057025Y-110178315D01*
X151855001Y-110666043D01*
X151855001Y-110873000D01*
X116114931Y-110873000D01*
X116990046Y-109997885D01*
X117527000Y-108701564D01*
X117527000Y-107298436D01*
X116990046Y-106002115D01*
X115997885Y-105009954D01*
X114701564Y-104473000D01*
X113298436Y-104473000D01*
X112002115Y-105009954D01*
X111127000Y-105885069D01*
X111127000Y-100325470D01*
X120005001Y-100325470D01*
X120005001Y-101251208D01*
X120359265Y-102106479D01*
X121013861Y-102761075D01*
X121869132Y-103115339D01*
X122794870Y-103115339D01*
X123650141Y-102761075D01*
X124304737Y-102106479D01*
X124659001Y-101251208D01*
X124659001Y-100325470D01*
X124304737Y-99470199D01*
X123650141Y-98815603D01*
X122794870Y-98461339D01*
X121869132Y-98461339D01*
X121013861Y-98815603D01*
X120359265Y-99470199D01*
X120005001Y-100325470D01*
X111127000Y-100325470D01*
X111127000Y-89114931D01*
X112002115Y-89990046D01*
X113298436Y-90527000D01*
X114701564Y-90527000D01*
X115997885Y-89990046D01*
X116990046Y-88997885D01*
X117527000Y-87701564D01*
X117527000Y-86298436D01*
X116990046Y-85002115D01*
X116114931Y-84127000D01*
X168885069Y-84127000D01*
X168009954Y-85002115D01*
X168009954Y-85002115D01*
G37*
X168009954Y-85002115D02*
X167473000Y-86298436D01*
X167473000Y-87701564D01*
X168009954Y-88997885D01*
X169002115Y-89990046D01*
X170298436Y-90527000D01*
X171701564Y-90527000D01*
X172997885Y-89990046D01*
X173873000Y-89114931D01*
X173873000Y-105885069D01*
X172997885Y-105009954D01*
X171701564Y-104473000D01*
X170298436Y-104473000D01*
X169002115Y-105009954D01*
X168009954Y-106002115D01*
X167473000Y-107298436D01*
X167473000Y-108701564D01*
X168009954Y-109997885D01*
X168885069Y-110873000D01*
X166509001Y-110873000D01*
X166509001Y-110666043D01*
X166306977Y-110178315D01*
X165933686Y-109805024D01*
X165445958Y-109603000D01*
X164918044Y-109603000D01*
X164430316Y-109805024D01*
X164057025Y-110178315D01*
X163855001Y-110666043D01*
X163855001Y-110873000D01*
X154509001Y-110873000D01*
X154509001Y-110804120D01*
X154568004Y-110815856D01*
X154612522Y-110807001D01*
X157962482Y-110807001D01*
X158007000Y-110815856D01*
X158051518Y-110807001D01*
X158183362Y-110780776D01*
X158332874Y-110680875D01*
X158358093Y-110643132D01*
X158683093Y-110318133D01*
X158683095Y-110318130D01*
X158733164Y-110268061D01*
X158947881Y-110357000D01*
X159416121Y-110357000D01*
X159848718Y-110177813D01*
X160179814Y-109846717D01*
X160359001Y-109414120D01*
X160359001Y-108945880D01*
X162005001Y-108945880D01*
X162005001Y-109414120D01*
X162184188Y-109846717D01*
X162515284Y-110177813D01*
X162947881Y-110357000D01*
X163416121Y-110357000D01*
X163848718Y-110177813D01*
X164179814Y-109846717D01*
X164359001Y-109414120D01*
X164359001Y-108945880D01*
X164179814Y-108513283D01*
X163848718Y-108182187D01*
X163416121Y-108003000D01*
X162947881Y-108003000D01*
X162515284Y-108182187D01*
X162184188Y-108513283D01*
X162005001Y-108945880D01*
X160359001Y-108945880D01*
X160179814Y-108513283D01*
X159848718Y-108182187D01*
X159416121Y-108003000D01*
X158947881Y-108003000D01*
X158515284Y-108182187D01*
X158184188Y-108513283D01*
X158005001Y-108945880D01*
X158005001Y-109414120D01*
X158093940Y-109628837D01*
X158043871Y-109678906D01*
X158043868Y-109678908D01*
X157819776Y-109903001D01*
X156123530Y-109903001D01*
X156179814Y-109846717D01*
X156359001Y-109414120D01*
X156359001Y-108945880D01*
X156179814Y-108513283D01*
X155973532Y-108307001D01*
X157962482Y-108307001D01*
X158007000Y-108315856D01*
X158051518Y-108307001D01*
X158183362Y-108280776D01*
X158332874Y-108180875D01*
X158358093Y-108143132D01*
X158683093Y-107818133D01*
X158683095Y-107818130D01*
X158733164Y-107768061D01*
X158947881Y-107857000D01*
X159416121Y-107857000D01*
X159848718Y-107677813D01*
X160179814Y-107346717D01*
X160359001Y-106914120D01*
X160359001Y-106445880D01*
X162005001Y-106445880D01*
X162005001Y-106914120D01*
X162184188Y-107346717D01*
X162515284Y-107677813D01*
X162947881Y-107857000D01*
X163416121Y-107857000D01*
X163848718Y-107677813D01*
X164179814Y-107346717D01*
X164359001Y-106914120D01*
X164359001Y-106445880D01*
X164179814Y-106013283D01*
X163848718Y-105682187D01*
X163416121Y-105503000D01*
X162947881Y-105503000D01*
X162515284Y-105682187D01*
X162184188Y-106013283D01*
X162005001Y-106445880D01*
X160359001Y-106445880D01*
X160179814Y-106013283D01*
X159848718Y-105682187D01*
X159416121Y-105503000D01*
X158947881Y-105503000D01*
X158515284Y-105682187D01*
X158184188Y-106013283D01*
X158005001Y-106445880D01*
X158005001Y-106914120D01*
X158093940Y-107128837D01*
X158043871Y-107178906D01*
X158043868Y-107178908D01*
X157819776Y-107403001D01*
X156123530Y-107403001D01*
X156179814Y-107346717D01*
X156359001Y-106914120D01*
X156359001Y-106445880D01*
X156179814Y-106013283D01*
X155848718Y-105682187D01*
X155634001Y-105593249D01*
X155634001Y-104666043D01*
X163855001Y-104666043D01*
X163855001Y-105193957D01*
X164057025Y-105681685D01*
X164430316Y-106054976D01*
X164918044Y-106257000D01*
X165445958Y-106257000D01*
X165933686Y-106054976D01*
X166306977Y-105681685D01*
X166509001Y-105193957D01*
X166509001Y-104666043D01*
X166306977Y-104178315D01*
X165933686Y-103805024D01*
X165445958Y-103603000D01*
X164918044Y-103603000D01*
X164430316Y-103805024D01*
X164057025Y-104178315D01*
X163855001Y-104666043D01*
X155634001Y-104666043D01*
X155634001Y-91726518D01*
X155642856Y-91682000D01*
X155607776Y-91505639D01*
X155567995Y-91446103D01*
X155507875Y-91356127D01*
X155470135Y-91330910D01*
X152851093Y-88711869D01*
X152825874Y-88674126D01*
X152676362Y-88574225D01*
X152544518Y-88548000D01*
X152500000Y-88539145D01*
X152455482Y-88548000D01*
X148896638Y-88548000D01*
X148385494Y-88036857D01*
X148360275Y-87999114D01*
X148210763Y-87899213D01*
X148078919Y-87872988D01*
X148034401Y-87864133D01*
X147989883Y-87872988D01*
X145662213Y-87872988D01*
X144614606Y-86825382D01*
X144618709Y-86819242D01*
X144710058Y-86360000D01*
X144849942Y-86360000D01*
X144941291Y-86819242D01*
X145201431Y-87208569D01*
X145590758Y-87468709D01*
X145934080Y-87537000D01*
X146165920Y-87537000D01*
X146509242Y-87468709D01*
X146898569Y-87208569D01*
X147158709Y-86819242D01*
X147250058Y-86360000D01*
X147389942Y-86360000D01*
X147481291Y-86819242D01*
X147741431Y-87208569D01*
X148130758Y-87468709D01*
X148474080Y-87537000D01*
X148705920Y-87537000D01*
X149049242Y-87468709D01*
X149438569Y-87208569D01*
X149698709Y-86819242D01*
X149790058Y-86360000D01*
X149929942Y-86360000D01*
X150021291Y-86819242D01*
X150281431Y-87208569D01*
X150670758Y-87468709D01*
X151014080Y-87537000D01*
X151245920Y-87537000D01*
X151589242Y-87468709D01*
X151978569Y-87208569D01*
X152238709Y-86819242D01*
X152330058Y-86360000D01*
X152238709Y-85900758D01*
X151978569Y-85511431D01*
X151976428Y-85510000D01*
X157566594Y-85510000D01*
X157566594Y-87210000D01*
X157591973Y-87337589D01*
X157664246Y-87445754D01*
X157772411Y-87518027D01*
X157900000Y-87543406D01*
X159600000Y-87543406D01*
X159727589Y-87518027D01*
X159835754Y-87445754D01*
X159908027Y-87337589D01*
X159933406Y-87210000D01*
X159933406Y-86897657D01*
X160094817Y-87241358D01*
X160523076Y-87631645D01*
X160933110Y-87801476D01*
X161163000Y-87680155D01*
X161163000Y-86487000D01*
X161417000Y-86487000D01*
X161417000Y-87680155D01*
X161646890Y-87801476D01*
X162056924Y-87631645D01*
X162485183Y-87241358D01*
X162731486Y-86716892D01*
X162610819Y-86487000D01*
X161417000Y-86487000D01*
X161163000Y-86487000D01*
X161143000Y-86487000D01*
X161143000Y-86233000D01*
X161163000Y-86233000D01*
X161163000Y-85039845D01*
X161417000Y-85039845D01*
X161417000Y-86233000D01*
X162610819Y-86233000D01*
X162731486Y-86003108D01*
X162485183Y-85478642D01*
X162056924Y-85088355D01*
X161646890Y-84918524D01*
X161417000Y-85039845D01*
X161163000Y-85039845D01*
X160933110Y-84918524D01*
X160523076Y-85088355D01*
X160094817Y-85478642D01*
X159933406Y-85822343D01*
X159933406Y-85510000D01*
X159908027Y-85382411D01*
X159835754Y-85274246D01*
X159727589Y-85201973D01*
X159600000Y-85176594D01*
X157900000Y-85176594D01*
X157772411Y-85201973D01*
X157664246Y-85274246D01*
X157591973Y-85382411D01*
X157566594Y-85510000D01*
X151976428Y-85510000D01*
X151589242Y-85251291D01*
X151245920Y-85183000D01*
X151014080Y-85183000D01*
X150670758Y-85251291D01*
X150281431Y-85511431D01*
X150021291Y-85900758D01*
X149929942Y-86360000D01*
X149790058Y-86360000D01*
X149698709Y-85900758D01*
X149438569Y-85511431D01*
X149049242Y-85251291D01*
X148705920Y-85183000D01*
X148474080Y-85183000D01*
X148130758Y-85251291D01*
X147741431Y-85511431D01*
X147481291Y-85900758D01*
X147389942Y-86360000D01*
X147250058Y-86360000D01*
X147158709Y-85900758D01*
X146898569Y-85511431D01*
X146509242Y-85251291D01*
X146165920Y-85183000D01*
X145934080Y-85183000D01*
X145590758Y-85251291D01*
X145201431Y-85511431D01*
X144941291Y-85900758D01*
X144849942Y-86360000D01*
X144710058Y-86360000D01*
X144618709Y-85900758D01*
X144358569Y-85511431D01*
X143969242Y-85251291D01*
X143625920Y-85183000D01*
X143394080Y-85183000D01*
X143050758Y-85251291D01*
X142661431Y-85511431D01*
X142401291Y-85900758D01*
X142309942Y-86360000D01*
X142401291Y-86819242D01*
X142661431Y-87208569D01*
X143050758Y-87468709D01*
X143394080Y-87537000D01*
X143625920Y-87537000D01*
X143969242Y-87468709D01*
X143975382Y-87464606D01*
X145123896Y-88613121D01*
X145149114Y-88650862D01*
X145298626Y-88750763D01*
X145420476Y-88775000D01*
X145474988Y-88785843D01*
X145519506Y-88776988D01*
X146510785Y-88776988D01*
X146239774Y-89048000D01*
X143197225Y-89048000D01*
X141692630Y-87543406D01*
X141820000Y-87543406D01*
X141947589Y-87518027D01*
X142055754Y-87445754D01*
X142128027Y-87337589D01*
X142153406Y-87210000D01*
X142153406Y-85510000D01*
X142128027Y-85382411D01*
X142055754Y-85274246D01*
X141947589Y-85201973D01*
X141820000Y-85176594D01*
X140120000Y-85176594D01*
X139992411Y-85201973D01*
X139884246Y-85274246D01*
X139811973Y-85382411D01*
X139786594Y-85510000D01*
X139786594Y-87210000D01*
X139811973Y-87337589D01*
X139884246Y-87445754D01*
X139992411Y-87518027D01*
X140120000Y-87543406D01*
X140525735Y-87543406D01*
X140544225Y-87636361D01*
X140618909Y-87748133D01*
X140644127Y-87785874D01*
X140681867Y-87811091D01*
X142658908Y-89788133D01*
X142684126Y-89825874D01*
X142721866Y-89851091D01*
X142833638Y-89925775D01*
X143010000Y-89960855D01*
X143054518Y-89952000D01*
X146382480Y-89952000D01*
X146426998Y-89960855D01*
X146471516Y-89952000D01*
X146603360Y-89925775D01*
X146752872Y-89825874D01*
X146778091Y-89788131D01*
X147339224Y-89226999D01*
X147660777Y-89226999D01*
X148221910Y-89788133D01*
X148247128Y-89825874D01*
X148396640Y-89925775D01*
X148528484Y-89952000D01*
X148528485Y-89952000D01*
X148573001Y-89960855D01*
X148617518Y-89952000D01*
X149716953Y-89952000D01*
X149682684Y-89986269D01*
X149640157Y-89994728D01*
X149640156Y-89994728D01*
X149508312Y-90020953D01*
X149358800Y-90120854D01*
X149333579Y-90158600D01*
X149219177Y-90273001D01*
X143254857Y-90273001D01*
X143210339Y-90264146D01*
X143165821Y-90273001D01*
X143033977Y-90299226D01*
X142884465Y-90399127D01*
X142859248Y-90436867D01*
X134977570Y-98318546D01*
X134791175Y-98241339D01*
X134342827Y-98241339D01*
X133928607Y-98412915D01*
X133611577Y-98729945D01*
X133440001Y-99144165D01*
X133440001Y-99592513D01*
X133611577Y-100006733D01*
X133928607Y-100323763D01*
X134342827Y-100495339D01*
X134679393Y-100495339D01*
X134704254Y-100520200D01*
X134458137Y-100594334D01*
X134398390Y-100760558D01*
X134377425Y-100709945D01*
X134060395Y-100392915D01*
X133646175Y-100221339D01*
X133197827Y-100221339D01*
X132783607Y-100392915D01*
X132466577Y-100709945D01*
X132295001Y-101124165D01*
X132295001Y-101572513D01*
X132466577Y-101986733D01*
X132783607Y-102303763D01*
X133197827Y-102475339D01*
X133646175Y-102475339D01*
X134060395Y-102303763D01*
X134377425Y-101986733D01*
X134393837Y-101947111D01*
X134458137Y-102102344D01*
X134704254Y-102176478D01*
X134679393Y-102201339D01*
X134342827Y-102201339D01*
X133928607Y-102372915D01*
X133611577Y-102689945D01*
X133440001Y-103104165D01*
X133440001Y-103552513D01*
X133611577Y-103966733D01*
X133928607Y-104283763D01*
X134342827Y-104455339D01*
X134791175Y-104455339D01*
X135205395Y-104283763D01*
X135522425Y-103966733D01*
X135694001Y-103552513D01*
X135694001Y-103104165D01*
X135564694Y-102791992D01*
X135865243Y-102777663D01*
X135730001Y-103104165D01*
X135730001Y-103552513D01*
X135901577Y-103966733D01*
X136218607Y-104283763D01*
X136632827Y-104455339D01*
X137081175Y-104455339D01*
X137495395Y-104283763D01*
X137812425Y-103966733D01*
X137984001Y-103552513D01*
X137984001Y-103104165D01*
X137854694Y-102791992D01*
X138155243Y-102777663D01*
X138020001Y-103104165D01*
X138020001Y-103552513D01*
X138191577Y-103966733D01*
X138508607Y-104283763D01*
X138922827Y-104455339D01*
X139371175Y-104455339D01*
X139785395Y-104283763D01*
X140102425Y-103966733D01*
X140274001Y-103552513D01*
X140274001Y-103104165D01*
X140144694Y-102791992D01*
X140645455Y-102768117D01*
X141046006Y-102602203D01*
X141120140Y-102356084D01*
X140292001Y-101527944D01*
X140277859Y-101542087D01*
X140098253Y-101362481D01*
X140112396Y-101348339D01*
X140471606Y-101348339D01*
X141299746Y-102176478D01*
X141545865Y-102102344D01*
X141738966Y-101565116D01*
X141711779Y-100994885D01*
X141545865Y-100594334D01*
X141299746Y-100520200D01*
X140471606Y-101348339D01*
X140112396Y-101348339D01*
X140098253Y-101334197D01*
X140277859Y-101154591D01*
X140292001Y-101168734D01*
X141120140Y-100340594D01*
X141115585Y-100325470D01*
X145005001Y-100325470D01*
X145005001Y-101251208D01*
X145359265Y-102106479D01*
X146013861Y-102761075D01*
X146869132Y-103115339D01*
X147794870Y-103115339D01*
X148650141Y-102761075D01*
X149304737Y-102106479D01*
X149659001Y-101251208D01*
X149659001Y-100325470D01*
X149304737Y-99470199D01*
X148650141Y-98815603D01*
X147794870Y-98461339D01*
X146869132Y-98461339D01*
X146013861Y-98815603D01*
X145359265Y-99470199D01*
X145005001Y-100325470D01*
X141115585Y-100325470D01*
X141046006Y-100094475D01*
X140508778Y-99901374D01*
X140280407Y-99912262D01*
X140280407Y-98568339D01*
X140255028Y-98440750D01*
X140232376Y-98406848D01*
X145457869Y-93181356D01*
X150310471Y-93181356D01*
X150354989Y-93190211D01*
X150399507Y-93181356D01*
X150531351Y-93155131D01*
X150679176Y-93056357D01*
X150899597Y-93056357D01*
X151166801Y-92945678D01*
X151371309Y-92741170D01*
X151481988Y-92473966D01*
X151481988Y-92184748D01*
X151371309Y-91917544D01*
X151166801Y-91713036D01*
X150992355Y-91640779D01*
X151013094Y-91590711D01*
X151013094Y-91301493D01*
X150902415Y-91034289D01*
X150796674Y-90928548D01*
X150866680Y-90858541D01*
X150977359Y-90591337D01*
X150977359Y-90302119D01*
X150866680Y-90034915D01*
X150783765Y-89952000D01*
X150812776Y-89952000D01*
X153548000Y-92687225D01*
X153548001Y-101889793D01*
X153548000Y-101889798D01*
X153548000Y-101923866D01*
X153383679Y-102088187D01*
X153273000Y-102355391D01*
X153273000Y-102644609D01*
X153383679Y-102911813D01*
X153588187Y-103116321D01*
X153855391Y-103227000D01*
X154144609Y-103227000D01*
X154411813Y-103116321D01*
X154616321Y-102911813D01*
X154727000Y-102644609D01*
X154727000Y-102355391D01*
X154616321Y-102088187D01*
X154452000Y-101923866D01*
X154452000Y-92544518D01*
X154460855Y-92500000D01*
X154425775Y-92323638D01*
X154394850Y-92277356D01*
X154325874Y-92174126D01*
X154288134Y-92148909D01*
X151591224Y-89452000D01*
X152312776Y-89452000D01*
X154730001Y-91869226D01*
X154730002Y-105433397D01*
X154730001Y-105433402D01*
X154730001Y-105593249D01*
X154515284Y-105682187D01*
X154184188Y-106013283D01*
X154005001Y-106445880D01*
X154005001Y-106914120D01*
X154184188Y-107346717D01*
X154240472Y-107403001D01*
X133035886Y-107403001D01*
X130298928Y-104666043D01*
X151855001Y-104666043D01*
X151855001Y-105193957D01*
X152057025Y-105681685D01*
X152430316Y-106054976D01*
X152918044Y-106257000D01*
X153445958Y-106257000D01*
X153933686Y-106054976D01*
X154306977Y-105681685D01*
X154509001Y-105193957D01*
X154509001Y-104666043D01*
X154306977Y-104178315D01*
X153933686Y-103805024D01*
X153445958Y-103603000D01*
X152918044Y-103603000D01*
X152430316Y-103805024D01*
X152057025Y-104178315D01*
X151855001Y-104666043D01*
X130298928Y-104666043D01*
X130088223Y-104455339D01*
X130211175Y-104455339D01*
X130625395Y-104283763D01*
X130942425Y-103966733D01*
X131114001Y-103552513D01*
X131114001Y-103104165D01*
X131150001Y-103104165D01*
X131150001Y-103552513D01*
X131321577Y-103966733D01*
X131638607Y-104283763D01*
X132052827Y-104455339D01*
X132501175Y-104455339D01*
X132915395Y-104283763D01*
X133232425Y-103966733D01*
X133404001Y-103552513D01*
X133404001Y-103104165D01*
X133232425Y-102689945D01*
X132915395Y-102372915D01*
X132501175Y-102201339D01*
X132052827Y-102201339D01*
X131638607Y-102372915D01*
X131321577Y-102689945D01*
X131150001Y-103104165D01*
X131114001Y-103104165D01*
X130942425Y-102689945D01*
X130625395Y-102372915D01*
X130211175Y-102201339D01*
X129762827Y-102201339D01*
X129348607Y-102372915D01*
X129031577Y-102689945D01*
X128860001Y-103104165D01*
X128860001Y-103227117D01*
X127462603Y-101829719D01*
X127462603Y-100376084D01*
X129158862Y-100376084D01*
X129232996Y-100622203D01*
X129770224Y-100815304D01*
X130140243Y-100797663D01*
X130005001Y-101124165D01*
X130005001Y-101572513D01*
X130176577Y-101986733D01*
X130493607Y-102303763D01*
X130907827Y-102475339D01*
X131356175Y-102475339D01*
X131770395Y-102303763D01*
X132087425Y-101986733D01*
X132259001Y-101572513D01*
X132259001Y-101124165D01*
X132087425Y-100709945D01*
X131770395Y-100392915D01*
X131356175Y-100221339D01*
X131019609Y-100221339D01*
X130994748Y-100196478D01*
X131240865Y-100122344D01*
X131300612Y-99956120D01*
X131321577Y-100006733D01*
X131638607Y-100323763D01*
X132052827Y-100495339D01*
X132501175Y-100495339D01*
X132915395Y-100323763D01*
X133232425Y-100006733D01*
X133404001Y-99592513D01*
X133404001Y-99144165D01*
X133232425Y-98729945D01*
X132915395Y-98412915D01*
X132501175Y-98241339D01*
X132052827Y-98241339D01*
X131638607Y-98412915D01*
X131321577Y-98729945D01*
X131305165Y-98769567D01*
X131240865Y-98614334D01*
X130994746Y-98540200D01*
X130166606Y-99368339D01*
X130180749Y-99382481D01*
X130001143Y-99562087D01*
X129987001Y-99547944D01*
X129158862Y-100376084D01*
X127462603Y-100376084D01*
X127462603Y-99151562D01*
X128540036Y-99151562D01*
X128567223Y-99721793D01*
X128733137Y-100122344D01*
X128979256Y-100196478D01*
X129807396Y-99368339D01*
X128979256Y-98540200D01*
X128733137Y-98614334D01*
X128540036Y-99151562D01*
X127462603Y-99151562D01*
X127462603Y-98360594D01*
X129158862Y-98360594D01*
X129987001Y-99188734D01*
X130815140Y-98360594D01*
X130741006Y-98114475D01*
X130203778Y-97921374D01*
X129633547Y-97948561D01*
X129232996Y-98114475D01*
X129158862Y-98360594D01*
X127462603Y-98360594D01*
X127462603Y-89035119D01*
X127471458Y-88990602D01*
X127462603Y-88946085D01*
X127436378Y-88814241D01*
X127336477Y-88664729D01*
X127298734Y-88639510D01*
X125484606Y-86825382D01*
X125488709Y-86819242D01*
X125580058Y-86360000D01*
X125719942Y-86360000D01*
X125811291Y-86819242D01*
X126071431Y-87208569D01*
X126460758Y-87468709D01*
X126804080Y-87537000D01*
X127035920Y-87537000D01*
X127379242Y-87468709D01*
X127768569Y-87208569D01*
X128028709Y-86819242D01*
X128120058Y-86360000D01*
X128259942Y-86360000D01*
X128351291Y-86819242D01*
X128611431Y-87208569D01*
X129000758Y-87468709D01*
X129344080Y-87537000D01*
X129575920Y-87537000D01*
X129919242Y-87468709D01*
X130308569Y-87208569D01*
X130568709Y-86819242D01*
X130660058Y-86360000D01*
X130568709Y-85900758D01*
X130308569Y-85511431D01*
X130306428Y-85510000D01*
X130816594Y-85510000D01*
X130816594Y-87210000D01*
X130841973Y-87337589D01*
X130914246Y-87445754D01*
X131022411Y-87518027D01*
X131150000Y-87543406D01*
X132850000Y-87543406D01*
X132977589Y-87518027D01*
X133085754Y-87445754D01*
X133158027Y-87337589D01*
X133183406Y-87210000D01*
X133183406Y-85510000D01*
X133158027Y-85382411D01*
X133085754Y-85274246D01*
X132977589Y-85201973D01*
X132850000Y-85176594D01*
X131150000Y-85176594D01*
X131022411Y-85201973D01*
X130914246Y-85274246D01*
X130841973Y-85382411D01*
X130816594Y-85510000D01*
X130306428Y-85510000D01*
X129919242Y-85251291D01*
X129575920Y-85183000D01*
X129344080Y-85183000D01*
X129000758Y-85251291D01*
X128611431Y-85511431D01*
X128351291Y-85900758D01*
X128259942Y-86360000D01*
X128120058Y-86360000D01*
X128028709Y-85900758D01*
X127768569Y-85511431D01*
X127379242Y-85251291D01*
X127035920Y-85183000D01*
X126804080Y-85183000D01*
X126460758Y-85251291D01*
X126071431Y-85511431D01*
X125811291Y-85900758D01*
X125719942Y-86360000D01*
X125580058Y-86360000D01*
X125488709Y-85900758D01*
X125228569Y-85511431D01*
X124839242Y-85251291D01*
X124495920Y-85183000D01*
X124264080Y-85183000D01*
X123920758Y-85251291D01*
X123531431Y-85511431D01*
X123271291Y-85900758D01*
X123179942Y-86360000D01*
X123271291Y-86819242D01*
X123531431Y-87208569D01*
X123920758Y-87468709D01*
X124264080Y-87537000D01*
X124495920Y-87537000D01*
X124839242Y-87468709D01*
X124845382Y-87464606D01*
X126105779Y-88725003D01*
X124844226Y-88725002D01*
X122944606Y-86825382D01*
X122948709Y-86819242D01*
X123040058Y-86360000D01*
X122948709Y-85900758D01*
X122688569Y-85511431D01*
X122299242Y-85251291D01*
X121955920Y-85183000D01*
X121724080Y-85183000D01*
X121380758Y-85251291D01*
X120991431Y-85511431D01*
X120731291Y-85900758D01*
X120639942Y-86360000D01*
X120731291Y-86819242D01*
X120991431Y-87208569D01*
X121380758Y-87468709D01*
X121724080Y-87537000D01*
X121955920Y-87537000D01*
X122299242Y-87468709D01*
X122305382Y-87464606D01*
X124305911Y-89465135D01*
X124331128Y-89502875D01*
X124368868Y-89528092D01*
X124480640Y-89602776D01*
X124657001Y-89637857D01*
X124701522Y-89629001D01*
X126108593Y-89629003D01*
X126108595Y-102158821D01*
X126099739Y-102203344D01*
X126134819Y-102379705D01*
X126176923Y-102442718D01*
X126234721Y-102529218D01*
X126272461Y-102554435D01*
X132311169Y-108593144D01*
X132336387Y-108630885D01*
X132485899Y-108730786D01*
X132617743Y-108757011D01*
X132617744Y-108757011D01*
X132662260Y-108765866D01*
X132706777Y-108757011D01*
X152330790Y-108757011D01*
X153176779Y-109603000D01*
X152918044Y-109603000D01*
X152430316Y-109805024D01*
X152057025Y-110178315D01*
X151855001Y-110666043D01*
X151855001Y-110873000D01*
X116114931Y-110873000D01*
X116990046Y-109997885D01*
X117527000Y-108701564D01*
X117527000Y-107298436D01*
X116990046Y-106002115D01*
X115997885Y-105009954D01*
X114701564Y-104473000D01*
X113298436Y-104473000D01*
X112002115Y-105009954D01*
X111127000Y-105885069D01*
X111127000Y-100325470D01*
X120005001Y-100325470D01*
X120005001Y-101251208D01*
X120359265Y-102106479D01*
X121013861Y-102761075D01*
X121869132Y-103115339D01*
X122794870Y-103115339D01*
X123650141Y-102761075D01*
X124304737Y-102106479D01*
X124659001Y-101251208D01*
X124659001Y-100325470D01*
X124304737Y-99470199D01*
X123650141Y-98815603D01*
X122794870Y-98461339D01*
X121869132Y-98461339D01*
X121013861Y-98815603D01*
X120359265Y-99470199D01*
X120005001Y-100325470D01*
X111127000Y-100325470D01*
X111127000Y-89114931D01*
X112002115Y-89990046D01*
X113298436Y-90527000D01*
X114701564Y-90527000D01*
X115997885Y-89990046D01*
X116990046Y-88997885D01*
X117527000Y-87701564D01*
X117527000Y-86298436D01*
X116990046Y-85002115D01*
X116114931Y-84127000D01*
X168885069Y-84127000D01*
X168009954Y-85002115D01*
G36*
X135905749Y-101334197D02*
G01*
X135891606Y-101348339D01*
X135905749Y-101362481D01*
X135726143Y-101542087D01*
X135712001Y-101527944D01*
X135697859Y-101542087D01*
X135518253Y-101362481D01*
X135532396Y-101348339D01*
X135518253Y-101334197D01*
X135697859Y-101154591D01*
X135712001Y-101168734D01*
X135726143Y-101154591D01*
X135905749Y-101334197D01*
X135905749Y-101334197D01*
G37*
X135905749Y-101334197D02*
X135891606Y-101348339D01*
X135905749Y-101362481D01*
X135726143Y-101542087D01*
X135712001Y-101527944D01*
X135697859Y-101542087D01*
X135518253Y-101362481D01*
X135532396Y-101348339D01*
X135518253Y-101334197D01*
X135697859Y-101154591D01*
X135712001Y-101168734D01*
X135726143Y-101154591D01*
X135905749Y-101334197D01*
G36*
X138195749Y-101334197D02*
G01*
X138181606Y-101348339D01*
X138195749Y-101362481D01*
X138016143Y-101542087D01*
X138002001Y-101527944D01*
X137987859Y-101542087D01*
X137808253Y-101362481D01*
X137822396Y-101348339D01*
X137808253Y-101334197D01*
X137987859Y-101154591D01*
X138002001Y-101168734D01*
X138016143Y-101154591D01*
X138195749Y-101334197D01*
X138195749Y-101334197D01*
G37*
X138195749Y-101334197D02*
X138181606Y-101348339D01*
X138195749Y-101362481D01*
X138016143Y-101542087D01*
X138002001Y-101527944D01*
X137987859Y-101542087D01*
X137808253Y-101362481D01*
X137822396Y-101348339D01*
X137808253Y-101334197D01*
X137987859Y-101154591D01*
X138002001Y-101168734D01*
X138016143Y-101154591D01*
X138195749Y-101334197D01*
M02*
